<?xml version="1.0" standalone="no"?>
<!DOCTYPE svg PUBLIC "-//W3C//DTD SVG 1.1//EN" "http://www.w3.org/Graphics/SVG/1.1/DTD/svg11.dtd" >
<svg xmlns="http://www.w3.org/2000/svg">
<metadata></metadata>
<defs>
<font id="upc_sgothic_stencilscregular" horiz-adv-x="819" >
<font-face units-per-em="2048" ascent="1536" descent="-512" />
<missing-glyph horiz-adv-x="307" />
<glyph horiz-adv-x="2048" />
<glyph horiz-adv-x="2048" />
<glyph unicode="&#xd;" horiz-adv-x="2048" />
<glyph unicode=" "  horiz-adv-x="307" />
<glyph unicode="&#x09;" horiz-adv-x="307" />
<glyph unicode="&#xa0;" horiz-adv-x="307" />
<glyph unicode="!" horiz-adv-x="552" d="M168 29v159q0 12 8.5 20.5t20.5 8.5h159q12 0 20.5 -8.5t8.5 -20.5v-159q0 -12 -8.5 -20.5t-20.5 -8.5h-159q-12 0 -20.5 8.5t-8.5 20.5zM170 1024v381q0 12 8.5 20.5t20.5 8.5h155q12 0 20.5 -8.5t8.5 -20.5v-381l-41 -588q0 -10 -9 -18t-20 -8h-73q-11 0 -20 8t-9 18z " />
<glyph unicode="&#x22;" horiz-adv-x="569" d="M51 1053v352q0 12 8.5 20.5t20.5 8.5h127q12 0 20.5 -8.5t8.5 -20.5v-352q0 -12 -8.5 -20.5t-20.5 -8.5h-127q-12 0 -20.5 8.5t-8.5 20.5zM334 1053v352q0 12 8 20.5t20 8.5h127q12 0 20.5 -8.5t8.5 -20.5v-352q0 -12 -8.5 -20.5t-20.5 -8.5h-127q-12 0 -20 8.5t-8 20.5z " />
<glyph unicode="#" d="M0 266v127q0 12 8.5 20.5t20.5 8.5h112l70 397h-107q-12 0 -20 8.5t-8 20.5v127q0 12 8 20.5t20 8.5h140l35 200q2 9 10.5 17t17.5 8h78q14 0 23 -11t6 -24l-142 -772h90q14 0 23 -11t6 -24l-24 -127q-1 -9 -10.5 -15.5t-18.5 -6.5h-98l-39 -213q-2 -9 -11 -17t-18 -8 h-74q-14 0 -22.5 11t-5.5 24l41 203h-82q-12 0 -20.5 8t-8.5 20zM414 35l143 784h-94q-14 0 -23 11t-6 24l25 127q1 9 10 16t18 7h101l37 200q2 9 10.5 17t17.5 8h78q14 0 23 -11t6 -24l-35 -190h66q12 0 20 -8.5t8 -20.5v-127q0 -12 -8 -20.5t-20 -8.5h-101l-72 -397h101 q12 0 20.5 -8.5t8.5 -20.5v-127q0 -12 -8.5 -20t-20.5 -8h-133l-39 -213q-2 -9 -11 -17t-18 -8h-76q-14 0 -22.5 11t-5.5 24z" />
<glyph unicode="$" d="M102 205v125q0 12 8.5 20t20.5 8h148q12 0 20 -8t8 -20v-94q0 -17 12 -31t29 -19q9 -1 16 -10t7 -18v-129q0 -12 -8.5 -20.5t-20.5 -8.5h-35q-81 0 -141 57q-64 58 -64 148zM102 829v195q0 83 60 143q59 59 133 62h47q12 0 20.5 -8.5t8.5 -20.5v-129q0 -9 -7 -18.5 t-16 -10.5q-17 -4 -29 -19t-12 -30v-143q0 -57 51 -82l168 -86q93 -47 142 -106.5t49 -155.5v-215q0 -90 -66 -150q-62 -55 -139 -55h-29q-12 0 -20 8.5t-8 20.5v131q0 19 18 26q17 6 28 21t11 29v163q0 56 -51 82l-172 92q-48 25 -77 45.5t-57 50.5t-40.5 69t-12.5 91z M317 -92q0 12 8.5 20.5t20.5 8.5h127q12 0 20.5 -8.5t8.5 -20.5v-125q0 -12 -8.5 -20.5t-20.5 -8.5h-127q-12 0 -20.5 8.5t-8.5 20.5v125zM317 1321v125q0 12 8.5 20.5t20.5 8.5h127q12 0 20.5 -8.5t8.5 -20.5v-125q0 -12 -8.5 -20.5t-20.5 -8.5h-127q-12 0 -20.5 8.5 t-8.5 20.5zM455 1198q0 12 8 21.5t20 9.5h29q89 0 147 -64q58 -62 58 -141v-125q0 -12 -8.5 -20.5t-20.5 -8.5h-147q-12 0 -20.5 8.5t-8.5 20.5v94q0 31 -35 47q-16 8 -16 25z" />
<glyph unicode="%" horiz-adv-x="1146" d="M61 739v365q0 55 35 90l2 2q42 33 92 33h17q12 0 20.5 -8.5t8.5 -20.5v-70q0 -15 -13 -24q-26 -17 -26 -33v-301q0 -26 22 -37q17 -9 17 -26v-66q0 -12 -8.5 -20.5t-20.5 -8.5h-19q-55 0 -92 37q-35 35 -35 88zM252 41l512 1171q3 6 11.5 11.5t15.5 5.5h59q17 0 25 -13 t2 -28l-512 -1172q-8 -16 -27 -16h-59q-17 0 -25 13t-2 28zM301 643v66q0 18 16 26q21 11 21 37v301q0 16 -25 33q-12 8 -12 24v70q0 12 8.5 20.5t20.5 8.5h16q55 0 92 -37q35 -35 35 -88v-365q0 -53 -37 -90v2q-34 -37 -90 -37h-16q-12 0 -20.5 8.5t-8.5 20.5zM674 125v364 q0 56 35 91l2 2q41 32 92 32h16q12 0 20.5 -8t8.5 -20v-70q0 -16 -12 -24q-27 -18 -27 -33v-301q0 -26 22 -37q17 -9 17 -27v-65q0 -12 -8.5 -20.5t-20.5 -8.5h-18q-55 0 -92 37q-35 35 -35 88zM913 29v65q0 18 17 27q20 10 20 37v301q0 17 -24 33q-13 9 -13 24v70 q0 12 8.5 20t20.5 8h16q57 0 93 -36q34 -34 34 -89v-364q0 -54 -36 -90v2q-34 -37 -91 -37h-16q-12 0 -20.5 8.5t-8.5 20.5z" />
<glyph unicode="&#x26;" horiz-adv-x="878" d="M111 205v231q0 73 51.5 128t124.5 71v12q-68 19 -112 73t-44 122v182q0 81 57 141q58 64 148 64h24q12 0 20.5 -8.5t8.5 -20.5v-133q0 -20 -18 -27q-35 -14 -35 -47v-215q0 -14 11 -27t26 -20q16 -8 16 -26v-70v-68q0 -16 -16 -24q-26 -14 -42 -39t-16 -53v-215 q0 -19 14 -35t33 -17q11 -2 19 -10t8 -18v-127q0 -12 -8.5 -20.5t-20.5 -8.5h-45q-79 0 -141 55h2q-65 59 -65 150zM473 29v127q0 9 7 18t16 10q18 5 31.5 19.5t13.5 32.5v317h-39q-12 0 -20.5 8.5t-8.5 20.5v116q0 12 8.5 20.5t20.5 8.5h317q12 0 20.5 -8.5t8.5 -20.5v-116 q0 -12 -8.5 -20.5t-20.5 -8.5h-98q24 -27 24 -41v-307q0 -91 -63 -148q-60 -57 -141 -57h-39q-12 0 -20.5 8.5t-8.5 20.5zM473 1071v129q0 12 8.5 20.5t20.5 8.5h39q89 0 147 -64q57 -60 57 -141v-74q0 -12 -8 -20t-20 -8h-148q-12 0 -20 8t-8 20v43q0 17 -13 31.5t-30 17.5 q-9 2 -17 11t-8 18z" />
<glyph unicode="'" horiz-adv-x="286" d="M51 1053v352q0 12 8.5 20.5t20.5 8.5h127q12 0 20.5 -8.5t8.5 -20.5v-352q0 -12 -8.5 -20.5t-20.5 -8.5h-127q-12 0 -20.5 8.5t-8.5 20.5z" />
<glyph unicode="(" horiz-adv-x="520" d="M41 590q0 276 82.5 491.5t224.5 352.5h117q19 0 27 -15t-3 -30q-50 -74 -84.5 -141.5t-68 -162.5t-50 -218t-16.5 -273q0 -151 16.5 -275t50 -219.5t68 -163t84.5 -141.5q11 -15 3 -30t-27 -15h-117q-142 137 -224.5 350.5t-82.5 489.5z" />
<glyph unicode=")" horiz-adv-x="520" d="M28 -235q-8 15 3 30q50 74 84.5 141.5t68 163t50 219.5t16.5 275q0 150 -16.5 273t-50 218t-68 162.5t-84.5 141.5q-11 15 -3 30t27 15h117q142 -137 224.5 -352.5t82.5 -491.5t-82.5 -489.5t-224.5 -350.5h-117q-19 0 -27 15z" />
<glyph unicode="*" horiz-adv-x="823" d="M66 1145q-3 11 0 20l18 54q3 9 12.5 14.5t18.5 3.5l204 -33l33 205q2 9 10.5 17t18.5 8h59q11 0 19.5 -7.5t9.5 -17.5l37 -205q20 3 92.5 14.5t110.5 16.5q9 2 18 -3.5t12 -14.5l19 -52q3 -9 -1.5 -20t-13.5 -15l-190 -96q100 -188 100 -190q11 -23 -6 -37l-47 -37 q-8 -7 -19.5 -6.5t-19.5 8.5l-153 154l-148 -154q-6 -6 -16.5 -7t-18.5 3q-11 7 -19 12.5t-11 8.5t-7.5 7t-7.5 7q-11 5 -14.5 16t2.5 23l102 190l-192 98q-9 4 -12 15z" />
<glyph unicode="+" d="M27 586v110q0 12 8 20.5t20 8.5h269v270q0 12 8 20.5t20 8.5h119q12 0 20.5 -8.5t8.5 -20.5v-270h266q12 0 20.5 -8.5t8.5 -20.5v-110q0 -12 -8.5 -20.5t-20.5 -8.5h-266v-272q0 -12 -8.5 -20.5t-20.5 -8.5h-119q-12 0 -20 8.5t-8 20.5v272h-269q-12 0 -20 8.5t-8 20.5z " />
<glyph unicode="," horiz-adv-x="327" d="M55 47v141q0 12 8.5 20.5t20.5 8.5h160q12 0 20 -8.5t8 -20.5v-270q0 -147 -186 -160q-12 -1 -21.5 8t-9.5 21v53q0 12 8.5 20.5t20.5 8.5q50 1 62 15.5t12 58.5v57h-58q-45 0 -45 47z" />
<glyph unicode="-" horiz-adv-x="512" d="M82 477v152q0 12 8.5 20t20.5 8h290q12 0 20.5 -8t8.5 -20v-152q0 -12 -8.5 -20t-20.5 -8h-290q-12 0 -20.5 8t-8.5 20z" />
<glyph unicode="." horiz-adv-x="327" d="M55 29v159q0 12 8.5 20.5t20.5 8.5h160q12 0 20 -8.5t8 -20.5v-159q0 -12 -8 -20.5t-20 -8.5h-160q-12 0 -20.5 8.5t-8.5 20.5z" />
<glyph unicode="/" d="M16 -209l592 1624q8 19 27 19h143q15 0 24 -12t3 -27l-594 -1624q-8 -19 -27 -19h-141q-15 0 -24 12t-3 27z" />
<glyph unicode="0" d="M102 205v819q0 83 62 145q60 60 143 60h31q12 0 20.5 -8.5t8.5 -20.5v-131q0 -7 -6.5 -15.5t-14.5 -11.5q-15 -5 -27 -19.5t-12 -29.5v-757q0 -17 12 -32t27 -20q8 -3 14.5 -11t6.5 -15v-129q0 -12 -8.5 -20.5t-20.5 -8.5h-31q-81 0 -141 57q-64 58 -64 148zM451 29v129 q0 9 6.5 18t15.5 10q15 5 27 20t12 30v757q0 17 -12 31.5t-29 19.5q-8 3 -14 11.5t-6 15.5v129q0 12 8 20.5t20 8.5h33q89 0 145 -62q60 -60 60 -143v-819q0 -90 -64 -148q-60 -57 -141 -57h-33q-12 0 -20 8.5t-8 20.5z" />
<glyph unicode="1" horiz-adv-x="593" d="M70 1073v127q0 12 8 20.5t20 8.5h303q12 0 20.5 -8.5t8.5 -20.5v-1171q0 -12 -8.5 -20.5t-20.5 -8.5h-147q-12 0 -20.5 8.5t-8.5 20.5v1015h-127q-12 0 -20 8.5t-8 20.5z" />
<glyph unicode="2" d="M102 29v268q0 41 13.5 78.5t29.5 63t50 57.5t53.5 47t60.5 45l150 108q20 14 36.5 41.5t16.5 61.5v194q0 15 -12 29.5t-27 19.5q-8 3 -14 11.5t-6 15.5v131q0 12 8 20.5t20 8.5h31q89 0 147 -64q58 -62 58 -141v-256q0 -27 -6 -53t-13 -44t-24.5 -41t-26.5 -34t-35 -33.5 t-34.5 -29t-38.5 -29.5l-181 -135q-51 -41 -51 -103v-237q0 -12 -8 -20.5t-20 -8.5h-148q-12 0 -20.5 8.5t-8.5 20.5zM102 848v176q0 83 60 143q62 62 145 62h33q12 0 20.5 -8.5t8.5 -20.5v-129q0 -19 -21 -27q-17 -5 -29 -19.5t-12 -31.5v-145q0 -12 -8 -20.5t-20 -8.5 h-148q-12 0 -20.5 8.5t-8.5 20.5zM391 29v127q0 12 8.5 20t20.5 8h268q12 0 20.5 -8t8.5 -20v-127q0 -12 -8.5 -20.5t-20.5 -8.5h-268q-12 0 -20.5 8.5t-8.5 20.5z" />
<glyph unicode="3" d="M92 205v53q0 12 8.5 20.5t20.5 8.5h147q12 0 20.5 -8.5t8.5 -20.5v-22q0 -17 13 -32t32 -20q9 -1 16 -10t7 -18v-127q0 -12 -8.5 -20.5t-20.5 -8.5h-39q-81 0 -141 57q-64 58 -64 148zM92 950v74q0 83 60 143q62 62 145 62h39q12 0 20.5 -8.5t8.5 -20.5v-129q0 -9 -8 -18 t-17 -11q-17 -3 -30 -17.5t-13 -31.5v-43q0 -12 -8.5 -20t-20.5 -8h-147q-12 0 -20.5 8t-8.5 20zM295 571v127q0 12 8.5 20.5t20.5 8.5h127q20 0 35.5 15.5t15.5 35.5v215q0 31 -35 47q-16 8 -16 27q0 14 -1 37.5t-1 32.5v63q0 12 8 20.5t20 8.5h25q89 0 145 -62 q60 -60 60 -143v-182q0 -71 -43.5 -128t-112.5 -67v-12q73 -3 124.5 -62.5t51.5 -136.5v-231q0 -91 -63 -148q-60 -57 -142 -57h-45q-12 0 -20 8.5t-8 20.5v127q0 10 7.5 18t18.5 10q19 1 33 17t14 35v204q0 40 -31 71.5t-71 31.5h-96q-12 0 -20.5 8t-8.5 20z" />
<glyph unicode="4" d="M20 266v131l408 815q3 6 12 11.5t15 5.5h114q17 0 25.5 -13t1.5 -28l-381 -766h109q12 0 20 -8.5t8 -20.5v-127q0 -12 -8 -20t-20 -8h-275q-12 0 -20.5 8t-8.5 20zM436 29v643l150 299q10 20 32.5 15t22.5 -28v-536h109q12 0 20 -8.5t8 -20.5v-127q0 -12 -8 -20t-20 -8 h-109v-209q0 -12 -8.5 -20.5t-20.5 -8.5h-147q-12 0 -20.5 8.5t-8.5 20.5z" />
<glyph unicode="5" d="M113 205v53q0 12 8 20.5t20 8.5h148q12 0 20 -8.5t8 -20.5v-22q0 -17 12 -31t29 -19q9 -1 16 -10t7 -18v-129q0 -12 -8.5 -20.5t-20.5 -8.5h-35q-81 0 -141 57q-63 57 -63 148zM113 571v629q0 12 8 20.5t20 8.5h537q12 0 20.5 -8.5t8.5 -20.5v-127q0 -12 -8.5 -20.5 t-20.5 -8.5h-381v-473q0 -12 -8.5 -20t-20.5 -8h-127q-12 0 -20 8t-8 20zM379 623v112q0 13 8 21q24 24 59 24h76q85 0 146 -61q59 -59 59 -144v-370q0 -91 -63 -148q-60 -57 -142 -57h-28q-12 0 -20.5 8.5t-8.5 20.5v131q0 19 18 26q17 6 28 21t11 29v307q0 20 -15.5 35.5 t-35.5 15.5h-63q-12 0 -20.5 8.5t-8.5 20.5z" />
<glyph unicode="6" d="M102 205v819q0 83 60 143q62 62 145 62h33q12 0 20.5 -8.5t8.5 -20.5v-129q0 -19 -21 -27q-17 -5 -29 -19.5t-12 -31.5v-757q0 -18 11 -32.5t28 -17.5q9 -1 16 -10t7 -18v-129q0 -12 -8.5 -20.5t-20.5 -8.5h-33q-81 0 -141 57q-64 58 -64 148zM391 612v111q0 12 8 20 q25 25 60 25h53q90 0 147 -63q58 -62 58 -142v-358q0 -90 -64 -148q-60 -57 -141 -57h-31q-12 0 -20 8.5t-8 20.5v129q0 18 20 26q15 5 27 20t12 32v296q0 20 -15.5 36t-35.5 16h-41q-12 0 -20.5 8t-8.5 20zM453 1069v131q0 12 8 20.5t20 8.5h31q83 0 145 -62 q60 -60 60 -143v-74q0 -12 -8.5 -20t-20.5 -8h-147q-12 0 -20.5 8t-8.5 20v43q0 15 -12 29.5t-27 19.5q-8 3 -14 11.5t-6 15.5z" />
<glyph unicode="7" d="M123 1073v127q0 12 8.5 20.5t20.5 8.5h247q12 0 20.5 -8.5t8.5 -20.5v-127q0 -12 -8.5 -20.5t-20.5 -8.5h-247q-12 0 -20.5 8.5t-8.5 20.5zM205 29v366q0 52 27.5 111t50.5 89.5t77 93.5q9 11 13 16l55 65q21 23 52.5 78t31.5 88v264q0 12 8.5 20.5t20.5 8.5h147 q12 0 20.5 -8.5t8.5 -20.5v-295q0 -39 -11.5 -75.5t-39.5 -77.5t-43 -60t-54 -65l-75 -88q-23 -27 -53.5 -79.5t-30.5 -84.5v-346q0 -12 -8.5 -20.5t-20.5 -8.5h-148q-12 0 -20 8.5t-8 20.5z" />
<glyph unicode="8" d="M92 205v231q0 77 51 136t125 63v12q-72 13 -119 69.5t-47 125.5v182q0 83 60 143q62 62 145 62h31q12 0 20.5 -8.5t8.5 -20.5v-131q0 -7 -6.5 -15.5t-14.5 -11.5q-15 -5 -27 -19.5t-12 -29.5v-215q0 -17 12 -31.5t27 -19.5q8 -3 14.5 -11.5t6.5 -15.5v-131q0 -9 -8 -17.5 t-17 -10.5q-19 -3 -32 -17.5t-13 -31.5v-256q0 -19 13 -34t32 -18q9 -2 17 -10.5t8 -17.5v-127q0 -12 -8.5 -20.5t-20.5 -8.5h-41q-81 0 -141 57q-64 58 -64 148zM451 29v127q0 11 7 19t17 9q19 3 33 18t14 34v251q0 21 -14 37t-33 19q-10 1 -17 9t-7 19v129q0 9 6.5 18.5 t15.5 10.5q15 5 27 19.5t12 29.5v215q0 17 -12 31.5t-29 19.5q-8 3 -14 11.5t-6 15.5v129q0 12 8 20.5t20 8.5h33q83 0 145 -62q60 -60 60 -143v-182q0 -70 -48 -127.5t-118 -67.5v-12q74 -4 125 -63t51 -136v-231q0 -91 -63 -148q-60 -57 -142 -57h-43q-12 0 -20 8.5 t-8 20.5z" />
<glyph unicode="9" d="M102 205v53q0 12 8.5 20.5t20.5 8.5h148q12 0 20 -8.5t8 -20.5v-22q0 -17 12 -32t27 -20q8 -3 14.5 -11t6.5 -15v-129q0 -12 -8.5 -20.5t-20.5 -8.5h-31q-84 0 -145 61q-60 60 -60 144zM102 666v358q0 89 64 147q62 58 141 58h31q12 0 20.5 -8.5t8.5 -20.5v-131 q0 -7 -6.5 -15.5t-14.5 -11.5q-15 -5 -27 -19.5t-12 -29.5v-297q0 -20 15.5 -35.5t35.5 -15.5h41q12 0 20.5 -8.5t8.5 -20.5v-112q0 -13 -10 -23q-23 -20 -58 -20h-53q-90 0 -147 63q-58 62 -58 142zM451 29v129q0 9 6.5 18t15.5 10q15 5 27 20t12 30v757q0 17 -12 31.5 t-29 19.5q-8 3 -14 11.5t-6 15.5v129q0 12 8 20.5t20 8.5h33q79 0 141 -58q64 -58 64 -147v-819q0 -84 -60 -144q-61 -61 -145 -61h-33q-12 0 -20 8.5t-8 20.5z" />
<glyph unicode=":" horiz-adv-x="442" d="M113 29v159q0 12 8 20.5t20 8.5h160q12 0 20.5 -8.5t8.5 -20.5v-159q0 -12 -8.5 -20.5t-20.5 -8.5h-160q-12 0 -20 8.5t-8 20.5zM113 836v159q0 12 8 20.5t20 8.5h160q12 0 20.5 -8.5t8.5 -20.5v-159q0 -12 -8.5 -20.5t-20.5 -8.5h-160q-12 0 -20 8.5t-8 20.5z" />
<glyph unicode=";" horiz-adv-x="442" d="M113 47v141q0 12 8 20.5t20 8.5h160q12 0 20.5 -8.5t8.5 -20.5v-270q0 -147 -187 -160q-12 -1 -21 8t-9 21v53q0 12 8 20.5t20 8.5q50 1 62 15.5t12 58.5v57h-57q-45 0 -45 47zM113 836v159q0 12 8 20.5t20 8.5h160q12 0 20.5 -8.5t8.5 -20.5v-159q0 -12 -8.5 -20.5 t-20.5 -8.5h-160q-12 0 -20 8.5t-8 20.5z" />
<glyph unicode="&#x3c;" d="M53 590v74q0 6 5.5 14.5t11.5 11.5l657 314q15 7 28 -1.5t13 -25.5v-123q0 -7 -6 -15.5t-12 -11.5l-650 -276q-20 6 -32 14q-15 10 -15 25zM242 502q1 18 20 26l119 50q3 2 11 2t11 -2l349 -148q16 -8 16 -27v-122q0 -17 -13 -25.5t-28 -1.5l-467 221q-19 9 -18 27z" />
<glyph unicode="=" d="M53 406v110q0 12 8.5 20.5t20.5 8.5h657q12 0 20.5 -8.5t8.5 -20.5v-110q0 -12 -8.5 -20.5t-20.5 -8.5h-657q-12 0 -20.5 8.5t-8.5 20.5zM53 737v111q0 12 8.5 20.5t20.5 8.5h657q12 0 20.5 -8.5t8.5 -20.5v-111q0 -12 -8.5 -20t-20.5 -8h-657q-12 0 -20.5 8t-8.5 20z " />
<glyph unicode="&#x3e;" d="M53 281v122q0 17 19 27l649 277q21 -7 33 -15q14 -9 14 -24v-74q0 -6 -5 -15t-11 -12l-658 -313q-15 -7 -28 1.5t-13 25.5zM53 854v123q0 17 13 25.5t28 1.5l467 -222q19 -9 18 -27t-20 -26l-119 -49q-3 -2 -11 -2t-11 2l-348 147q-17 9 -17 27z" />
<glyph unicode="?" horiz-adv-x="788" d="M88 1053v176q0 84 59 143q62 62 146 62h33q12 0 20 -8.5t8 -20.5v-129q0 -19 -20 -27q-17 -5 -29 -19.5t-12 -31.5v-145q0 -12 -8.5 -20.5t-20.5 -8.5h-147q-12 0 -20.5 8.5t-8.5 20.5zM260 29v159q0 12 8.5 20.5t20.5 8.5h160q12 0 20 -8.5t8 -20.5v-159q0 -12 -8 -20.5 t-20 -8.5h-160q-12 0 -20.5 8.5t-8.5 20.5zM266 438v144q0 37 11 72t31.5 66t38 52t42.5 47q34 34 53 56t37.5 61.5t18.5 79.5v182q0 15 -12 29.5t-27 19.5q-8 3 -14.5 11.5t-6.5 15.5v131q0 12 8.5 20.5t20.5 8.5h31q89 0 147 -64q57 -60 57 -141v-256q0 -39 -11 -73.5 t-35.5 -66.5t-41 -49.5t-49.5 -48.5q-27 -25 -40.5 -39t-32 -36.5t-26 -43.5t-7.5 -45v-133q0 -12 -8.5 -20t-20.5 -8h-135q-12 0 -20.5 8t-8.5 20z" />
<glyph unicode="@" horiz-adv-x="1622" d="M104 461v157q0 113 22.5 222t73.5 212.5t124.5 184t183.5 133t244 62.5q12 1 21 -8t9 -21v-98q0 -10 -7.5 -18.5t-18.5 -10.5q-123 -10 -217 -66t-151.5 -146.5t-86.5 -205t-29 -248.5v-139q0 -219 125.5 -357.5t358.5 -158.5q11 -2 18.5 -10.5t7.5 -18.5v-96 q0 -12 -9 -20.5t-21 -8.5q-148 8 -264 54t-186.5 112.5t-116.5 153.5t-63.5 170t-17.5 170zM436 455q0 81 10 135l27 151q24 133 107 222q93 96 215 96q48 0 90 -23q14 -7 14 -26q-5 -47 -8 -62l-8 -43q-2 -12 -12.5 -19.5t-22.5 -4.5q-8 2 -25 2q-74 0 -112 -41 q-36 -36 -64 -164l-18 -94q-11 -57 -11 -86q0 -59 27 -85t82 -26q15 0 39 4q15 3 25 -7.5t8 -25.5l-15 -98q0 -4 -4.5 -11t-7.5 -9q-51 -35 -141 -35q-85 0 -140 68.5t-55 181.5zM866 -72q0 10 8 19.5t19 9.5q107 7 171.5 34t113.5 72q16 16 34 5l84 -56q12 -7 13.5 -21.5 t-9.5 -23.5q-154 -147 -403 -166q-12 -1 -21.5 8t-9.5 21v98zM866 1305v98q0 12 9.5 20.5t21.5 8.5q134 -8 241 -43.5t177.5 -90t117 -127t67 -151t20.5 -166.5v-106q0 -121 -27 -217.5t-68.5 -156t-97 -99t-109 -55t-106.5 -15.5q-118 0 -174 51q-36 36 -53 100l106 672 q1 9 10.5 16t18.5 7h121q14 0 22.5 -10t5.5 -23l-92 -520q-12 -58 -12 -82q0 -29 18 -48.5t56 -19.5q28 0 56 12.5t57.5 44t52 78t37 121.5t14.5 168v82q0 171 -121 286.5t-342 135.5q-11 2 -19 10.5t-8 18.5z" />
<glyph unicode="A" horiz-adv-x="782" d="M31 33l209 1188q4 23 29 23t28 -23q20 -180 53 -428l-55 -383h74q10 0 18 -8t10 -19l17 -125q2 -14 -7 -23.5t-22 -9.5h-117l-28 -200q-1 -10 -9.5 -17.5t-19.5 -7.5h-152q-15 0 -23 10q-6 7 -6 16q0 4 1 7zM362 1401q-2 14 7 23.5t22 9.5h88q9 0 19 -8t10 -17l121 -688 l123 -688q1 -3 1 -6q0 -9 -7 -17q-9 -10 -23 -10h-152q-10 0 -18 8t-10 17l-97 651z" />
<glyph unicode="B" horiz-adv-x="901" d="M139 29v1376q0 12 8.5 20.5t20.5 8.5h147q12 0 20.5 -8.5t8.5 -20.5v-1376q0 -12 -8.5 -20.5t-20.5 -8.5h-147q-12 0 -20.5 8.5t-8.5 20.5zM428 29v127q0 12 8.5 20t20.5 8h82q20 0 35.5 16t15.5 36v307q0 40 -31.5 71t-71.5 31h-30q-12 0 -20.5 8.5t-8.5 20.5v127 q0 12 8.5 20t20.5 8h61q20 0 35.5 16t15.5 36v317q0 20 -15.5 35.5t-35.5 15.5h-61q-12 0 -20.5 8.5t-8.5 20.5v127q0 12 8.5 20.5t20.5 8.5h112q90 0 148 -64q57 -60 57 -141v-285q0 -70 -45 -127.5t-111 -66.5v-11q75 -6 126 -64.5t51 -135.5v-334q0 -90 -64 -148 q-60 -57 -141 -57h-133q-12 0 -20.5 8.5t-8.5 20.5z" />
<glyph unicode="C" d="M117 205v1024q0 81 57 141q58 64 148 64h40q12 0 20.5 -8.5t8.5 -20.5v-129q0 -9 -7.5 -18.5t-16.5 -10.5q-19 -3 -32 -17.5t-13 -31.5v-962q0 -19 13 -34t32 -18q9 -2 16.5 -10.5t7.5 -17.5v-127q0 -12 -8.5 -20.5t-20.5 -8.5h-40q-78 0 -140 55q-65 59 -65 150zM475 29 v127q0 10 7 18t18 10q19 3 33 18t14 34v145q0 12 8 20.5t20 8.5h148q12 0 20.5 -8.5t8.5 -20.5v-176q0 -90 -64 -148q-60 -57 -141 -57h-43q-12 0 -20.5 8.5t-8.5 20.5zM475 1278v127q0 12 8.5 20.5t20.5 8.5h43q89 0 147 -64q58 -62 58 -141v-176q0 -12 -8.5 -20.5 t-20.5 -8.5h-148q-12 0 -20 8.5t-8 20.5v145q0 17 -14 32.5t-33 18.5q-9 2 -17 11t-8 18z" />
<glyph unicode="D" horiz-adv-x="890" d="M139 29v1376q0 12 8.5 20.5t20.5 8.5h147q12 0 20.5 -8.5t8.5 -20.5v-1376q0 -12 -8.5 -20.5t-20.5 -8.5h-147q-12 0 -20.5 8.5t-8.5 20.5zM428 29v127q0 12 8.5 20t20.5 8h61q20 0 35.5 16t15.5 36v962q0 20 -15.5 35.5t-35.5 15.5h-61q-12 0 -20.5 8.5t-8.5 20.5v127 q0 12 8.5 20.5t20.5 8.5h112q90 0 148 -64q57 -60 57 -141v-1024q0 -95 -65 -154q-58 -51 -140 -51h-112q-12 0 -20.5 8.5t-8.5 20.5z" />
<glyph unicode="E" horiz-adv-x="716" d="M139 29v1376q0 12 8.5 20.5t20.5 8.5h455q12 0 20 -8.5t8 -20.5v-127q0 -12 -8 -20.5t-20 -8.5h-279v-420h221q12 0 20.5 -8t8.5 -20v-127q0 -12 -8.5 -20.5t-20.5 -8.5h-221v-461h279q12 0 20 -8t8 -20v-127q0 -12 -8 -20.5t-20 -8.5h-455q-12 0 -20.5 8.5t-8.5 20.5z " />
<glyph unicode="F" horiz-adv-x="688" d="M139 29v1376q0 12 8.5 20.5t20.5 8.5h455q12 0 20 -8.5t8 -20.5v-127q0 -12 -8 -20.5t-20 -8.5h-279v-420h221q12 0 20.5 -8t8.5 -20v-127q0 -12 -8.5 -20.5t-20.5 -8.5h-221v-616q0 -12 -8.5 -20.5t-20.5 -8.5h-147q-12 0 -20.5 8.5t-8.5 20.5z" />
<glyph unicode="G" horiz-adv-x="864" d="M117 205v1024q0 84 59 143q62 62 146 62h43q12 0 20 -8.5t8 -20.5v-127q0 -10 -7.5 -18.5t-16.5 -10.5q-19 -3 -33 -18.5t-14 -32.5v-962q0 -19 13.5 -35t31.5 -17q11 -2 18.5 -10t7.5 -18v-127q0 -12 -8 -20.5t-20 -8.5h-43q-82 0 -142 57q-63 57 -63 148zM424 664v127 q0 12 8.5 20t20.5 8h270q12 0 20.5 -8t8.5 -20v-586q0 -94 -66 -154q-58 -51 -139 -51h-41q-12 0 -20.5 8.5t-8.5 20.5v127q0 9 8 17.5t17 10.5q19 3 32 18t13 34v399h-94q-12 0 -20.5 8.5t-8.5 20.5zM477 1276v129q0 12 8.5 20.5t20.5 8.5h41q89 0 149 -66q56 -63 56 -139 v-176q0 -12 -8.5 -20.5t-20.5 -8.5h-148q-12 0 -20 8.5t-8 20.5v145q0 17 -13 31.5t-32 17.5q-9 2 -17 11t-8 18z" />
<glyph unicode="H" horiz-adv-x="913" d="M139 29v1376q0 12 8.5 20.5t20.5 8.5h147q12 0 20.5 -8.5t8.5 -20.5v-1376q0 -12 -8.5 -20.5t-20.5 -8.5h-147q-12 0 -20.5 8.5t-8.5 20.5zM428 674v127q0 12 8.5 20t20.5 8h112v576q0 12 8.5 20.5t20.5 8.5h147q12 0 20.5 -8.5t8.5 -20.5v-1376q0 -12 -8.5 -20.5 t-20.5 -8.5h-147q-12 0 -20.5 8.5t-8.5 20.5v616h-112q-12 0 -20.5 8.5t-8.5 20.5z" />
<glyph unicode="I" horiz-adv-x="483" d="M139 29v1376q0 12 8.5 20.5t20.5 8.5h147q12 0 20.5 -8.5t8.5 -20.5v-1376q0 -12 -8.5 -20.5t-20.5 -8.5h-147q-12 0 -20.5 8.5t-8.5 20.5z" />
<glyph unicode="J" horiz-adv-x="759" d="M25 205v176q0 12 8 20.5t20 8.5h148q12 0 20 -8.5t8 -20.5v-145q0 -20 16 -36t36 -16h41q12 0 20 -8t8 -20v-127q0 -12 -8 -20.5t-20 -8.5h-93q-81 0 -141 57q-63 57 -63 148zM434 31v1374q0 12 8.5 20.5t20.5 8.5h147q12 0 20.5 -8.5t8.5 -20.5v-1200q0 -90 -64 -148 q-42 -42 -108 -55q-3 -1 -6 -1q-9 0 -17 7q-10 9 -10 23z" />
<glyph unicode="K" horiz-adv-x="888" d="M139 29v1376q0 12 8.5 20.5t20.5 8.5h147q12 0 20.5 -8.5t8.5 -20.5v-1376q0 -12 -8.5 -20.5t-20.5 -8.5h-147q-12 0 -20.5 8.5t-8.5 20.5zM428 596v346l219 475q3 6 12 11.5t15 5.5h168q17 0 24.5 -14t-0.5 -29l-311 -578l317 -774q3 -7 3 -13q-1 -8 -5 -14 q-8 -12 -24 -12h-172q-20 0 -27 18z" />
<glyph unicode="L" horiz-adv-x="661" d="M139 29v1376q0 12 8.5 20.5t20.5 8.5h147q12 0 20.5 -8.5t8.5 -20.5v-1221h279q12 0 20 -8t8 -20v-127q0 -12 -8 -20.5t-20 -8.5h-455q-12 0 -20.5 8.5t-8.5 20.5z" />
<glyph unicode="M" horiz-adv-x="1212" d="M139 29v932q0 23 24.5 26.5t31.5 -18.5l131 -422v-518q0 -12 -8.5 -20.5t-20.5 -8.5h-129q-12 0 -20.5 8.5t-8.5 20.5zM150 1397q-1 5 -1 10q1 9 5 16q8 11 22 11h135q7 0 15.5 -6.5t11.5 -14.5l268 -868h21l121 389q8 23 31.5 19t23.5 -27v-363l-107 -338 q-8 -20 -26 -20h-127q-7 0 -15.5 6t-11.5 14zM887 29v1376q0 12 8 20.5t20 8.5h129q12 0 20.5 -8.5t8.5 -20.5v-1376q0 -12 -8.5 -20.5t-20.5 -8.5h-129q-12 0 -20 8.5t-8 20.5z" />
<glyph unicode="N" horiz-adv-x="976" d="M139 29v979q0 23 24.5 27.5t31.5 -17.5l135 -420l14 -227v-342q0 -12 -8.5 -20.5t-20.5 -8.5h-147q-12 0 -20.5 8.5t-8.5 20.5zM154 1395q-2 6 -2 11q0 9 5 16q8 12 23 12h144q18 0 26 -19l473 -1376q5 -15 -3 -27t-23 -12h-144q-19 0 -26 18zM633 995v410q0 12 8.5 20.5 t20.5 8.5h147q12 0 20.5 -8.5t8.5 -20.5v-985q0 -24 -24 -28q-4 -1 -8 0q-18 0 -24 18l-135 417z" />
<glyph unicode="O" horiz-adv-x="868" d="M117 205v1024q0 84 59 143q62 62 146 62h40q12 0 20.5 -8.5t8.5 -20.5v-129q0 -9 -7.5 -18.5t-16.5 -10.5q-19 -3 -32 -17.5t-13 -31.5v-962q0 -19 13 -34t32 -18q9 -2 16.5 -10.5t7.5 -17.5v-127q0 -12 -8.5 -20.5t-20.5 -8.5h-40q-85 0 -146 61q-59 59 -59 144zM475 29 v127q0 10 8 18t19 10q20 1 32.5 16.5t12.5 35.5v962q0 17 -14 32.5t-33 18.5q-9 2 -17 11t-8 18v127q0 12 8.5 20.5t20.5 8.5h43q83 0 143 -60q62 -56 62 -145v-1024q0 -84 -60 -144q-55 -61 -145 -61h-43q-12 0 -20.5 8.5t-8.5 20.5z" />
<glyph unicode="P" horiz-adv-x="839" d="M139 29v1376q0 12 8.5 20.5t20.5 8.5h147q12 0 20.5 -8.5t8.5 -20.5v-1376q0 -12 -8.5 -20.5t-20.5 -8.5h-147q-12 0 -20.5 8.5t-8.5 20.5zM428 674v127q0 12 8.5 20t20.5 8h59q20 0 35.5 16t17.5 38v315q0 20 -15.5 35.5t-35.5 15.5h-61q-12 0 -20.5 8.5t-8.5 20.5v127 q0 12 8.5 20.5t20.5 8.5h114q81 0 144 -60q59 -59 59 -145v-379q0 -83 -59 -145q-63 -60 -146 -60h-112q-12 0 -20.5 8.5t-8.5 20.5z" />
<glyph unicode="Q" horiz-adv-x="868" d="M117 205v1024q0 86 59 145q60 60 146 60h43q12 0 20 -8.5t8 -20.5v-127q0 -10 -7.5 -18.5t-16.5 -10.5q-19 -3 -33 -18.5t-14 -32.5v-962q0 -19 13.5 -35t31.5 -17q11 -2 18.5 -10t7.5 -18v-127q0 -12 -8 -20.5t-20 -8.5h-43q-85 0 -144 59q-61 61 -61 146zM477 8v148 q0 9 8 17.5t17 10.5q19 3 32 18t13 34v962q0 17 -13 31.5t-32 17.5q-9 2 -17 11t-8 18v129q0 12 8.5 20.5t20.5 8.5h41q83 0 143 -60q62 -62 62 -145v-1024q0 -92 -82 -164l88 -150q5 -9 5 -16q0 -13 -15 -22l-109 -64q-9 -5 -17 -5q-13 0 -22 15z" />
<glyph unicode="R" horiz-adv-x="901" d="M139 29v1376q0 12 8.5 20.5t20.5 8.5h147q12 0 20.5 -8.5t8.5 -20.5v-1376q0 -12 -8.5 -20.5t-20.5 -8.5h-147q-12 0 -20.5 8.5t-8.5 20.5zM428 711v90q0 12 8.5 20t20.5 8h59q20 0 35.5 16t17.5 38v315q0 20 -15.5 35.5t-35.5 15.5h-61q-12 0 -20.5 8.5t-8.5 20.5v127 q0 12 8.5 20.5t20.5 8.5h114q81 0 144 -60q59 -59 59 -145v-346q0 -84 -57 -144q-26 -26 -76 -45l178 -657q1 -4 1 -8q0 -9 -6 -17q-8 -12 -21 -12h-152q-21 0 -29 23z" />
<glyph unicode="S" horiz-adv-x="823" d="M94 205v176q0 12 8.5 20.5t20.5 8.5h147q12 0 20.5 -8.5t8.5 -20.5v-145q0 -20 12.5 -35.5t32.5 -16.5q11 -2 19 -10t8 -18v-127q0 -12 -8.5 -20.5t-20.5 -8.5h-43q-84 0 -143 59q-62 56 -62 146zM94 971v258q0 89 62 145q60 60 143 60h43q12 0 20.5 -8.5t8.5 -20.5v-127 q0 -10 -8 -18.5t-17 -10.5q-19 -3 -33 -18.5t-14 -32.5v-194q0 -35 14.5 -62t34.5 -39l172 -110q48 -31 80.5 -57t64.5 -61.5t48 -78.5t16 -94v-297q0 -85 -59 -144q-61 -61 -146 -61h-41q-12 0 -20 8.5t-8 20.5v127q0 9 7.5 17.5t16.5 10.5q19 3 32 18t13 34v237 q0 33 -16 60.5t-35 39.5l-176 117q-47 31 -76.5 54.5t-62 58.5t-48.5 77t-16 91zM455 1276v129q0 12 8 20.5t20 8.5h41q84 0 146 -62q59 -59 59 -143v-176q0 -12 -8.5 -20.5t-20.5 -8.5h-147q-12 0 -20.5 8.5t-8.5 20.5v145q0 17 -13 31.5t-32 17.5q-9 1 -16.5 10.5 t-7.5 18.5z" />
<glyph unicode="T" horiz-adv-x="655" d="M20 1278v127q0 12 8.5 20.5t20.5 8.5h557q12 0 20.5 -8.5t8.5 -20.5v-127q0 -12 -8.5 -20.5t-20.5 -8.5h-176v-1220q0 -12 -8.5 -20.5t-20.5 -8.5h-147q-12 0 -20.5 8.5t-8.5 20.5v1220h-176q-12 0 -20.5 8.5t-8.5 20.5z" />
<glyph unicode="U" horiz-adv-x="897" d="M131 205v1200q0 12 8.5 20.5t20.5 8.5h147q12 0 20.5 -8.5t8.5 -20.5v-1169q0 -19 13.5 -35t31.5 -17q11 -2 19 -10t8 -18v-127q0 -12 -8.5 -20.5t-20.5 -8.5h-43q-85 0 -146 61q-59 59 -59 144zM492 29v127q0 9 7.5 17.5t16.5 10.5q18 3 31.5 17t13.5 32v1172 q0 12 8.5 20.5t20.5 8.5h147q12 0 20.5 -8.5t8.5 -20.5v-1200q0 -85 -59 -144q-55 -61 -146 -61h-41q-12 0 -20 8.5t-8 20.5z" />
<glyph unicode="V" horiz-adv-x="782" d="M31 1401q-1 3 -1 7q0 9 6 16q8 10 23 10h160q11 0 19.5 -7.5t9.5 -17.5l194 -1376q2 -14 -6.5 -23.5t-21.5 -9.5h-111q-9 0 -18 8t-11 17zM438 651l111 758q1 10 9.5 17.5t19.5 7.5h145q14 0 23 -10q7 -8 7 -17q0 -3 -1 -6l-201 -1131q-5 -23 -29.5 -23t-27.5 23z" />
<glyph unicode="W" horiz-adv-x="1212" d="M43 1401q-2 14 7 23.5t22 9.5h155q11 0 19.5 -7.5t9.5 -17.5l115 -969h12l49 279q3 23 28.5 23t28.5 -23l31 -207l-49 -487q-1 -10 -9.5 -17.5t-19.5 -7.5h-153q-10 0 -18.5 8t-10.5 17zM467 1401q-2 14 7 23.5t22 9.5h145q11 0 19.5 -7.5t9.5 -17.5l194 -1376 q2 -14 -6.5 -23.5t-21.5 -9.5h-129q-11 0 -19.5 7.5t-9.5 17.5zM856 733l82 676q1 10 9.5 17.5t19.5 7.5h155q13 0 22 -9.5t7 -23.5l-176 -1106q-3 -23 -28.5 -23t-28.5 23z" />
<glyph unicode="X" horiz-adv-x="765" d="M23 39l186 500q7 20 26.5 20t26.5 -20l68 -185l-117 -336q-7 -18 -27 -18h-137q-15 0 -23 12q-5 7 -5 15q0 6 2 12zM41 1395q-2 6 -2 12q0 8 5 15q9 12 24 12h143q19 0 27 -19l245 -674l256 -702q2 -6 2 -11q0 -9 -5 -16q-8 -12 -23 -12h-142q-19 0 -26 18l-264 717z M432 1124l105 289q3 8 11 14.5t15 6.5h135q15 0 24 -12q5 -7 5 -15q0 -6 -2 -12l-170 -457q-8 -20 -26 -20h-1q-18 0 -26 20z" />
<glyph unicode="Y" horiz-adv-x="700" d="M6 1397q-1 5 -1 10q0 9 5 16q8 11 23 11h143q7 0 15.5 -6.5t11.5 -14.5l250 -776v-608q0 -12 -8.5 -20.5t-20.5 -8.5h-148q-12 0 -20 8.5t-8 20.5v618q-160 500 -242 750zM408 1053l98 360q1 9 10.5 15t18.5 6h133q15 0 22 -11q5 -7 5 -16q0 -5 -1 -10l-172 -533 q-6 -20 -26.5 -20t-26.5 20z" />
<glyph unicode="Z" horiz-adv-x="696" d="M41 29v155l477 1231q8 19 27 19h82q12 0 20 -8.5t8 -20.5v-156l-477 -1231q-7 -18 -26 -18h-82q-12 0 -20.5 8.5t-8.5 20.5zM41 1278v127q0 12 8.5 20.5t20.5 8.5h327q17 0 25 -12t2 -27l-51 -127q-8 -19 -27 -19h-276q-12 0 -20.5 8.5t-8.5 20.5zM279 39l51 127 q7 18 26 18h271q12 0 20 -8t8 -20v-127q0 -12 -8 -20.5t-20 -8.5h-322q-17 0 -25 12q-4 7 -4 14q0 6 3 13z" />
<glyph unicode="[" horiz-adv-x="563" d="M154 -219v1624q0 12 8 20.5t20 8.5h301q12 0 20.5 -8.5t8.5 -20.5v-90q0 -12 -8.5 -20.5t-20.5 -8.5h-125v-1388h125q12 0 20.5 -8.5t8.5 -20.5v-88q0 -12 -8.5 -20.5t-20.5 -8.5h-301q-12 0 -20 8.5t-8 20.5z" />
<glyph unicode="\" d="M14 1395q-6 15 3 27t24 12h145q19 0 27 -19l592 -1624q5 -15 -3.5 -27t-23.5 -12h-143q-19 0 -27 19z" />
<glyph unicode="]" horiz-adv-x="563" d="M51 -131q0 12 8.5 20.5t20.5 8.5h125v1388h-125q-12 0 -20.5 8.5t-8.5 20.5v90q0 12 8.5 20.5t20.5 8.5h301q12 0 20.5 -8.5t8.5 -20.5v-1624q0 -12 -8.5 -20.5t-20.5 -8.5h-301q-12 0 -20.5 8.5t-8.5 20.5v88z" />
<glyph unicode="^" d="M38 643q-8 14 1 29l305 557q7 14 25 14h77q16 0 25 -14l311 -557q9 -15 1 -29t-25 -14h-123q-18 0 -25 14l-188 344l-12 33l-15 -33l-186 -344q-7 -14 -25 -14h-121q-17 0 -25 14z" />
<glyph unicode="_" horiz-adv-x="614" d="M-29 -270q0 12 8.5 20t20.5 8h614q12 0 20.5 -8t8.5 -20v-111q0 -12 -8.5 -20.5t-20.5 -8.5h-614q-12 0 -20.5 8.5t-8.5 20.5v111z" />
<glyph unicode="`" d="M193 1582q7 15 26 15h133q18 0 25 -14l133 -233q9 -15 1.5 -29t-26.5 -14h-104q-17 0 -25 12l-159 233q-11 15 -4 30z" />
<glyph unicode="a" horiz-adv-x="782" d="M31 33l209 999q4 23 29 23t28 -23l49 -338l-51 -284h80q10 0 18 -8t10 -19l17 -125q2 -14 -7 -23.5t-22 -9.5h-123l-28 -200q-1 -10 -9.5 -17.5t-19.5 -7.5h-152q-15 0 -23 10q-6 7 -6 16q0 4 1 7zM356 1196q-2 14 7 23.5t22 9.5h94q9 0 19 -8t10 -17l244 -1171 q1 -3 1 -6q0 -9 -7 -17q-9 -10 -23 -10h-152q-10 0 -18 8t-10 17z" />
<glyph unicode="b" horiz-adv-x="901" d="M139 29v1171q0 12 8.5 20.5t20.5 8.5h147q12 0 20.5 -8.5t8.5 -20.5v-1171q0 -12 -8.5 -20.5t-20.5 -8.5h-147q-12 0 -20.5 8.5t-8.5 20.5zM428 29v127q0 12 8.5 20t20.5 8h82q20 0 35.5 16t15.5 36v204q0 40 -31.5 71.5t-71.5 31.5h-30q-12 0 -20.5 8t-8.5 20v127 q0 12 8.5 20.5t20.5 8.5h61q20 0 35.5 15.5t15.5 35.5v215q0 20 -15.5 35.5t-35.5 15.5h-61q-12 0 -20.5 8.5t-8.5 20.5v127q0 12 8.5 20.5t20.5 8.5h112q90 0 148 -64q57 -60 57 -141v-182q0 -70 -45 -128t-111 -67v-10q74 -6 125.5 -65t51.5 -136v-231q0 -90 -64 -148 q-60 -57 -141 -57h-133q-12 0 -20.5 8.5t-8.5 20.5z" />
<glyph unicode="c" d="M117 205v819q0 81 57 141q58 64 148 64h40q12 0 20.5 -8.5t8.5 -20.5v-129q0 -9 -7.5 -18.5t-16.5 -10.5q-19 -3 -32 -17.5t-13 -31.5v-757q0 -19 13 -34t32 -18q9 -2 16.5 -10.5t7.5 -17.5v-127q0 -12 -8.5 -20.5t-20.5 -8.5h-40q-78 0 -140 55q-65 59 -65 150zM475 29 v127q0 10 7 18t18 10q19 3 33 18t14 34v94q0 12 8 20t20 8h148q12 0 20.5 -8t8.5 -20v-125q0 -90 -64 -148q-60 -57 -141 -57h-43q-12 0 -20.5 8.5t-8.5 20.5zM475 1073v127q0 12 8.5 20.5t20.5 8.5h43q89 0 147 -64q58 -62 58 -141v-125q0 -12 -8.5 -20.5t-20.5 -8.5h-148 q-12 0 -20 8.5t-8 20.5v94q0 17 -14 32.5t-33 18.5q-9 2 -17 11t-8 18z" />
<glyph unicode="d" horiz-adv-x="890" d="M139 29v1171q0 12 8.5 20.5t20.5 8.5h147q12 0 20.5 -8.5t8.5 -20.5v-1171q0 -12 -8.5 -20.5t-20.5 -8.5h-147q-12 0 -20.5 8.5t-8.5 20.5zM428 29v127q0 12 8.5 20t20.5 8h61q20 0 35.5 16t15.5 36v757q0 20 -15.5 35.5t-35.5 15.5h-61q-12 0 -20.5 8.5t-8.5 20.5v127 q0 12 8.5 20.5t20.5 8.5h112q90 0 148 -64q57 -60 57 -141v-819q0 -95 -65 -154q-58 -51 -140 -51h-112q-12 0 -20.5 8.5t-8.5 20.5z" />
<glyph unicode="e" horiz-adv-x="716" d="M139 29v1171q0 12 8.5 20.5t20.5 8.5h455q12 0 20 -8.5t8 -20.5v-127q0 -12 -8 -20.5t-20 -8.5h-279v-317h221q12 0 20.5 -8.5t8.5 -20.5v-127q0 -12 -8.5 -20t-20.5 -8h-221v-359h279q12 0 20 -8t8 -20v-127q0 -12 -8 -20.5t-20 -8.5h-455q-12 0 -20.5 8.5t-8.5 20.5z " />
<glyph unicode="f" horiz-adv-x="688" d="M139 29v1171q0 12 8.5 20.5t20.5 8.5h455q12 0 20 -8.5t8 -20.5v-127q0 -12 -8 -20.5t-20 -8.5h-279v-317h221q12 0 20.5 -8.5t8.5 -20.5v-127q0 -12 -8.5 -20t-20.5 -8h-221v-514q0 -12 -8.5 -20.5t-20.5 -8.5h-147q-12 0 -20.5 8.5t-8.5 20.5z" />
<glyph unicode="g" horiz-adv-x="864" d="M117 205v819q0 84 59 143q62 62 146 62h43q12 0 20 -8.5t8 -20.5v-127q0 -10 -7.5 -18.5t-16.5 -10.5q-19 -3 -33 -18.5t-14 -32.5v-757q0 -19 13.5 -35t31.5 -17q11 -2 18.5 -10t7.5 -18v-127q0 -12 -8 -20.5t-20 -8.5h-43q-82 0 -142 57q-63 57 -63 148zM424 510v127 q0 12 8.5 20.5t20.5 8.5h270q12 0 20.5 -8.5t8.5 -20.5v-432q0 -94 -66 -154q-58 -51 -139 -51h-41q-12 0 -20.5 8.5t-8.5 20.5v127q0 9 8 17.5t17 10.5q19 3 32 18t13 34v245h-94q-12 0 -20.5 8.5t-8.5 20.5zM477 1071v129q0 12 8.5 20.5t20.5 8.5h41q89 0 149 -66 q56 -63 56 -139v-125q0 -12 -8.5 -20.5t-20.5 -8.5h-148q-12 0 -20 8.5t-8 20.5v94q0 17 -13 31.5t-32 17.5q-9 2 -17 11t-8 18z" />
<glyph unicode="h" horiz-adv-x="913" d="M139 29v1171q0 12 8.5 20.5t20.5 8.5h147q12 0 20.5 -8.5t8.5 -20.5v-1171q0 -12 -8.5 -20.5t-20.5 -8.5h-147q-12 0 -20.5 8.5t-8.5 20.5zM428 571v127q0 12 8.5 20.5t20.5 8.5h112v473q0 12 8.5 20.5t20.5 8.5h147q12 0 20.5 -8.5t8.5 -20.5v-1171q0 -12 -8.5 -20.5 t-20.5 -8.5h-147q-12 0 -20.5 8.5t-8.5 20.5v514h-112q-12 0 -20.5 8t-8.5 20z" />
<glyph unicode="i" horiz-adv-x="483" d="M139 29v1171q0 12 8.5 20.5t20.5 8.5h147q12 0 20.5 -8.5t8.5 -20.5v-1171q0 -12 -8.5 -20.5t-20.5 -8.5h-147q-12 0 -20.5 8.5t-8.5 20.5z" />
<glyph unicode="j" horiz-adv-x="759" d="M25 205v176q0 12 8 20.5t20 8.5h148q12 0 20 -8.5t8 -20.5v-145q0 -20 16 -36t36 -16h41q12 0 20 -8t8 -20v-127q0 -12 -8 -20.5t-20 -8.5h-93q-81 0 -141 57q-63 57 -63 148zM434 31v1169q0 12 8.5 20.5t20.5 8.5h147q12 0 20.5 -8.5t8.5 -20.5v-995q0 -90 -64 -148 q-42 -42 -108 -55q-3 -1 -6 -1q-9 0 -17 7q-10 9 -10 23z" />
<glyph unicode="k" horiz-adv-x="888" d="M139 29v1171q0 12 8.5 20.5t20.5 8.5h147q12 0 20.5 -8.5t8.5 -20.5v-1171q0 -12 -8.5 -20.5t-20.5 -8.5h-147q-12 0 -20.5 8.5t-8.5 20.5zM428 475v340l219 397q3 6 12 11.5t15 5.5h162q17 0 24.5 -14t-0.5 -29l-319 -506l327 -641q3 -7 3 -13q-1 -8 -5 -14 q-8 -12 -24 -12h-172q-20 0 -27 18z" />
<glyph unicode="l" horiz-adv-x="661" d="M139 29v1171q0 12 8.5 20.5t20.5 8.5h147q12 0 20.5 -8.5t8.5 -20.5v-1016h279q12 0 20 -8t8 -20v-127q0 -12 -8 -20.5t-20 -8.5h-455q-12 0 -20.5 8.5t-8.5 20.5z" />
<glyph unicode="m" horiz-adv-x="1212" d="M139 29v829q0 23 24.5 26.5t31.5 -18.5l131 -422v-415q0 -12 -8.5 -20.5t-20.5 -8.5h-129q-12 0 -20.5 8.5t-8.5 20.5zM182 1192q-1 5 -1 10q0 9 5 16q8 11 23 11h135q7 0 15.5 -6.5t11.5 -14.5l235 -766h21l121 389q8 23 31.5 19t23.5 -27v-362l-107 -338 q-3 -8 -11 -14.5t-15 -6.5h-127q-7 0 -15.5 6.5t-11.5 14.5zM887 29v1171q0 12 8 20.5t20 8.5h129q12 0 20.5 -8.5t8.5 -20.5v-1171q0 -12 -8.5 -20.5t-20.5 -8.5h-129q-12 0 -20 8.5t-8 20.5z" />
<glyph unicode="n" horiz-adv-x="976" d="M139 29v823q0 23 24.5 27.5t31.5 -17.5l124 -321l15 -168v-344q0 -12 -8.5 -20.5t-20.5 -8.5h-137q-12 0 -20.5 8.5t-8.5 20.5zM154 1190q-2 6 -2 11q0 9 5 16q8 12 23 12h144q18 0 26 -19l473 -1171q5 -15 -3 -27t-23 -12h-144q-19 0 -26 18zM643 856v344q0 12 8.5 20.5 t20.5 8.5h137q12 0 20.5 -8.5t8.5 -20.5v-823q0 -23 -24 -27q-4 -1 -8 -1q-18 0 -24 18l-125 321z" />
<glyph unicode="o" horiz-adv-x="868" d="M117 205v819q0 84 59 143q62 62 146 62h40q12 0 20.5 -8.5t8.5 -20.5v-129q0 -9 -7.5 -18.5t-16.5 -10.5q-19 -3 -32 -17.5t-13 -31.5v-757q0 -19 13 -34t32 -18q9 -2 16.5 -10.5t7.5 -17.5v-127q0 -12 -8.5 -20.5t-20.5 -8.5h-40q-85 0 -146 61q-59 59 -59 144zM475 29 v127q0 10 8 18t19 10q20 1 32.5 16.5t12.5 35.5v757q0 17 -14 32.5t-33 18.5q-9 2 -17 11t-8 18v127q0 12 8.5 20.5t20.5 8.5h43q83 0 143 -60q62 -56 62 -145v-819q0 -84 -60 -144q-55 -61 -145 -61h-43q-12 0 -20.5 8.5t-8.5 20.5z" />
<glyph unicode="p" horiz-adv-x="839" d="M139 29v1171q0 12 8.5 20.5t20.5 8.5h147q12 0 20.5 -8.5t8.5 -20.5v-1171q0 -12 -8.5 -20.5t-20.5 -8.5h-147q-12 0 -20.5 8.5t-8.5 20.5zM428 520v127q0 12 8.5 20.5t20.5 8.5h59q20 0 36 15.5t17 37.5v264q0 20 -15.5 35.5t-35.5 15.5h-61q-12 0 -20.5 8.5t-8.5 20.5 v127q0 12 8.5 20.5t20.5 8.5h114q81 0 144 -60q59 -59 59 -145v-328q0 -83 -59 -145q-62 -59 -146 -59h-112q-12 0 -20.5 8t-8.5 20z" />
<glyph unicode="q" horiz-adv-x="868" d="M117 205v819q0 86 59 145q60 60 146 60h43q12 0 20 -8.5t8 -20.5v-127q0 -10 -7.5 -18.5t-16.5 -10.5q-19 -3 -33 -18.5t-14 -32.5v-757q0 -19 13.5 -35t31.5 -17q11 -2 18.5 -10t7.5 -18v-127q0 -12 -8 -20.5t-20 -8.5h-43q-85 0 -144 59q-61 61 -61 146zM477 8v148 q0 9 8 17.5t17 10.5q19 3 32 18t13 34v757q0 17 -13 31.5t-32 17.5q-9 2 -17 11t-8 18v129q0 12 8.5 20.5t20.5 8.5h41q83 0 143 -60q62 -62 62 -145v-819q0 -92 -82 -164l88 -150q5 -9 5 -16q0 -13 -15 -22l-109 -64q-9 -5 -17 -5q-13 0 -22 15z" />
<glyph unicode="r" horiz-adv-x="901" d="M139 29v1171q0 12 8.5 20.5t20.5 8.5h147q12 0 20.5 -8.5t8.5 -20.5v-1171q0 -12 -8.5 -20.5t-20.5 -8.5h-147q-12 0 -20.5 8.5t-8.5 20.5zM428 557v90q0 12 8.5 20.5t20.5 8.5h59q20 0 36 15.5t17 37.5v264q0 20 -15.5 35.5t-35.5 15.5h-61q-12 0 -20.5 8.5t-8.5 20.5 v127q0 12 8.5 20.5t20.5 8.5h114q81 0 144 -60q59 -59 59 -145v-295q0 -83 -57 -143q-26 -26 -76 -45l178 -504q1 -4 1 -8q0 -9 -6 -17q-8 -12 -21 -12h-156q-21 0 -29 23z" />
<glyph unicode="s" horiz-adv-x="823" d="M94 205v125q0 12 8.5 20t20.5 8h147q12 0 20.5 -8t8.5 -20v-94q0 -20 12.5 -35.5t32.5 -16.5q11 -2 19 -10t8 -18v-127q0 -12 -8.5 -20.5t-20.5 -8.5h-43q-84 0 -143 59q-62 56 -62 146zM94 868v156q0 89 62 145q60 60 143 60h43q12 0 20.5 -8.5t8.5 -20.5v-127 q0 -10 -8 -18.5t-17 -10.5q-19 -3 -33 -18.5t-14 -32.5v-92q0 -35 14.5 -61.5t34.5 -38.5l172 -111q48 -31 80.5 -57t64.5 -61.5t48 -78.5t16 -94v-194q0 -85 -59 -144q-61 -61 -146 -61h-41q-12 0 -20 8.5t-8 20.5v127q0 9 7.5 17.5t16.5 10.5q19 3 32 18t13 34v135 q0 33 -16 60.5t-35 39.5l-176 117q-37 25 -61 42.5t-53.5 45.5t-47 54t-29.5 62t-12 76zM455 1071v129q0 12 8 20.5t20 8.5h41q84 0 146 -62q59 -59 59 -143v-125q0 -12 -8.5 -20.5t-20.5 -8.5h-147q-12 0 -20.5 8.5t-8.5 20.5v94q0 17 -13 31.5t-32 17.5q-9 1 -16.5 10.5 t-7.5 18.5z" />
<glyph unicode="t" horiz-adv-x="655" d="M20 1073v127q0 12 8.5 20.5t20.5 8.5h557q12 0 20.5 -8.5t8.5 -20.5v-127q0 -12 -8.5 -20.5t-20.5 -8.5h-176v-1015q0 -12 -8.5 -20.5t-20.5 -8.5h-147q-12 0 -20.5 8.5t-8.5 20.5v1015h-176q-12 0 -20.5 8.5t-8.5 20.5z" />
<glyph unicode="u" horiz-adv-x="897" d="M131 205v995q0 12 8.5 20.5t20.5 8.5h147q12 0 20.5 -8.5t8.5 -20.5v-964q0 -19 13.5 -35t31.5 -17q11 -2 19 -10t8 -18v-127q0 -12 -8.5 -20.5t-20.5 -8.5h-43q-85 0 -146 61q-59 59 -59 144zM492 29v127q0 9 7.5 17.5t16.5 10.5q18 3 31.5 17t13.5 32v967 q0 12 8.5 20.5t20.5 8.5h147q12 0 20.5 -8.5t8.5 -20.5v-995q0 -85 -59 -144q-55 -61 -146 -61h-41q-12 0 -20 8.5t-8 20.5z" />
<glyph unicode="v" horiz-adv-x="782" d="M31 1196q-1 3 -1 7q0 9 6 16q8 10 23 10h160q11 0 19.5 -7.5t9.5 -17.5l194 -1171q2 -14 -6.5 -23.5t-21.5 -9.5h-111q-9 0 -18 8t-11 17zM430 612l119 592q1 10 9.5 17.5t19.5 7.5h145q14 0 23 -10q7 -8 7 -17q0 -3 -1 -6l-205 -936q-5 -23 -30 -23t-28 23z" />
<glyph unicode="w" horiz-adv-x="1193" d="M43 1196q-2 14 7 23.5t22 9.5h155q11 0 19.5 -7.5t9.5 -17.5l115 -764h12l43 209q3 23 28.5 23t28.5 -23l31 -207l-43 -417q-1 -10 -9.5 -17.5t-19.5 -7.5h-153q-10 0 -18.5 8t-10.5 17zM467 1196q-2 14 7 23.5t22 9.5h145q11 0 19.5 -7.5t9.5 -17.5l194 -1171 q2 -14 -6.5 -23.5t-21.5 -9.5h-129q-11 0 -19.5 7.5t-9.5 17.5zM846 674l92 530q1 10 9.5 17.5t19.5 7.5h155q13 0 22 -9.5t7 -23.5l-182 -932q-3 -23 -29 -23t-29 23z" />
<glyph unicode="x" horiz-adv-x="765" d="M25 39l172 440q8 19 26.5 20t26.5 -18l69 -170l-90 -291q-8 -20 -26 -20h-152q-17 0 -25 12q-4 7 -4 14q0 6 3 13zM43 1190q-3 6 -3 12q0 8 5 15q8 12 25 12h149q17 0 27 -19l157 -381l332 -790q3 -7 3 -13q0 -8 -4 -14q-8 -12 -25 -12h-146q-17 0 -26 18l-179 420z M440 958l82 250q3 8 11.5 14.5t15.5 6.5h147q15 0 24 -12q5 -7 5 -15q0 -6 -2 -12l-154 -404q-7 -20 -26.5 -20t-26.5 20z" />
<glyph unicode="y" horiz-adv-x="700" d="M6 1192q-1 5 -1 10q0 9 5 16q8 11 23 11h143q7 0 15.5 -6.5t11.5 -14.5l250 -776v-403q0 -12 -8.5 -20.5t-20.5 -8.5h-148q-12 0 -20 8.5t-8 20.5v413q-160 500 -242 750zM408 848l98 360q1 9 10.5 15t18.5 6h133q15 0 22 -11q5 -7 5 -16q0 -5 -1 -10l-172 -533 q-6 -20 -26.5 -20t-26.5 20z" />
<glyph unicode="z" horiz-adv-x="696" d="M41 29v141l477 1040q8 19 27 19h82q12 0 20 -8.5t8 -20.5v-143l-477 -1039q-7 -18 -26 -18h-82q-12 0 -20.5 8.5t-8.5 20.5zM41 1073v127q0 12 8.5 20.5t20.5 8.5h327q17 0 25 -12t2 -27l-51 -127q-8 -19 -27 -19h-276q-12 0 -20.5 8.5t-8.5 20.5zM279 39l51 127 q7 18 26 18h271q12 0 20 -8t8 -20v-127q0 -12 -8 -20.5t-20 -8.5h-322q-17 0 -25 12q-4 7 -4 14q0 6 3 13z" />
<glyph unicode="{" horiz-adv-x="665" d="M70 547v112q0 12 8 20.5t20 8.5h86q80 0 80 98q0 21 -4 45l-47 285q-4 20 -4 62q0 121 81 188.5t214 67.5h82q12 0 20 -8.5t8 -20.5v-88q0 -12 -8 -20.5t-20 -8.5h-66q-114 0 -114 -104q0 -16 6 -51l57 -336q5 -30 -23 -58l-122 -131l122 -135q28 -28 23 -63l-59 -371 q-2 -10 -2 -33q0 -108 112 -108h66q12 0 20 -8.5t8 -20.5v-88q0 -12 -8 -20.5t-20 -8.5h-82q-133 0 -213.5 67.5t-81.5 188.5q0 22 4 58l47 311q4 24 4 45q0 96 -80 96h-86q-12 0 -20 8.5t-8 20.5z" />
<glyph unicode="|" horiz-adv-x="614" d="M205 -319v2113q0 12 8 20.5t20 8.5h148q12 0 20.5 -8.5t8.5 -20.5v-2113q0 -12 -8.5 -20.5t-20.5 -8.5h-148q-12 0 -20 8.5t-8 20.5z" />
<glyph unicode="}" horiz-adv-x="665" d="M51 -131q0 12 8.5 20.5t20.5 8.5h65q113 0 113 108q0 23 -2 33l-59 371q-5 36 22 63l123 135l-123 131q-27 27 -22 58l57 336q6 35 6 51q0 52 -30 78t-85 26h-65q-12 0 -20.5 8.5t-8.5 20.5v88q0 12 8.5 20.5t20.5 8.5h82q133 0 214 -67.5t81 -188.5q0 -42 -4 -62 l-47 -285q-5 -30 -5 -45q0 -98 80 -98h86q12 0 20.5 -8.5t8.5 -20.5v-112q0 -12 -8.5 -20.5t-20.5 -8.5h-86q-80 0 -80 -96q0 -15 5 -45l47 -311q4 -36 4 -58q-1 -121 -81.5 -188.5t-213.5 -67.5h-82q-12 0 -20.5 8.5t-8.5 20.5v88z" />
<glyph unicode="~" d="M80 590q60 95 112.5 134.5t112.5 39.5q49 0 101 -27l26 -14q60 -31 80 -31q23 0 82 72q6 7 17 9t20 -3l98 -55q24 -14 10 -39q-60 -95 -112.5 -134.5t-112.5 -39.5q-50 0 -104 26l-25 13q-66 32 -78 32q-24 0 -82 -71q-6 -7 -17 -9t-20 3l-98 55q-24 14 -10 39z" />
<glyph unicode="&#xa1;" horiz-adv-x="552" d="M168 836v159q0 12 8.5 20.5t20.5 8.5h159q12 0 20.5 -8.5t8.5 -20.5v-159q0 -12 -8.5 -20.5t-20.5 -8.5h-159q-12 0 -20.5 8.5t-8.5 20.5zM170 0l41 588q0 10 9 18t20 8h73q11 0 20 -8t9 -18l41 -588v-381q0 -12 -8.5 -20.5t-20.5 -8.5h-155q-12 0 -20.5 8.5t-8.5 20.5 v381z" />
<glyph unicode="&#xa2;" d="M102 205v614q0 82 62 144q55 55 129 61h45q12 0 20.5 -8.5t8.5 -20.5v-131q0 -18 -19 -26q-17 -6 -29 -20.5t-12 -29.5v-552q0 -17 12 -32t27 -20q8 -3 14.5 -11t6.5 -15v-129q0 -12 -8.5 -20.5t-20.5 -8.5h-47q-80 3 -129 61q-60 67 -60 144zM317 -92q0 12 8.5 20.5 t20.5 8.5h127q12 0 20.5 -8.5t8.5 -20.5v-125q0 -12 -8.5 -20.5t-20.5 -8.5h-127q-12 0 -20.5 8.5t-8.5 20.5v125zM317 1116v125q0 12 8.5 20.5t20.5 8.5h127q12 0 20.5 -8.5t8.5 -20.5v-125q0 -12 -8.5 -20.5t-20.5 -8.5h-127q-12 0 -20.5 8.5t-8.5 20.5zM451 29v127 q0 9 6.5 18t15.5 10q16 5 27.5 18.5t11.5 30.5v46q0 12 8.5 20t20.5 8h147q12 0 20.5 -8t8.5 -20v-74q0 -84 -60 -144q-55 -61 -145 -61h-33q-12 0 -20 8.5t-8 20.5zM451 866v129q0 12 8 20.5t20 8.5h33q88 0 143 -61q62 -56 62 -144v-74q0 -12 -8.5 -20t-20.5 -8h-147 q-12 0 -20.5 8t-8.5 20v43q0 17 -12 32.5t-29 19.5q-20 8 -20 26z" />
<glyph unicode="&#xa3;" d="M0 512v106q0 12 8.5 20.5t20.5 8.5h114v377q0 83 62 145q60 60 143 60h31q12 0 20.5 -8.5t8.5 -20.5v-131q0 -19 -19 -27q-17 -6 -29 -20t-12 -29v-346h238q12 0 20 -8.5t8 -20.5v-106q0 -12 -8 -20.5t-20 -8.5h-238v-299h381q12 0 20.5 -8t8.5 -20v-127 q0 -12 -8.5 -20.5t-20.5 -8.5h-557q-12 0 -20.5 8.5t-8.5 20.5v454h-114q-12 0 -20.5 8.5t-8.5 20.5zM492 1071v129q0 12 8 20.5t20 8.5h33q83 0 143 -60q62 -62 62 -145v-176q0 -12 -8.5 -20.5t-20.5 -8.5h-147q-12 0 -20.5 8.5t-8.5 20.5v145q0 17 -12 31.5t-29 19.5 q-8 3 -14 11.5t-6 15.5z" />
<glyph unicode="&#xa4;" horiz-adv-x="1024" d="M162 14l92 158q-49 64 -49 135v615q0 74 49 135q0 -1 -23 38.5t-46 78.5l-23 40q-14 25 10 39l111 64q25 14 39 -10l104 -181h14q12 0 20.5 -8t8.5 -20v-131q0 -7 -6 -15.5t-14 -11.5q-15 -5 -27 -19.5t-12 -29.5v-553q0 -17 12 -31.5t27 -19.5q8 -3 14 -11.5t6 -15.5 v-129q0 -12 -8.5 -20.5t-20.5 -8.5h-14l-104 -180q-14 -24 -39 -10l-111 63q-24 14 -10 39zM555 131v129q0 7 6 15.5t14 11.5q15 5 27 19.5t12 31.5v553q0 15 -12 29.5t-27 19.5q-8 3 -14 11.5t-6 15.5v131q0 12 8.5 20t20.5 8h14l104 181q14 24 39 10l111 -64 q24 -14 10 -39q-6 -10 -15.5 -26.5t-29.5 -51t-33.5 -57.5t-13.5 -22q49 -61 49 -135v-615q0 -71 -49 -135l92 -158q14 -25 -10 -39l-111 -63q-25 -14 -39 10l-104 180h-14q-12 0 -20.5 8.5t-8.5 20.5z" />
<glyph unicode="&#xa5;" d="M68 1190q-6 15 2.5 27t23.5 12h139q19 0 27 -19l107 -299l36 -131h15l33 131l108 299q8 19 27 19h139q15 0 24 -12t3 -27l-187 -481h123q12 0 20.5 -8.5t8.5 -20.5v-107q0 -12 -8.5 -20t-20.5 -8h-176v-144h176q12 0 20.5 -8t8.5 -20v-107q0 -12 -8.5 -20t-20.5 -8h-176 v-209q0 -12 -8.5 -20.5t-20.5 -8.5h-147q-12 0 -20.5 8.5t-8.5 20.5v209h-176q-12 0 -20.5 8t-8.5 20v107q0 12 8.5 20t20.5 8h176v144h-176q-12 0 -20.5 8t-8.5 20v107q0 12 8.5 20.5t20.5 8.5h123z" />
<glyph unicode="&#xa6;" horiz-adv-x="614" d="M205 -176v762q0 12 8 20t20 8h148q12 0 20.5 -8t8.5 -20v-762q0 -12 -8.5 -20.5t-20.5 -8.5h-148q-12 0 -20 8.5t-8 20.5zM205 848v762q0 12 8 20t20 8h148q12 0 20.5 -8t8.5 -20v-762q0 -12 -8.5 -20.5t-20.5 -8.5h-148q-12 0 -20 8.5t-8 20.5z" />
<glyph unicode="&#xa7;" d="M102 -37v74q0 12 8.5 20.5t20.5 8.5h148q12 0 20 -8.5t8 -20.5v-43q0 -17 12 -31.5t29 -19.5q21 -8 21 -27v-129q0 -12 -8.5 -20.5t-20.5 -8.5h-33q-78 0 -141 56q-64 58 -64 149zM102 444v91q0 34 21 55q12 12 27 8l135 -35q22 -7 22 -28v-84q0 -36 51 -52l236 -69 q45 -12 84 -73t39 -120v-174q0 -89 -64 -147q-62 -58 -141 -58h-31q-12 0 -20 8.5t-8 20.5v131q0 7 6 15.5t14 11.5q15 5 27 19.5t12 29.5v92q0 26 -10.5 38t-40.5 23l-187 68q-94 34 -133 81.5t-39 147.5zM102 850v174q0 79 58 141q58 64 147 64h33q12 0 20.5 -8.5 t8.5 -20.5v-129q0 -19 -21 -27q-17 -5 -29 -19.5t-12 -31.5v-92q0 -26 10 -38.5t41 -22.5l183 -58q95 -32 135.5 -84t40.5 -155v-92q0 -35 -21 -56q-10 -10 -28 -6l-136 37q-7 1 -13.5 10t-6.5 17v94q0 19 -15 32.5t-36 18.5l-225 61q-44 11 -89 70.5t-45 120.5zM453 1069 v131q0 12 8 20.5t20 8.5h31q90 0 150 -66q55 -62 55 -139v-74q0 -12 -8.5 -20t-20.5 -8h-147q-12 0 -20.5 8t-8.5 20v43q0 15 -12 29.5t-27 19.5q-8 3 -14 11.5t-6 15.5z" />
<glyph unicode="&#xa8;" d="M154 1335v148q0 12 8 20t20 8h148q12 0 20 -8t8 -20v-148q0 -12 -8 -20t-20 -8h-148q-12 0 -20 8t-8 20zM461 1335v148q0 12 8 20t20 8h148q12 0 20.5 -8t8.5 -20v-148q0 -12 -8.5 -20t-20.5 -8h-148q-12 0 -20 8t-8 20z" />
<glyph unicode="&#xa9;" horiz-adv-x="1351" d="M102 506v217q0 63 17.5 128.5t57.5 132t96.5 120.5t143 92.5t189.5 48.5q12 1 21.5 -7.5t9.5 -20.5v-54q0 -10 -8 -18t-19 -10q-97 -9 -173 -50t-120.5 -100.5t-67 -126.5t-22.5 -135v-217q0 -68 22.5 -135t67 -127t120.5 -102t173 -52q11 -2 19 -10.5t8 -18.5v-49 q0 -12 -9.5 -20.5t-21.5 -7.5q-103 10 -189.5 48.5t-143.5 92t-96.5 120t-57 132.5t-17.5 129zM420 420v389q0 63 43 109q52 55 121 55h24q12 0 20.5 -8.5t8.5 -20.5v-92q0 -19 -21 -27q-13 -4 -22.5 -16.5t-9.5 -24.5v-340q0 -30 32 -41q21 -8 21 -26v-92q0 -12 -8.5 -20.5 t-20.5 -8.5h-24q-68 0 -113 45q-51 48 -51 119zM721 12v51q0 11 7 19.5t17 9.5q78 9 142 38.5t107.5 70.5t73 93t43 105t13.5 107v217q0 53 -13.5 106t-43 104.5t-73 92.5t-107.5 70.5t-142 38.5q-10 1 -17 9t-7 19v54q0 13 9.5 21.5t21.5 6.5q102 -11 187 -49.5t141 -92.5 t95.5 -120.5t56.5 -131.5t17 -128v-217q0 -63 -17 -129t-56.5 -132.5t-95.5 -120t-141 -92t-187 -48.5q-12 -1 -21.5 7.5t-9.5 20.5zM721 285v94q0 6 5 15t11 12q31 16 31 38v29q0 12 8.5 20.5t20.5 8.5h106q12 0 20.5 -8.5t8.5 -20.5v-53q0 -71 -51 -119q-45 -45 -113 -45 h-18q-12 0 -20.5 8.5t-8.5 20.5zM721 848v96q0 12 8.5 20.5t20.5 8.5h18q71 0 119 -51q45 -45 45 -113v-53q0 -12 -8.5 -20.5t-20.5 -8.5h-106q-12 0 -20.5 8.5t-8.5 20.5v28q0 10 -9 21t-20 16q-6 3 -12 11.5t-6 15.5z" />
<glyph unicode="&#xaa;" horiz-adv-x="555" d="M72 635v180q0 49 30 82q38 41 97 41h55q12 0 20.5 -8.5t8.5 -20.5v-51q0 -12 -8.5 -20.5t-20.5 -8.5h-8q-17 0 -29 -12q-10 -10 -10 -24v-127q0 -14 12 -25.5t27 -11.5h8q12 0 20.5 -8.5t8.5 -20.5v-59q0 -12 -8.5 -20.5t-20.5 -8.5h-55q-53 0 -90 37t-37 86zM72 1067v37 q0 52 34 86q36 39 93 39h55q12 0 20.5 -8.5t8.5 -20.5v-61q0 -12 -8.5 -20.5t-20.5 -8.5h-8q-15 0 -27 -13t-12 -30q0 -12 -8.5 -20.5t-20.5 -8.5h-78q-12 0 -20 8.5t-8 20.5zM348 541v657q0 14 11 23t24 6q42 -9 68 -39q32 -36 32 -84v-563q0 -12 -8 -20.5t-20 -8.5h-78 q-12 0 -20.5 8.5t-8.5 20.5z" />
<glyph unicode="&#xab;" horiz-adv-x="800" d="M76 481v101l153 206q11 11 23 11h115q18 0 25.5 -15t-1.5 -30l-125 -205v-33l127 -209q9 -15 1.5 -29t-25.5 -14h-117q-13 0 -23 10zM412 481v101l153 206q11 11 23 11h114q18 0 26 -15t-1 -30l-125 -205v-33l127 -209q9 -15 1.5 -29t-25.5 -14h-117q-13 0 -23 10z" />
<glyph unicode="&#xac;" d="M41 586v110q0 12 8.5 20.5t20.5 8.5h671q12 0 20.5 -8.5t8.5 -20.5v-368q0 -12 -8.5 -20.5t-20.5 -8.5h-116q-12 0 -20.5 8.5t-8.5 20.5v229h-526q-12 0 -20.5 8.5t-8.5 20.5z" />
<glyph unicode="&#xad;" horiz-adv-x="512" d="M82 477v152q0 12 8.5 20t20.5 8h290q12 0 20.5 -8t8.5 -20v-152q0 -12 -8.5 -20t-20.5 -8h-290q-12 0 -20.5 8t-8.5 20z" />
<glyph unicode="&#xae;" horiz-adv-x="899" d="M82 1001v125q0 50 16 101t49.5 99.5t95 83t142.5 42.5q12 1 21.5 -8t9.5 -21v-20q0 -11 -7.5 -19.5t-17.5 -9.5q-78 -9 -130 -50t-72.5 -91t-20.5 -107v-125q0 -59 20.5 -109.5t72.5 -91.5t130 -50q10 -1 17.5 -9.5t7.5 -19.5v-16q0 -12 -9.5 -21t-21.5 -8 q-81 8 -142.5 42t-95 82.5t-49.5 99t-16 101.5zM295 887v358q0 12 8.5 20.5t20.5 8.5h24q12 0 20.5 -8.5t8.5 -20.5v-358q0 -12 -8.5 -20.5t-20.5 -8.5h-24q-12 0 -20.5 8.5t-8.5 20.5zM442 1055v16q0 12 8.5 20.5t20.5 8.5h18q9 0 20 11.5t11 23.5v36q0 10 -8.5 18.5 t-17.5 8.5h-23q-12 0 -20.5 8.5t-8.5 20.5v18q0 12 8.5 20.5t20.5 8.5h33q40 0 73 -31t33 -74v-12q0 -85 -67 -100l86 -156q8 -15 0 -29t-25 -14h-29q-16 0 -24 16l-80 152q-12 0 -20.5 8.5t-8.5 20.5zM481 705v16q0 11 7.5 19.5t17.5 9.5q114 14 169.5 86.5t55.5 164.5v125 q0 90 -55.5 162t-169.5 86q-10 1 -17.5 9.5t-7.5 19.5v20q0 12 9.5 21t21.5 8q66 -7 119.5 -31t87 -57.5t56.5 -75.5t32.5 -82t9.5 -80v-125q0 -51 -16 -101.5t-50 -99t-95.5 -82.5t-143.5 -42q-12 -1 -21.5 8t-9.5 21z" />
<glyph unicode="&#xaf;" d="M156 1386v111q0 12 8 20.5t20 8.5h451q12 0 20.5 -8.5t8.5 -20.5v-111q0 -12 -8.5 -20t-20.5 -8h-451q-12 0 -20 8t-8 20z" />
<glyph unicode="&#xb0;" horiz-adv-x="573" d="M61 768v307q0 64 45 109t109 45h10q12 0 20.5 -8.5t8.5 -20.5v-63q0 -9 -7 -18.5t-16 -10.5q-13 -3 -22.5 -12.5t-11.5 -18.5v-307q7 -32 34 -39q9 -1 16 -10.5t7 -18.5v-59q0 -12 -8.5 -20.5t-20.5 -8.5h-10q-67 0 -109 45q-45 42 -45 109zM319 643v59q0 8 7.5 17 t15.5 12q11 3 21.5 14.5t13.5 24.5v307q-3 10 -13 20t-20 11t-17.5 9.5t-7.5 19.5v63q0 12 8.5 20.5t20.5 8.5h10q67 0 107 -43q47 -44 47 -111v-307q0 -68 -47 -109q-45 -45 -107 -45h-10q-12 0 -20.5 8.5t-8.5 20.5z" />
<glyph unicode="&#xb1;" d="M53 170v111q0 12 8.5 20t20.5 8h657q12 0 20.5 -8t8.5 -20v-111q0 -12 -8.5 -20.5t-20.5 -8.5h-657q-12 0 -20.5 8.5t-8.5 20.5zM53 649v113q0 12 8.5 20.5t20.5 8.5h242v204q0 12 8 20.5t20 8.5h119q12 0 20.5 -8.5t8.5 -20.5v-204h239q12 0 20.5 -8.5t8.5 -20.5v-113 q0 -12 -8.5 -20t-20.5 -8h-239v-207q0 -12 -8.5 -20.5t-20.5 -8.5h-119q-12 0 -20 8.5t-8 20.5v207h-242q-12 0 -20.5 8t-8.5 20z" />
<glyph unicode="&#xb2;" horiz-adv-x="532" d="M61 541v149q0 102 125 168l125 66q8 4 17.5 19t9.5 32v98q0 16 -25 33q-12 8 -12 24v70q0 12 8.5 20.5t20.5 8.5h16q62 0 98 -45q29 -32 29 -80v-146q0 -104 -123 -167l-125 -64q-28 -16 -28 -55v-131q0 -12 -8.5 -20.5t-20.5 -8.5h-78q-12 0 -20.5 8.5t-8.5 20.5z M61 1008v96q0 50 31 84q38 38 96 41h19q12 0 20.5 -8.5t8.5 -20.5v-70q0 -15 -13 -24q-26 -17 -26 -33v-65q0 -12 -8.5 -20.5t-20.5 -8.5h-78q-12 0 -20.5 8.5t-8.5 20.5zM262 541v63q0 12 8.5 20.5t20.5 8.5h153q12 0 20.5 -8.5t8.5 -20.5v-63q0 -12 -8.5 -20.5t-20.5 -8.5 h-153q-12 0 -20.5 8.5t-8.5 20.5z" />
<glyph unicode="&#xb3;" horiz-adv-x="532" d="M61 637v27q0 12 8.5 20t20.5 8h78q12 0 20.5 -8t8.5 -20q0 -19 20 -29q7 -3 13 -11.5t6 -15.5v-67q0 -12 -8.5 -20.5t-20.5 -8.5h-19q-55 0 -90 35h2q-39 36 -39 90zM61 1065v39q0 50 31 84q38 38 96 41h19q12 0 20.5 -8.5t8.5 -20.5v-70q0 -15 -13 -24q-26 -17 -26 -33 v-8q0 -12 -8.5 -20.5t-20.5 -8.5h-78q-12 0 -20.5 8.5t-8.5 20.5zM180 852v61q0 12 8.5 20.5t20.5 8.5h106q9 0 16 7t7 16v108q0 16 -25 33q-12 8 -12 24v70q0 12 8.5 20.5t20.5 8.5h16q52 0 92 -43q35 -44 35 -82v-94q0 -43 -24.5 -77.5t-65.5 -43.5v-4q43 -6 72.5 -44.5 t29.5 -80.5v-123q0 -56 -39 -92q-37 -33 -88 -33h-28q-12 0 -20.5 8.5t-8.5 20.5v61q0 7 6.5 15.5t14.5 11.5q12 3 20 14t8 23v104q0 22 -15.5 37.5t-37.5 15.5h-88q-12 0 -20.5 8.5t-8.5 20.5z" />
<glyph unicode="&#xb4;" d="M310.5 1321q-8.5 14 0.5 29l131 233q9 14 25 14h133q19 0 27 -15t-2 -30l-160 -233q-8 -12 -25 -12h-104q-17 0 -25.5 14z" />
<glyph unicode="&#xb5;" horiz-adv-x="847" d="M-45 -377l242 1376q2 9 10.5 17t17.5 8h146q13 0 21.5 -9.5t6.5 -23.5l-133 -755q0 -19 12.5 -35.5t30.5 -16.5h31q15 0 23.5 -10t5.5 -24q-6 -23 -9 -46l-14 -75q-32 -29 -72 -29h-49q-19 0 -55 8q0 -1 -2 -3t-2 -3q21 -25 32 -60.5t7 -62.5l-25 -133q-17 -97 -22 -131 q-1 -10 -9.5 -17.5t-19.5 -7.5h-145q-14 0 -23 10t-6 23zM436 33l170 966q2 9 11 17t18 8h145q14 0 23 -10t6 -23l-170 -966q-2 -9 -11 -17t-18 -8h-145q-14 0 -23 10t-6 23z" />
<glyph unicode="&#xb6;" horiz-adv-x="1161" d="M117 612v617q0 84 59 143q62 62 146 62h227q12 0 20.5 -8.5t8.5 -20.5v-1786q0 -12 -8.5 -20.5t-20.5 -8.5h-148q-12 0 -20 8.5t-8 20.5v789h-51q-85 0 -145 59.5t-60 144.5zM803 -381v1786q0 12 8 20.5t20 8.5h148q12 0 20.5 -8.5t8.5 -20.5v-1786q0 -12 -8.5 -20.5 t-20.5 -8.5h-148q-12 0 -20 8.5t-8 20.5z" />
<glyph unicode="&#xb7;" horiz-adv-x="307" d="M45 473v160q0 12 8.5 20.5t20.5 8.5h159q12 0 20.5 -8.5t8.5 -20.5v-160q0 -12 -8.5 -20.5t-20.5 -8.5h-159q-12 0 -20.5 8.5t-8.5 20.5z" />
<glyph unicode="&#xb8;" d="M233 -150q0 12 8.5 20.5t20.5 8.5h47q29 0 51 43q8 15 25 15h90q12 0 21 -9.5t8 -21.5q-6 -78 -66 -134.5t-139 -56.5h-37q-12 0 -20.5 8.5t-8.5 20.5v106z" />
<glyph unicode="&#xb9;" horiz-adv-x="389" d="M61 1135v65q0 12 8.5 20.5t20.5 8.5h168q12 0 20.5 -8.5t8.5 -20.5v-659q0 -12 -8.5 -20.5t-20.5 -8.5h-78q-12 0 -20 8.5t-8 20.5v565h-62q-12 0 -20.5 8.5t-8.5 20.5z" />
<glyph unicode="&#xba;" horiz-adv-x="555" d="M72 635v469q0 52 34 86v-2q38 41 93 41h18q12 0 20.5 -8.5t8.5 -20.5v-70q0 -15 -13 -24q-26 -17 -26 -33v-407q0 -21 20 -31q7 -3 13 -11.5t6 -15.5v-67q0 -12 -8.5 -20.5t-20.5 -8.5h-18q-55 0 -90 35h2q-39 36 -39 88zM311 541v67q0 7 6.5 15.5t12.5 11.5q18 9 18 31 v407q0 17 -24 33q-13 9 -13 24v70q0 12 8.5 20.5t20.5 8.5h16q53 0 93 -43q34 -42 34 -82v-469q0 -49 -37 -86t-90 -37h-16q-12 0 -20.5 8.5t-8.5 20.5z" />
<glyph unicode="&#xbb;" horiz-adv-x="800" d="M70.5 278q-7.5 14 1.5 29l127 209v33l-125 205q-9 15 -1.5 30t25.5 15h115q12 0 23 -11l153 -206v-101l-153 -207q-10 -10 -23 -10h-117q-18 0 -25.5 14zM406.5 278q-7.5 14 1.5 29l127 209v33l-125 205q-9 15 -1.5 30t25.5 15h115q11 0 22 -11l154 -206v-101l-154 -207 q-10 -10 -22 -10h-117q-18 0 -25.5 14z" />
<glyph unicode="&#xbc;" horiz-adv-x="1105" d="M61 1135v65q0 12 8.5 20.5t20.5 8.5h168q12 0 20.5 -8.5t8.5 -20.5v-659q0 -12 -8.5 -20.5t-20.5 -8.5h-78q-12 0 -20 8.5t-8 20.5v565h-62q-12 0 -20.5 8.5t-8.5 20.5zM211 41l512 1171q9 17 27 17h59q17 0 25 -13t2 -28l-512 -1172q-8 -16 -27 -16h-59q-17 0 -25 13 t-2 28zM582 166v70l243 466q3 6 11 10.5t14 4.5h55q17 0 25 -14t0 -29l-221 -418h28q12 0 20.5 -8.5t8.5 -20.5v-61q0 -12 -8.5 -20.5t-20.5 -8.5h-127q-12 0 -20 8.5t-8 20.5zM831 29v319l84 158q11 20 32.5 14t21.5 -28v-236h80q12 0 20 -8.5t8 -20.5v-61q0 -12 -8 -20.5 t-20 -8.5h-80v-108q0 -12 -8.5 -20.5t-20.5 -8.5h-80q-12 0 -20.5 8.5t-8.5 20.5z" />
<glyph unicode="&#xbd;" horiz-adv-x="1187" d="M61 1135v65q0 12 8.5 20.5t20.5 8.5h168q12 0 20.5 -8.5t8.5 -20.5v-659q0 -12 -8.5 -20.5t-20.5 -8.5h-78q-12 0 -20 8.5t-8 20.5v565h-62q-12 0 -20.5 8.5t-8.5 20.5zM211 41l512 1171q9 17 27 17h59q17 0 25 -13t2 -28l-512 -1172q-8 -16 -27 -16h-59q-17 0 -25 13 t-2 28zM717 29v149q0 102 125 168l125 66q8 4 17 19t9 32v98q0 17 -24 33q-13 9 -13 24v70q0 12 8.5 20.5t20.5 8.5h16q63 0 99 -45q28 -31 28 -80v-146q0 -104 -122 -167l-125 -64q-29 -16 -29 -55v-131q0 -12 -8.5 -20.5t-20.5 -8.5h-78q-12 0 -20 8.5t-8 20.5zM717 496 v96q0 50 31 84q38 38 96 41h18q12 0 20.5 -8.5t8.5 -20.5v-70q0 -16 -12 -24q-27 -18 -27 -33v-65q0 -12 -8.5 -20.5t-20.5 -8.5h-78q-12 0 -20 8.5t-8 20.5zM918 29v63q0 12 8 20.5t20 8.5h154q12 0 20 -8.5t8 -20.5v-63q0 -12 -8 -20.5t-20 -8.5h-154q-12 0 -20 8.5 t-8 20.5z" />
<glyph unicode="&#xbe;" horiz-adv-x="1249" d="M61 637v27q0 12 8.5 20t20.5 8h78q12 0 20.5 -8t8.5 -20q0 -19 20 -29q7 -3 13 -11.5t6 -15.5v-67q0 -12 -8.5 -20.5t-20.5 -8.5h-19q-55 0 -90 35h2q-39 36 -39 90zM61 1065v39q0 50 31 84q38 38 96 41h19q12 0 20.5 -8.5t8.5 -20.5v-70q0 -15 -13 -24q-26 -17 -26 -33 v-8q0 -12 -8.5 -20.5t-20.5 -8.5h-78q-12 0 -20.5 8.5t-8.5 20.5zM180 852v61q0 12 8.5 20.5t20.5 8.5h106q9 0 16 7t7 16v108q0 16 -25 33q-12 8 -12 24v70q0 12 8.5 20.5t20.5 8.5h16q52 0 92 -43q35 -44 35 -82v-94q0 -43 -24.5 -77.5t-65.5 -43.5v-4q43 -6 72.5 -44.5 t29.5 -80.5v-123q0 -56 -39 -92q-37 -33 -88 -33h-28q-12 0 -20.5 8.5t-8.5 20.5v61q0 7 6.5 15.5t14.5 11.5q12 3 20 14t8 23v104q0 22 -15.5 37.5t-37.5 15.5h-88q-12 0 -20.5 8.5t-8.5 20.5zM354 41l512 1171q3 6 11.5 11.5t15.5 5.5h59q17 0 25 -13t2 -28l-512 -1172 q-8 -16 -27 -16h-59q-17 0 -25 13t-2 28zM725 166v70l244 466q7 15 24 15h56q17 0 24.5 -14t-0.5 -29l-221 -418h29q12 0 20 -8.5t8 -20.5v-61q0 -12 -8 -20.5t-20 -8.5h-127q-12 0 -20.5 8.5t-8.5 20.5zM975 29v319l84 158q11 20 32 14t21 -28v-236h80q12 0 20.5 -8.5 t8.5 -20.5v-61q0 -12 -8.5 -20.5t-20.5 -8.5h-80v-108q0 -12 -8.5 -20.5t-20.5 -8.5h-79q-12 0 -20.5 8.5t-8.5 20.5z" />
<glyph unicode="&#xbf;" horiz-adv-x="788" d="M86 51q0 39 11 73.5t35.5 66.5t41 49.5t49.5 48.5q37 35 54.5 52.5t35 49t17.5 62.5v133q0 12 8 20t20 8h136q12 0 20 -8t8 -20v-144q0 -37 -11 -72t-31.5 -66t-38 -52t-42.5 -47q-24 -24 -39 -41t-33 -43t-27 -54t-9 -59v-182q0 -15 12 -29.5t27 -19.5q8 -3 14 -11.5 t6 -15.5v-131q0 -12 -8 -20.5t-20 -8.5h-31q-90 0 -148 64q-57 60 -57 141v256zM311 836v159q0 12 8.5 20.5t20.5 8.5h160q12 0 20 -8.5t8 -20.5v-159q0 -12 -8 -20.5t-20 -8.5h-160q-12 0 -20.5 8.5t-8.5 20.5zM434 -252q0 19 21 27q17 5 29 19.5t12 31.5v145q0 12 8 20.5 t20 8.5h148q12 0 20 -8.5t8 -20.5v-176q0 -84 -59 -143q-62 -62 -145 -62h-33q-12 0 -20.5 8.5t-8.5 20.5v129z" />
<glyph unicode="&#xc0;" horiz-adv-x="782" d="M31 33l209 1188q4 23 29 23t28 -23q20 -180 53 -428l-55 -383h74q10 0 18 -8t10 -19l17 -125q2 -14 -7 -23.5t-22 -9.5h-117l-28 -200q-1 -10 -9.5 -17.5t-19.5 -7.5h-152q-14 0 -22.5 10t-5.5 23zM162 1787q7 15 26 15h134q17 0 24 -14l133 -234q9 -15 1.5 -29 t-25.5 -14h-105q-15 0 -24 13l-160 233q-11 15 -4 30zM362 1401q-2 14 7 23.5t22 9.5h88q9 0 19 -8t10 -17l121 -688l123 -688q3 -13 -6 -23t-23 -10h-152q-10 0 -18 8t-10 17l-97 651z" />
<glyph unicode="&#xc1;" horiz-adv-x="782" d="M31 33l209 1188q4 23 29 23t28 -23q20 -180 53 -428l-55 -383h74q10 0 18 -8t10 -19l17 -125q2 -14 -7 -23.5t-22 -9.5h-117l-28 -200q-1 -10 -9.5 -17.5t-19.5 -7.5h-152q-14 0 -22.5 10t-5.5 23zM310.5 1525q-8.5 14 0.5 29l131 234q9 14 25 14h133q19 0 27 -15t-2 -30 l-160 -233q-3 -4 -11.5 -8.5t-13.5 -4.5h-104q-17 0 -25.5 14zM362 1401q-2 14 7 23.5t22 9.5h88q9 0 19 -8t10 -17l121 -688l123 -688q3 -13 -6 -23t-23 -10h-152q-10 0 -18 8t-10 17l-97 651z" />
<glyph unicode="&#xc2;" horiz-adv-x="782" d="M31 33l209 1188q4 23 29 23t28 -23q20 -180 53 -428l-55 -383h74q10 0 18 -8t10 -19l17 -125q2 -14 -7 -23.5t-22 -9.5h-117l-28 -200q-1 -10 -9.5 -17.5t-19.5 -7.5h-152q-14 0 -22.5 10t-5.5 23zM133 1526q-8 15 2 30l172 234q8 12 23 12h123q14 0 22 -12l170 -234 q11 -15 4 -30t-26 -15h-113q-15 0 -25 15l-94 151l-94 -151q-10 -15 -25 -15h-112q-19 0 -27 15zM362 1401q-2 14 7 23.5t22 9.5h88q9 0 19 -8t10 -17l121 -688l123 -688q3 -13 -6 -23t-23 -10h-152q-10 0 -18 8t-10 17l-97 651z" />
<glyph unicode="&#xc3;" horiz-adv-x="782" d="M31 33l209 1188q4 23 29 23t28 -23q20 -180 53 -428l-55 -383h74q10 0 18 -8t10 -19l17 -125q2 -14 -7 -23.5t-22 -9.5h-117l-28 -200q-1 -10 -9.5 -17.5t-19.5 -7.5h-152q-14 0 -22.5 10t-5.5 23zM90 1614q55 88 100.5 120.5t104.5 32.5q42 0 92 -24l41 -23 q35 -18 53 -18q24 0 76 65q6 8 17 10.5t20 -3.5l84 -52q24 -14 10 -39q-55 -88 -100.5 -120.5t-104.5 -32.5q-42 0 -92 24l-43 21q-42 20 -51 20q-24 0 -76 -65q-6 -8 -17 -10t-20 4l-84 51q-24 14 -10 39zM362 1401q-2 14 7 23.5t22 9.5h88q9 0 19 -8t10 -17l121 -688 l123 -688q3 -13 -6 -23t-23 -10h-152q-10 0 -18 8t-10 17l-97 651z" />
<glyph unicode="&#xc4;" horiz-adv-x="782" d="M31 33l209 1188q4 23 29 23t28 -23q20 -180 53 -428l-55 -383h74q10 0 18 -8t10 -19l17 -125q2 -14 -7 -23.5t-22 -9.5h-117l-28 -200q-1 -10 -9.5 -17.5t-19.5 -7.5h-152q-14 0 -22.5 10t-5.5 23zM135 1540v148q0 12 8.5 20t20.5 8h147q12 0 20.5 -8t8.5 -20v-148 q0 -12 -8.5 -20.5t-20.5 -8.5h-147q-12 0 -20.5 8.5t-8.5 20.5zM362 1401q-2 14 7 23.5t22 9.5h88q9 0 19 -8t10 -17l121 -688l123 -688q3 -13 -6 -23t-23 -10h-152q-10 0 -18 8t-10 17l-97 651zM442 1540v148q0 12 8.5 20t20.5 8h147q12 0 20.5 -8t8.5 -20v-148 q0 -12 -8.5 -20.5t-20.5 -8.5h-147q-12 0 -20.5 8.5t-8.5 20.5z" />
<glyph unicode="&#xc5;" horiz-adv-x="782" d="M31 33l209 1188q4 23 29 23t28 -23q20 -180 53 -428l-55 -383h74q10 0 18 -8t10 -19l17 -125q2 -14 -7 -23.5t-22 -9.5h-117l-28 -200q-1 -10 -9.5 -17.5t-19.5 -7.5h-152q-14 0 -22.5 10t-5.5 23zM209 1657q0 57 31.5 103t81.5 67q15 6 26.5 -2t11.5 -25v-37 q0 -15 -14 -24q-47 -26 -47 -82q0 -58 47 -84q14 -9 14 -25v-35q0 -17 -11.5 -24.5t-26.5 -1.5q-50 21 -81.5 67t-31.5 103zM362 1401q-2 14 7 23.5t22 9.5h88q9 0 19 -8t10 -17l121 -688l123 -688q3 -13 -6 -23t-23 -10h-152q-10 0 -18 8t-10 17l-97 651zM424 1518v32 q0 6 5 15t11 12q43 21 43 80q0 55 -45 80q-14 7 -14 24v37q0 17 12 25t27 2q50 -21 80 -65.5t30 -102.5q0 -59 -29 -102.5t-81 -63.5q-15 -6 -27 2t-12 25z" />
<glyph unicode="&#xc6;" horiz-adv-x="1075" d="M-10 37l366 1145q8 22 32 18.5t24 -26.5v-396l-105 -368h76q12 0 20.5 -8.5t8.5 -20.5v-127q0 -12 -8.5 -20.5t-20.5 -8.5h-127l-57 -205q-8 -20 -27 -20h-156q-15 0 -22.5 11t-3.5 26zM496 1405q0 12 8 20.5t20 8.5h457q12 0 20.5 -8.5t8.5 -20.5v-127q0 -12 -8.5 -20.5 t-20.5 -8.5h-279v-420h222q12 0 20 -8t8 -20v-127q0 -12 -8 -20.5t-20 -8.5h-222v-461h279q12 0 20.5 -8t8.5 -20v-127q0 -12 -8.5 -20.5t-20.5 -8.5h-455q-12 0 -20 8.5t-8 20.5z" />
<glyph unicode="&#xc7;" d="M117 205v1024q0 81 57 141q58 64 148 64h40q12 0 20.5 -8.5t8.5 -20.5v-129q0 -9 -7.5 -18.5t-16.5 -10.5q-19 -3 -32 -17.5t-13 -31.5v-962q0 -19 13 -34t32 -18q9 -2 16.5 -10.5t7.5 -17.5v-127q0 -12 -8.5 -20.5t-20.5 -8.5h-40q-78 0 -140 55q-65 59 -65 150z M258 -150q0 12 8.5 20.5t20.5 8.5h47q30 0 51 43q3 6 11 10.5t14 4.5h90q12 0 20.5 -9.5t7.5 -21.5q-6 -79 -65.5 -135t-138.5 -56h-37q-12 0 -20.5 8.5t-8.5 20.5v106zM475 29v127q0 10 7 18t18 10q19 3 33 18t14 34v145q0 12 8 20.5t20 8.5h148q12 0 20.5 -8.5t8.5 -20.5 v-176q0 -90 -64 -148q-60 -57 -141 -57h-43q-12 0 -20.5 8.5t-8.5 20.5zM475 1278v127q0 12 8.5 20.5t20.5 8.5h43q89 0 147 -64q58 -62 58 -141v-176q0 -12 -8.5 -20.5t-20.5 -8.5h-148q-12 0 -20 8.5t-8 20.5v145q0 17 -14 32.5t-33 18.5q-9 2 -17 11t-8 18z" />
<glyph unicode="&#xc8;" horiz-adv-x="716" d="M139 29v1376q0 12 8.5 20.5t20.5 8.5h455q12 0 20 -8.5t8 -20.5v-127q0 -12 -8 -20.5t-20 -8.5h-279v-420h221q12 0 20.5 -8t8.5 -20v-127q0 -12 -8.5 -20.5t-20.5 -8.5h-221v-461h279q12 0 20 -8t8 -20v-127q0 -12 -8 -20.5t-20 -8.5h-455q-12 0 -20.5 8.5t-8.5 20.5z M166.5 1787q7.5 15 26.5 15h133q17 0 24 -14l133 -234q9 -15 1.5 -29t-25.5 -14h-105q-15 0 -24 13l-160 233q-11 15 -3.5 30z" />
<glyph unicode="&#xc9;" horiz-adv-x="716" d="M139 29v1376q0 12 8.5 20.5t20.5 8.5h455q12 0 20 -8.5t8 -20.5v-127q0 -12 -8 -20.5t-20 -8.5h-279v-420h221q12 0 20.5 -8t8.5 -20v-127q0 -12 -8.5 -20.5t-20.5 -8.5h-221v-461h279q12 0 20 -8t8 -20v-127q0 -12 -8 -20.5t-20 -8.5h-455q-12 0 -20.5 8.5t-8.5 20.5z M321 1525q-8 14 1 29l131 234q9 14 24 14h133q19 0 27 -15t-2 -30l-160 -233q-9 -13 -24 -13h-105q-17 0 -25 14z" />
<glyph unicode="&#xca;" horiz-adv-x="716" d="M137 1526q-8 15 2 30l172 234q8 12 23 12h123q14 0 22 -12l170 -234q11 -15 4 -30t-26 -15h-113q-15 0 -25 15l-94 151l-94 -151q-10 -15 -25 -15h-112q-19 0 -27 15zM139 29v1376q0 12 8.5 20.5t20.5 8.5h455q12 0 20 -8.5t8 -20.5v-127q0 -12 -8 -20.5t-20 -8.5h-279 v-420h221q12 0 20.5 -8t8.5 -20v-127q0 -12 -8.5 -20.5t-20.5 -8.5h-221v-461h279q12 0 20 -8t8 -20v-127q0 -12 -8 -20.5t-20 -8.5h-455q-12 0 -20.5 8.5t-8.5 20.5z" />
<glyph unicode="&#xcb;" horiz-adv-x="716" d="M139 29v1376q0 12 8.5 20.5t20.5 8.5h455q12 0 20 -8.5t8 -20.5v-127q0 -12 -8 -20.5t-20 -8.5h-279v-420h221q12 0 20.5 -8t8.5 -20v-127q0 -12 -8.5 -20.5t-20.5 -8.5h-221v-461h279q12 0 20 -8t8 -20v-127q0 -12 -8 -20.5t-20 -8.5h-455q-12 0 -20.5 8.5t-8.5 20.5z M139 1540v148q0 12 8.5 20t20.5 8h147q12 0 20.5 -8t8.5 -20v-148q0 -12 -8.5 -20.5t-20.5 -8.5h-147q-12 0 -20.5 8.5t-8.5 20.5zM446 1540v148q0 12 8.5 20t20.5 8h148q12 0 20 -8t8 -20v-148q0 -12 -8 -20.5t-20 -8.5h-148q-12 0 -20.5 8.5t-8.5 20.5z" />
<glyph unicode="&#xcc;" horiz-adv-x="483" d="M2.5 1787q7.5 15 26.5 15h133q17 0 24 -14l133 -234q9 -15 1.5 -29t-25.5 -14h-105q-15 0 -24 13l-160 233q-11 15 -3.5 30zM139 29v1376q0 12 8.5 20.5t20.5 8.5h147q12 0 20.5 -8.5t8.5 -20.5v-1376q0 -12 -8.5 -20.5t-20.5 -8.5h-147q-12 0 -20.5 8.5t-8.5 20.5z" />
<glyph unicode="&#xcd;" horiz-adv-x="483" d="M139 29v1376q0 12 8.5 20.5t20.5 8.5h147q12 0 20.5 -8.5t8.5 -20.5v-1376q0 -12 -8.5 -20.5t-20.5 -8.5h-147q-12 0 -20.5 8.5t-8.5 20.5zM163 1525q-8 14 1 29l131 234q9 14 24 14h134q19 0 27 -15t-3 -30l-160 -233q-9 -13 -24 -13h-105q-17 0 -25 14z" />
<glyph unicode="&#xce;" horiz-adv-x="483" d="M-17 1526q-8 15 3 30l172 234q8 12 22 12h123q15 0 23 -12l170 -234q11 -15 3.5 -30t-26.5 -15h-113q-14 0 -24 15l-94 151l-95 -151q-10 -15 -24 -15h-113q-19 0 -27 15zM139 29v1376q0 12 8.5 20.5t20.5 8.5h147q12 0 20.5 -8.5t8.5 -20.5v-1376q0 -12 -8.5 -20.5 t-20.5 -8.5h-147q-12 0 -20.5 8.5t-8.5 20.5z" />
<glyph unicode="&#xcf;" horiz-adv-x="483" d="M-14 1540v148q0 12 8 20t20 8h148q12 0 20 -8t8 -20v-148q0 -12 -8 -20.5t-20 -8.5h-148q-12 0 -20 8.5t-8 20.5zM139 29v1376q0 12 8.5 20.5t20.5 8.5h147q12 0 20.5 -8.5t8.5 -20.5v-1376q0 -12 -8.5 -20.5t-20.5 -8.5h-147q-12 0 -20.5 8.5t-8.5 20.5zM293 1540v148 q0 12 8.5 20t20.5 8h147q12 0 20.5 -8t8.5 -20v-148q0 -12 -8.5 -20.5t-20.5 -8.5h-147q-12 0 -20.5 8.5t-8.5 20.5z" />
<glyph unicode="&#xd0;" horiz-adv-x="905" d="M47 664v112q0 12 8.5 20.5t20.5 8.5h78v600q0 12 8 20.5t20 8.5h148q12 0 20 -8.5t8 -20.5v-600h86q12 0 20.5 -8.5t8.5 -20.5v-112q0 -12 -8.5 -20.5t-20.5 -8.5h-86v-606q0 -12 -8 -20.5t-20 -8.5h-148q-12 0 -20 8.5t-8 20.5v606h-78q-12 0 -20.5 8.5t-8.5 20.5z M444 29v127q0 12 8.5 20t20.5 8h59q20 0 36 16t16 36v962q0 20 -16 35.5t-36 15.5h-59q-12 0 -20.5 8.5t-8.5 20.5v127q0 12 8.5 20.5t20.5 8.5h111q89 0 149 -66q55 -62 55 -139v-1024q0 -93 -65 -152q-63 -53 -139 -53h-111q-12 0 -20.5 8.5t-8.5 20.5z" />
<glyph unicode="&#xd1;" horiz-adv-x="976" d="M139 29v979q0 23 24.5 27.5t31.5 -17.5l135 -420l14 -227v-342q0 -12 -8.5 -20.5t-20.5 -8.5h-147q-12 0 -20.5 8.5t-8.5 20.5zM154 1395q-5 15 3 27t23 12h144q18 0 26 -19l473 -1376q5 -15 -3 -27t-23 -12h-144q-19 0 -26 18zM187 1592q-3 11 3 22q55 88 100.5 120.5 t104.5 32.5q42 0 92 -24l41 -23q35 -18 54 -18q23 0 75 65q6 8 17 10.5t20 -3.5l84 -52q24 -14 10 -39q-55 -88 -100 -120.5t-104 -32.5q-42 0 -92 24l-43 21q-42 20 -52 20q-23 0 -75 -65q-6 -8 -17 -10t-20 4l-84 51q-11 6 -14 17zM633 995v410q0 12 8.5 20.5t20.5 8.5 h147q12 0 20.5 -8.5t8.5 -20.5v-985q0 -23 -24 -27.5t-32 17.5l-135 417z" />
<glyph unicode="&#xd2;" horiz-adv-x="868" d="M117 205v1024q0 84 59 143q62 62 146 62h40q12 0 20.5 -8.5t8.5 -20.5v-129q0 -9 -7.5 -18.5t-16.5 -10.5q-19 -3 -32 -17.5t-13 -31.5v-962q0 -19 13 -34t32 -18q9 -2 16.5 -10.5t7.5 -17.5v-127q0 -12 -8.5 -20.5t-20.5 -8.5h-40q-85 0 -146 61q-59 59 -59 144z M205 1787q7 15 26 15h134q17 0 24 -14l133 -234q9 -15 1.5 -29t-25.5 -14h-105q-15 0 -24 13l-160 233q-11 15 -4 30zM475 29v127q0 10 8 18t19 10q20 1 32.5 16.5t12.5 35.5v962q0 17 -14 32.5t-33 18.5q-9 2 -17 11t-8 18v127q0 12 8.5 20.5t20.5 8.5h43q83 0 143 -60 q62 -56 62 -145v-1024q0 -84 -60 -144q-55 -61 -145 -61h-43q-12 0 -20.5 8.5t-8.5 20.5z" />
<glyph unicode="&#xd3;" horiz-adv-x="868" d="M117 205v1024q0 84 59 143q62 62 146 62h40q12 0 20.5 -8.5t8.5 -20.5v-129q0 -9 -7.5 -18.5t-16.5 -10.5q-19 -3 -32 -17.5t-13 -31.5v-962q0 -19 13 -34t32 -18q9 -2 16.5 -10.5t7.5 -17.5v-127q0 -12 -8.5 -20.5t-20.5 -8.5h-40q-85 0 -146 61q-59 59 -59 144z M366 1525q-8 14 1 29l131 234q9 14 24 14h133q19 0 27 -15t-2 -30l-160 -233q-9 -13 -24 -13h-105q-17 0 -25 14zM475 29v127q0 10 8 18t19 10q20 1 32.5 16.5t12.5 35.5v962q0 17 -14 32.5t-33 18.5q-9 2 -17 11t-8 18v127q0 12 8.5 20.5t20.5 8.5h43q83 0 143 -60 q62 -56 62 -145v-1024q0 -84 -60 -144q-55 -61 -145 -61h-43q-12 0 -20.5 8.5t-8.5 20.5z" />
<glyph unicode="&#xd4;" horiz-adv-x="868" d="M117 205v1024q0 84 59 143q62 62 146 62h40q12 0 20.5 -8.5t8.5 -20.5v-129q0 -9 -7.5 -18.5t-16.5 -10.5q-19 -3 -32 -17.5t-13 -31.5v-962q0 -19 13 -34t32 -18q9 -2 16.5 -10.5t7.5 -17.5v-127q0 -12 -8.5 -20.5t-20.5 -8.5h-40q-85 0 -146 61q-59 59 -59 144z M176 1526q-8 15 2 30l172 234q8 12 23 12h123q14 0 22 -12l170 -234q11 -15 4 -30t-26 -15h-113q-15 0 -25 15l-94 151l-94 -151q-10 -15 -25 -15h-112q-19 0 -27 15zM475 29v127q0 10 8 18t19 10q20 1 32.5 16.5t12.5 35.5v962q0 17 -14 32.5t-33 18.5q-9 2 -17 11t-8 18 v127q0 12 8.5 20.5t20.5 8.5h43q83 0 143 -60q62 -56 62 -145v-1024q0 -84 -60 -144q-55 -61 -145 -61h-43q-12 0 -20.5 8.5t-8.5 20.5z" />
<glyph unicode="&#xd5;" horiz-adv-x="868" d="M117 205v1024q0 84 59 143q62 62 146 62h40q12 0 20.5 -8.5t8.5 -20.5v-129q0 -9 -7.5 -18.5t-16.5 -10.5q-19 -3 -32 -17.5t-13 -31.5v-962q0 -19 13 -34t32 -18q9 -2 16.5 -10.5t7.5 -17.5v-127q0 -12 -8.5 -20.5t-20.5 -8.5h-40q-85 0 -146 61q-59 59 -59 144z M135 1614q55 88 100.5 120.5t104.5 32.5q42 0 92 -24l41 -23q35 -18 53 -18q24 0 76 65q6 8 17 10.5t20 -3.5l84 -52q24 -14 10 -39q-55 -88 -100.5 -120.5t-104.5 -32.5q-42 0 -92 24l-43 21q-42 20 -51 20q-24 0 -76 -65q-6 -8 -17 -10t-20 4l-84 51q-24 14 -10 39z M475 29v127q0 10 8 18t19 10q20 1 32.5 16.5t12.5 35.5v962q0 17 -14 32.5t-33 18.5q-9 2 -17 11t-8 18v127q0 12 8.5 20.5t20.5 8.5h43q83 0 143 -60q62 -56 62 -145v-1024q0 -84 -60 -144q-55 -61 -145 -61h-43q-12 0 -20.5 8.5t-8.5 20.5z" />
<glyph unicode="&#xd6;" horiz-adv-x="868" d="M117 205v1024q0 84 59 143q62 62 146 62h40q12 0 20.5 -8.5t8.5 -20.5v-129q0 -9 -7.5 -18.5t-16.5 -10.5q-19 -3 -32 -17.5t-13 -31.5v-962q0 -19 13 -34t32 -18q9 -2 16.5 -10.5t7.5 -17.5v-127q0 -12 -8.5 -20.5t-20.5 -8.5h-40q-85 0 -146 61q-59 59 -59 144z M178 1540v148q0 12 8.5 20t20.5 8h147q12 0 20.5 -8t8.5 -20v-148q0 -12 -8.5 -20.5t-20.5 -8.5h-147q-12 0 -20.5 8.5t-8.5 20.5zM475 29v127q0 10 8 18t19 10q20 1 32.5 16.5t12.5 35.5v962q0 17 -14 32.5t-33 18.5q-9 2 -17 11t-8 18v127q0 12 8.5 20.5t20.5 8.5h43 q83 0 143 -60q62 -56 62 -145v-1024q0 -84 -60 -144q-55 -61 -145 -61h-43q-12 0 -20.5 8.5t-8.5 20.5zM485 1540v148q0 12 8.5 20t20.5 8h148q12 0 20 -8t8 -20v-148q0 -12 -8 -20.5t-20 -8.5h-148q-12 0 -20.5 8.5t-8.5 20.5z" />
<glyph unicode="&#xd7;" d="M41 904q1 12 10 20l80 77q7 7 19 7t20 -7l240 -239l239 239q7 7 20 7t21 -7l80 -79q8 -8 8 -21t-8 -20l-240 -240l240 -240q8 -7 8 -19t-8 -20l-49 -49l-33 -32q-8 -8 -20.5 -8.5t-20.5 8.5l-237 239l-240 -239q-8 -7 -21 -7t-20 7l-80 79q-7 8 -7 21t7 20l242 240 l-242 242q-9 9 -8 21z" />
<glyph unicode="&#xd8;" horiz-adv-x="868" d="M115 -66l442 1256v8q0 20 -15.5 35.5t-37.5 15.5q-12 0 -20.5 8.5t-8.5 20.5v127q0 12 8.5 20.5t20.5 8.5h43q39 0 86 -19q2 7 15.5 44.5t19.5 56.5q8 20 26 20h29q15 0 23 -11t4 -26l-439 -1249v-14q0 -21 15 -36.5t36 -15.5q12 0 20.5 -8t8.5 -20v-127 q0 -12 -8.5 -20.5t-20.5 -8.5h-40q-41 0 -86 18q-3 -10 -16 -45.5t-19 -54.5q-3 -8 -11.5 -14t-15.5 -6h-29q-15 0 -23.5 10.5t-6.5 25.5zM117 350v879q0 84 61 145q60 60 144 60h40q12 0 20.5 -8.5t8.5 -20.5v-127q0 -12 -8.5 -20.5t-20.5 -8.5q-20 0 -35.5 -15.5 t-15.5 -35.5v-469l-139 -389q-8 -22 -31.5 -17.5t-23.5 27.5zM475 29v127q0 12 8.5 20t20.5 8h2q20 0 35.5 16t15.5 36v469l139 393q8 22 32 17t24 -28v-882q0 -90 -64 -148q-60 -57 -141 -57h-43q-12 0 -20.5 8.5t-8.5 20.5z" />
<glyph unicode="&#xd9;" horiz-adv-x="897" d="M131 205v1200q0 12 8.5 20.5t20.5 8.5h147q12 0 20.5 -8.5t8.5 -20.5v-1169q0 -19 13.5 -35t31.5 -17q11 -2 19 -10t8 -18v-127q0 -12 -8.5 -20.5t-20.5 -8.5h-43q-85 0 -146 61q-59 59 -59 144zM219.5 1787q7.5 15 26.5 15h133q17 0 24 -14l134 -234q9 -15 1.5 -29 t-26.5 -14h-104q-5 0 -13.5 4.5t-11.5 8.5l-160 233q-11 15 -3.5 30zM492 29v127q0 9 7.5 17.5t16.5 10.5q18 3 31.5 17t13.5 32v1172q0 12 8.5 20.5t20.5 8.5h147q12 0 20.5 -8.5t8.5 -20.5v-1200q0 -85 -59 -144q-55 -61 -146 -61h-41q-12 0 -20 8.5t-8 20.5z" />
<glyph unicode="&#xda;" horiz-adv-x="897" d="M131 205v1200q0 12 8.5 20.5t20.5 8.5h147q12 0 20.5 -8.5t8.5 -20.5v-1169q0 -19 13.5 -35t31.5 -17q11 -2 19 -10t8 -18v-127q0 -12 -8.5 -20.5t-20.5 -8.5h-43q-85 0 -146 61q-59 59 -59 144zM370 1525q-8 14 1 29l131 234q9 14 24 14h133q19 0 27 -15t-2 -30 l-160 -233q-9 -13 -24 -13h-105q-17 0 -25 14zM492 29v127q0 9 7.5 17.5t16.5 10.5q18 3 31.5 17t13.5 32v1172q0 12 8.5 20.5t20.5 8.5h147q12 0 20.5 -8.5t8.5 -20.5v-1200q0 -85 -59 -144q-55 -61 -146 -61h-41q-12 0 -20 8.5t-8 20.5z" />
<glyph unicode="&#xdb;" horiz-adv-x="897" d="M131 205v1200q0 12 8.5 20.5t20.5 8.5h147q12 0 20.5 -8.5t8.5 -20.5v-1169q0 -19 13.5 -35t31.5 -17q11 -2 19 -10t8 -18v-127q0 -12 -8.5 -20.5t-20.5 -8.5h-43q-85 0 -146 61q-59 59 -59 144zM190 1526q-8 15 3 30l172 234q8 12 22 12h123q14 0 22 -12l170 -234 q11 -15 4 -30t-26 -15h-113q-14 0 -24 15l-94 151l-95 -151q-10 -15 -24 -15h-113q-19 0 -27 15zM492 29v127q0 9 7.5 17.5t16.5 10.5q18 3 31.5 17t13.5 32v1172q0 12 8.5 20.5t20.5 8.5h147q12 0 20.5 -8.5t8.5 -20.5v-1200q0 -85 -59 -144q-55 -61 -146 -61h-41 q-12 0 -20 8.5t-8 20.5z" />
<glyph unicode="&#xdc;" horiz-adv-x="897" d="M131 205v1200q0 12 8.5 20.5t20.5 8.5h147q12 0 20.5 -8.5t8.5 -20.5v-1169q0 -19 13.5 -35t31.5 -17q11 -2 19 -10t8 -18v-127q0 -12 -8.5 -20.5t-20.5 -8.5h-43q-85 0 -146 61q-59 59 -59 144zM193 1540v148q0 12 8 20t20 8h148q12 0 20 -8t8 -20v-148q0 -12 -8 -20.5 t-20 -8.5h-148q-12 0 -20 8.5t-8 20.5zM492 29v127q0 9 7.5 17.5t16.5 10.5q18 3 31.5 17t13.5 32v1172q0 12 8.5 20.5t20.5 8.5h147q12 0 20.5 -8.5t8.5 -20.5v-1200q0 -85 -59 -144q-55 -61 -146 -61h-41q-12 0 -20 8.5t-8 20.5zM500 1540v148q0 12 8 20t20 8h148 q12 0 20.5 -8t8.5 -20v-148q0 -12 -8.5 -20.5t-20.5 -8.5h-148q-12 0 -20 8.5t-8 20.5z" />
<glyph unicode="&#xdd;" horiz-adv-x="700" d="M6 1397q-4 15 4 26t23 11h143q7 0 15.5 -6.5t11.5 -14.5l250 -776v-608q0 -12 -8.5 -20.5t-20.5 -8.5h-148q-12 0 -20 8.5t-8 20.5v618q-160 500 -242 750zM282 1525q-8 14 1 29l131 234q9 14 24 14h133q19 0 27 -15t-2 -30l-160 -233q-9 -13 -24 -13h-105q-17 0 -25 14z M408 1053l98 360q1 9 10.5 15t18.5 6h133q15 0 22.5 -11t3.5 -26l-172 -533q-6 -20 -26.5 -20t-26.5 20z" />
<glyph unicode="&#xde;" horiz-adv-x="856" d="M139 29v1376q0 12 8.5 20.5t20.5 8.5h147q12 0 20.5 -8.5t8.5 -20.5v-1376q0 -12 -8.5 -20.5t-20.5 -8.5h-147q-12 0 -20.5 8.5t-8.5 20.5zM428 358v127q0 12 8.5 20.5t20.5 8.5h61q20 0 35.5 15.5t15.5 35.5v318q0 20 -15.5 35.5t-35.5 15.5h-61q-12 0 -20.5 8.5 t-8.5 20.5v127q0 12 8.5 20t20.5 8h112q45 0 86.5 -18.5t67.5 -50.5q51 -65 51 -136v-378q0 -91 -63 -148q-60 -57 -142 -57h-112q-12 0 -20.5 8t-8.5 20z" />
<glyph unicode="&#xdf;" horiz-adv-x="1646" d="M94 205v125q0 12 8.5 20t20.5 8h147q12 0 20.5 -8t8.5 -20v-94q0 -20 12.5 -35.5t32.5 -16.5q11 -2 19 -10t8 -18v-127q0 -12 -8.5 -20.5t-20.5 -8.5h-43q-84 0 -143 59q-62 56 -62 146zM94 868v156q0 89 62 145q60 60 143 60h43q12 0 20.5 -8.5t8.5 -20.5v-127 q0 -10 -8 -18.5t-17 -10.5q-19 -3 -33 -18.5t-14 -32.5v-92q0 -35 14.5 -61.5t34.5 -38.5l172 -111q48 -31 80.5 -57t64.5 -61.5t48 -78.5t16 -94v-194q0 -85 -59 -144q-61 -61 -146 -61h-41q-12 0 -20 8.5t-8 20.5v127q0 9 7.5 17.5t16.5 10.5q19 3 32 18t13 34v135 q0 33 -16 60.5t-35 39.5l-176 117q-37 25 -61 42.5t-53.5 45.5t-47 54t-29.5 62t-12 76zM455 1071v129q0 12 8 20.5t20 8.5h41q84 0 146 -62q59 -59 59 -143v-125q0 -12 -8.5 -20.5t-20.5 -8.5h-147q-12 0 -20.5 8.5t-8.5 20.5v94q0 17 -13 31.5t-32 17.5q-9 1 -16.5 10.5 t-7.5 18.5zM918 205v125q0 12 8 20t20 8h148q12 0 20 -8t8 -20v-94q0 -20 12.5 -35.5t32.5 -16.5q11 -2 19 -10t8 -18v-127q0 -12 -8.5 -20.5t-20.5 -8.5h-43q-84 0 -143 59q-61 55 -61 146zM918 868v156q0 90 61 145q60 60 143 60h43q12 0 20.5 -8.5t8.5 -20.5v-127 q0 -10 -8 -18.5t-17 -10.5q-19 -3 -33 -18.5t-14 -32.5v-92q0 -35 14.5 -61.5t34.5 -38.5l172 -111q48 -31 80.5 -57t64.5 -61.5t48 -78.5t16 -94v-194q0 -85 -59 -144q-61 -61 -145 -61h-41q-12 0 -20.5 8.5t-8.5 20.5v127q0 9 8 17.5t17 10.5q19 3 32 18t13 34v135 q0 33 -16 60.5t-36 39.5l-176 117q-47 31 -76 54.5t-61.5 58.5t-48.5 76.5t-16 90.5zM1278 1071v129q0 12 8.5 20.5t20.5 8.5h41q83 0 145 -62q59 -59 59 -143v-125q0 -12 -8 -20.5t-20 -8.5h-148q-12 0 -20 8.5t-8 20.5v94q0 17 -13 31.5t-32 17.5q-9 2 -17 11t-8 18z" />
<glyph unicode="&#xe0;" horiz-adv-x="782" d="M31 33l209 999q4 23 29 23t28 -23l49 -338l-51 -284h80q10 0 18 -8t10 -19l17 -125q2 -14 -7 -23.5t-22 -9.5h-123l-28 -200q-1 -10 -9.5 -17.5t-19.5 -7.5h-152q-14 0 -22.5 10t-5.5 23zM162 1582q7 15 26 15h134q17 0 24 -14l133 -233q9 -15 1.5 -29t-25.5 -14h-105 q-16 0 -24 12l-160 233q-11 15 -4 30zM356 1196q-2 14 7 23.5t22 9.5h94q9 0 19 -8t10 -17l244 -1171q3 -13 -6 -23t-23 -10h-152q-10 0 -18 8t-10 17z" />
<glyph unicode="&#xe1;" horiz-adv-x="782" d="M31 33l209 999q4 23 29 23t28 -23l49 -338l-51 -284h80q10 0 18 -8t10 -19l17 -125q2 -14 -7 -23.5t-22 -9.5h-123l-28 -200q-1 -10 -9.5 -17.5t-19.5 -7.5h-152q-14 0 -22.5 10t-5.5 23zM302.5 1321q-8.5 14 0.5 29l131 233q9 14 25 14h133q19 0 27 -15t-3 -30 l-159 -233q-8 -12 -25 -12h-104q-17 0 -25.5 14zM356 1196q-2 14 7 23.5t22 9.5h94q9 0 19 -8t10 -17l244 -1171q3 -13 -6 -23t-23 -10h-152q-10 0 -18 8t-10 17z" />
<glyph unicode="&#xe2;" horiz-adv-x="782" d="M31 33l209 999q4 23 29 23t28 -23l49 -338l-51 -284h80q10 0 18 -8t10 -19l17 -125q2 -14 -7 -23.5t-22 -9.5h-123l-28 -200q-1 -10 -9.5 -17.5t-19.5 -7.5h-152q-14 0 -22.5 10t-5.5 23zM133 1322q-8 15 2 30l172 233q8 12 23 12h123q14 0 22 -12l170 -233q11 -15 4 -30 t-26 -15h-113q-16 0 -25 14l-94 152l-94 -152q-9 -14 -25 -14h-112q-19 0 -27 15zM356 1196q-2 14 7 23.5t22 9.5h94q9 0 19 -8t10 -17l244 -1171q3 -13 -6 -23t-23 -10h-152q-10 0 -18 8t-10 17z" />
<glyph unicode="&#xe3;" horiz-adv-x="782" d="M31 33l209 999q4 23 29 23t28 -23l49 -338l-51 -284h80q10 0 18 -8t10 -19l17 -125q2 -14 -7 -23.5t-22 -9.5h-123l-28 -200q-1 -10 -9.5 -17.5t-19.5 -7.5h-152q-14 0 -22.5 10t-5.5 23zM92 1409q55 88 100.5 121t104.5 33q40 0 92 -25l41 -22q36 -19 53 -19q24 0 76 66 q6 8 17 10t20 -4l84 -51q24 -14 10 -39q-55 -88 -100.5 -121t-104.5 -33q-40 0 -92 25l-43 20q-44 21 -51 21q-24 0 -76 -66q-6 -8 -17 -10t-20 4l-84 51q-24 14 -10 39zM356 1196q-2 14 7 23.5t22 9.5h94q9 0 19 -8t10 -17l244 -1171q3 -13 -6 -23t-23 -10h-152 q-10 0 -18 8t-10 17z" />
<glyph unicode="&#xe4;" horiz-adv-x="782" d="M31 33l209 999q4 23 29 23t28 -23l49 -338l-51 -284h80q10 0 18 -8t10 -19l17 -125q2 -14 -7 -23.5t-22 -9.5h-123l-28 -200q-1 -10 -9.5 -17.5t-19.5 -7.5h-152q-14 0 -22.5 10t-5.5 23zM135 1335v148q0 12 8.5 20t20.5 8h147q12 0 20.5 -8t8.5 -20v-148q0 -12 -8.5 -20 t-20.5 -8h-147q-12 0 -20.5 8t-8.5 20zM356 1196q-2 14 7 23.5t22 9.5h94q9 0 19 -8t10 -17l244 -1171q3 -13 -6 -23t-23 -10h-152q-10 0 -18 8t-10 17zM442 1335v148q0 12 8.5 20t20.5 8h147q12 0 20.5 -8t8.5 -20v-148q0 -12 -8.5 -20t-20.5 -8h-147q-12 0 -20.5 8 t-8.5 20z" />
<glyph unicode="&#xe5;" horiz-adv-x="782" d="M31 33l209 999q4 23 29 23t28 -23l49 -338l-51 -284h80q10 0 18 -8t10 -19l17 -125q2 -14 -7 -23.5t-22 -9.5h-123l-28 -200q-1 -10 -9.5 -17.5t-19.5 -7.5h-152q-14 0 -22.5 10t-5.5 23zM209 1452q0 57 31.5 103t81.5 67q15 6 26.5 -2t11.5 -25v-36q0 -16 -14 -25 q-47 -26 -47 -82q0 -58 47 -84q14 -9 14 -25v-34q0 -17 -11.5 -25t-26.5 -2q-50 21 -81.5 67t-31.5 103zM356 1196q-2 14 7 23.5t22 9.5h94q9 0 19 -8t10 -17l244 -1171q3 -13 -6 -23t-23 -10h-152q-10 0 -18 8t-10 17zM424 1313v33q0 6 5 14.5t11 11.5q43 21 43 80 q0 55 -45 80q-14 7 -14 24v37q0 17 12 25t27 2q50 -21 80 -65.5t30 -102.5q0 -59 -29 -102.5t-81 -63.5q-15 -6 -27 2t-12 25z" />
<glyph unicode="&#xe6;" horiz-adv-x="1054" d="M-27 39l365 977q8 22 31.5 17.5t23.5 -27.5v-318l-88 -278h60q12 0 20 -8.5t8 -20.5v-127q0 -12 -8 -20.5t-20 -8.5h-119q-13 -37 -37 -116l-29 -89q-8 -20 -26 -20h-154q-15 0 -24 12t-3 27zM477 29v1171q0 12 8.5 20.5t20.5 8.5h455q12 0 20 -8.5t8 -20.5v-127 q0 -12 -8 -20.5t-20 -8.5h-279v-317h221q12 0 20.5 -8.5t8.5 -20.5v-127q0 -12 -8.5 -20t-20.5 -8h-221v-359h279q12 0 20 -8t8 -20v-127q0 -12 -8 -20.5t-20 -8.5h-455q-12 0 -20.5 8.5t-8.5 20.5z" />
<glyph unicode="&#xe7;" d="M117 205v819q0 81 57 141q58 64 148 64h40q12 0 20.5 -8.5t8.5 -20.5v-129q0 -9 -7.5 -18.5t-16.5 -10.5q-19 -3 -32 -17.5t-13 -31.5v-757q0 -19 13 -34t32 -18q9 -2 16.5 -10.5t7.5 -17.5v-127q0 -12 -8.5 -20.5t-20.5 -8.5h-40q-78 0 -140 55q-65 59 -65 150z M258 -150q0 12 8.5 20.5t20.5 8.5h47q30 0 51 43q3 6 11 10.5t14 4.5h90q12 0 20.5 -9.5t7.5 -21.5q-6 -79 -65.5 -135t-138.5 -56h-37q-12 0 -20.5 8.5t-8.5 20.5v106zM475 29v127q0 10 7 18t18 10q19 3 33 18t14 34v94q0 12 8 20t20 8h148q12 0 20.5 -8t8.5 -20v-125 q0 -90 -64 -148q-60 -57 -141 -57h-43q-12 0 -20.5 8.5t-8.5 20.5zM475 1073v127q0 12 8.5 20.5t20.5 8.5h43q89 0 147 -64q58 -62 58 -141v-125q0 -12 -8.5 -20.5t-20.5 -8.5h-148q-12 0 -20 8.5t-8 20.5v94q0 17 -14 32.5t-33 18.5q-9 2 -17 11t-8 18z" />
<glyph unicode="&#xe8;" horiz-adv-x="716" d="M139 29v1171q0 12 8.5 20.5t20.5 8.5h455q12 0 20 -8.5t8 -20.5v-127q0 -12 -8 -20.5t-20 -8.5h-279v-317h221q12 0 20.5 -8.5t8.5 -20.5v-127q0 -12 -8.5 -20t-20.5 -8h-221v-359h279q12 0 20 -8t8 -20v-127q0 -12 -8 -20.5t-20 -8.5h-455q-12 0 -20.5 8.5t-8.5 20.5z M164 1582q7 15 26 15h134q17 0 24 -14l133 -233q9 -15 1.5 -29t-25.5 -14h-105q-16 0 -24 12l-160 233q-11 15 -4 30z" />
<glyph unicode="&#xe9;" horiz-adv-x="716" d="M139 29v1171q0 12 8.5 20.5t20.5 8.5h455q12 0 20 -8.5t8 -20.5v-127q0 -12 -8 -20.5t-20 -8.5h-279v-317h221q12 0 20.5 -8.5t8.5 -20.5v-127q0 -12 -8.5 -20t-20.5 -8h-221v-359h279q12 0 20 -8t8 -20v-127q0 -12 -8 -20.5t-20 -8.5h-455q-12 0 -20.5 8.5t-8.5 20.5z M318.5 1321q-8.5 14 0.5 29l132 233q9 14 24 14h133q19 0 27 -15t-2 -30l-160 -233q-8 -12 -24 -12h-105q-17 0 -25.5 14z" />
<glyph unicode="&#xea;" horiz-adv-x="716" d="M139 29v1171q0 12 8.5 20.5t20.5 8.5h455q12 0 20 -8.5t8 -20.5v-127q0 -12 -8 -20.5t-20 -8.5h-279v-317h221q12 0 20.5 -8.5t8.5 -20.5v-127q0 -12 -8.5 -20t-20.5 -8h-221v-359h279q12 0 20 -8t8 -20v-127q0 -12 -8 -20.5t-20 -8.5h-455q-12 0 -20.5 8.5t-8.5 20.5z M151 1322q-8 15 3 30l172 233q8 12 22 12h123q15 0 23 -12l170 -233q11 -15 3.5 -30t-26.5 -15h-113q-15 0 -24 14l-94 152l-95 -152q-9 -14 -24 -14h-113q-19 0 -27 15z" />
<glyph unicode="&#xeb;" horiz-adv-x="716" d="M139 29v1171q0 12 8.5 20.5t20.5 8.5h455q12 0 20 -8.5t8 -20.5v-127q0 -12 -8 -20.5t-20 -8.5h-279v-317h221q12 0 20.5 -8.5t8.5 -20.5v-127q0 -12 -8.5 -20t-20.5 -8h-221v-359h279q12 0 20 -8t8 -20v-127q0 -12 -8 -20.5t-20 -8.5h-455q-12 0 -20.5 8.5t-8.5 20.5z M139 1335v148q0 12 8.5 20t20.5 8h147q12 0 20.5 -8t8.5 -20v-148q0 -12 -8.5 -20t-20.5 -8h-147q-12 0 -20.5 8t-8.5 20zM446 1335v148q0 12 8.5 20t20.5 8h148q12 0 20 -8t8 -20v-148q0 -12 -8 -20t-20 -8h-148q-12 0 -20.5 8t-8.5 20z" />
<glyph unicode="&#xec;" horiz-adv-x="483" d="M2.5 1582q7.5 15 26.5 15h133q17 0 24 -14l133 -233q9 -15 1.5 -29t-25.5 -14h-105q-16 0 -24 12l-160 233q-11 15 -3.5 30zM139 29v1171q0 12 8.5 20.5t20.5 8.5h147q12 0 20.5 -8.5t8.5 -20.5v-1171q0 -12 -8.5 -20.5t-20.5 -8.5h-147q-12 0 -20.5 8.5t-8.5 20.5z" />
<glyph unicode="&#xed;" horiz-adv-x="483" d="M139 29v1171q0 12 8.5 20.5t20.5 8.5h147q12 0 20.5 -8.5t8.5 -20.5v-1171q0 -12 -8.5 -20.5t-20.5 -8.5h-147q-12 0 -20.5 8.5t-8.5 20.5zM163 1321q-8 14 1 29l131 233q9 14 24 14h134q19 0 27 -15t-3 -30l-160 -233q-8 -12 -24 -12h-105q-17 0 -25 14z" />
<glyph unicode="&#xee;" horiz-adv-x="483" d="M-17 1322q-8 15 3 30l172 233q8 12 22 12h123q15 0 23 -12l170 -233q11 -15 3.5 -30t-26.5 -15h-113q-15 0 -24 14l-94 152l-95 -152q-9 -14 -24 -14h-113q-19 0 -27 15zM139 29v1171q0 12 8.5 20.5t20.5 8.5h147q12 0 20.5 -8.5t8.5 -20.5v-1171q0 -12 -8.5 -20.5 t-20.5 -8.5h-147q-12 0 -20.5 8.5t-8.5 20.5z" />
<glyph unicode="&#xef;" horiz-adv-x="483" d="M-14 1335v148q0 12 8 20t20 8h148q12 0 20 -8t8 -20v-148q0 -12 -8 -20t-20 -8h-148q-12 0 -20 8t-8 20zM139 29v1171q0 12 8.5 20.5t20.5 8.5h147q12 0 20.5 -8.5t8.5 -20.5v-1171q0 -12 -8.5 -20.5t-20.5 -8.5h-147q-12 0 -20.5 8.5t-8.5 20.5zM293 1335v148 q0 12 8.5 20t20.5 8h147q12 0 20.5 -8t8.5 -20v-148q0 -12 -8.5 -20t-20.5 -8h-147q-12 0 -20.5 8t-8.5 20z" />
<glyph unicode="&#xf0;" horiz-adv-x="905" d="M47 561v113q0 12 8.5 20t20.5 8h78v498q0 12 8 20.5t20 8.5h148q12 0 20 -8.5t8 -20.5v-498h86q12 0 20.5 -8t8.5 -20v-113q0 -12 -8.5 -20.5t-20.5 -8.5h-86v-503q0 -12 -8 -20.5t-20 -8.5h-148q-12 0 -20 8.5t-8 20.5v503h-78q-12 0 -20.5 8.5t-8.5 20.5zM444 29v127 q0 12 8.5 20t20.5 8h59q20 0 36 16t16 36v757q0 20 -16 35.5t-36 15.5h-59q-12 0 -20.5 8.5t-8.5 20.5v127q0 12 8.5 20.5t20.5 8.5h111q89 0 149 -66q55 -62 55 -139v-819q0 -93 -65 -152q-63 -53 -139 -53h-111q-12 0 -20.5 8.5t-8.5 20.5z" />
<glyph unicode="&#xf1;" horiz-adv-x="976" d="M139 29v823q0 23 24.5 27.5t31.5 -17.5l124 -321l15 -168v-344q0 -12 -8.5 -20.5t-20.5 -8.5h-137q-12 0 -20.5 8.5t-8.5 20.5zM154 1190q-5 15 3 27t23 12h144q18 0 26 -19l473 -1171q5 -15 -3 -27t-23 -12h-144q-19 0 -26 18zM185 1387q-3 11 3 22q55 88 100.5 121 t104.5 33q40 0 92 -25l41 -22q36 -19 54 -19q23 0 75 66q6 8 17 10t20 -4l84 -51q24 -14 10 -39q-56 -88 -100.5 -121t-103.5 -33q-41 0 -93 25l-43 20q-44 21 -51 21q-24 0 -76 -66q-6 -8 -16.5 -10t-19.5 4l-84 51q-11 6 -14 17zM643 856v344q0 12 8.5 20.5t20.5 8.5h137 q12 0 20.5 -8.5t8.5 -20.5v-823q0 -23 -24 -27.5t-32 17.5l-125 321z" />
<glyph unicode="&#xf2;" horiz-adv-x="868" d="M117 205v819q0 84 59 143q62 62 146 62h40q12 0 20.5 -8.5t8.5 -20.5v-129q0 -9 -7.5 -18.5t-16.5 -10.5q-19 -3 -32 -17.5t-13 -31.5v-757q0 -19 13 -34t32 -18q9 -2 16.5 -10.5t7.5 -17.5v-127q0 -12 -8.5 -20.5t-20.5 -8.5h-40q-85 0 -146 61q-59 59 -59 144z M205 1582q7 15 26 15h134q17 0 24 -14l133 -233q9 -15 1.5 -29t-25.5 -14h-105q-16 0 -24 12l-160 233q-11 15 -4 30zM475 29v127q0 10 8 18t19 10q20 1 32.5 16.5t12.5 35.5v757q0 17 -14 32.5t-33 18.5q-9 2 -17 11t-8 18v127q0 12 8.5 20.5t20.5 8.5h43q83 0 143 -60 q62 -56 62 -145v-819q0 -84 -60 -144q-55 -61 -145 -61h-43q-12 0 -20.5 8.5t-8.5 20.5z" />
<glyph unicode="&#xf3;" horiz-adv-x="868" d="M117 205v819q0 84 59 143q62 62 146 62h40q12 0 20.5 -8.5t8.5 -20.5v-129q0 -9 -7.5 -18.5t-16.5 -10.5q-19 -3 -32 -17.5t-13 -31.5v-757q0 -19 13 -34t32 -18q9 -2 16.5 -10.5t7.5 -17.5v-127q0 -12 -8.5 -20.5t-20.5 -8.5h-40q-85 0 -146 61q-59 59 -59 144z M366 1321q-8 14 1 29l131 233q9 14 24 14h133q19 0 27 -15t-2 -30l-160 -233q-8 -12 -24 -12h-105q-17 0 -25 14zM475 29v127q0 10 8 18t19 10q20 1 32.5 16.5t12.5 35.5v757q0 17 -14 32.5t-33 18.5q-9 2 -17 11t-8 18v127q0 12 8.5 20.5t20.5 8.5h43q83 0 143 -60 q62 -56 62 -145v-819q0 -84 -60 -144q-55 -61 -145 -61h-43q-12 0 -20.5 8.5t-8.5 20.5z" />
<glyph unicode="&#xf4;" horiz-adv-x="868" d="M117 205v819q0 84 59 143q62 62 146 62h40q12 0 20.5 -8.5t8.5 -20.5v-129q0 -9 -7.5 -18.5t-16.5 -10.5q-19 -3 -32 -17.5t-13 -31.5v-757q0 -19 13 -34t32 -18q9 -2 16.5 -10.5t7.5 -17.5v-127q0 -12 -8.5 -20.5t-20.5 -8.5h-40q-85 0 -146 61q-59 59 -59 144z M176 1322q-8 15 2 30l172 233q8 12 23 12h123q14 0 22 -12l170 -233q11 -15 4 -30t-26 -15h-113q-16 0 -25 14l-94 152l-94 -152q-9 -14 -25 -14h-112q-19 0 -27 15zM475 29v127q0 10 8 18t19 10q20 1 32.5 16.5t12.5 35.5v757q0 17 -14 32.5t-33 18.5q-9 2 -17 11t-8 18 v127q0 12 8.5 20.5t20.5 8.5h43q83 0 143 -60q62 -56 62 -145v-819q0 -84 -60 -144q-55 -61 -145 -61h-43q-12 0 -20.5 8.5t-8.5 20.5z" />
<glyph unicode="&#xf5;" horiz-adv-x="868" d="M117 205v819q0 84 59 143q62 62 146 62h40q12 0 20.5 -8.5t8.5 -20.5v-129q0 -9 -7.5 -18.5t-16.5 -10.5q-19 -3 -32 -17.5t-13 -31.5v-757q0 -19 13 -34t32 -18q9 -2 16.5 -10.5t7.5 -17.5v-127q0 -12 -8.5 -20.5t-20.5 -8.5h-40q-85 0 -146 61q-59 59 -59 144z M135 1409q55 88 100.5 121t104.5 33q40 0 92 -25l41 -22q36 -19 53 -19q24 0 76 66q6 8 17 10t20 -4l84 -51q24 -14 10 -39q-55 -88 -100.5 -121t-104.5 -33q-40 0 -92 25l-43 20q-44 21 -51 21q-24 0 -76 -66q-6 -8 -17 -10t-20 4l-84 51q-24 14 -10 39zM475 29v127 q0 10 8 18t19 10q20 1 32.5 16.5t12.5 35.5v757q0 17 -14 32.5t-33 18.5q-9 2 -17 11t-8 18v127q0 12 8.5 20.5t20.5 8.5h43q83 0 143 -60q62 -56 62 -145v-819q0 -84 -60 -144q-55 -61 -145 -61h-43q-12 0 -20.5 8.5t-8.5 20.5z" />
<glyph unicode="&#xf6;" horiz-adv-x="868" d="M117 205v819q0 84 59 143q62 62 146 62h40q12 0 20.5 -8.5t8.5 -20.5v-129q0 -9 -7.5 -18.5t-16.5 -10.5q-19 -3 -32 -17.5t-13 -31.5v-757q0 -19 13 -34t32 -18q9 -2 16.5 -10.5t7.5 -17.5v-127q0 -12 -8.5 -20.5t-20.5 -8.5h-40q-85 0 -146 61q-59 59 -59 144z M178 1335v148q0 12 8.5 20t20.5 8h147q12 0 20.5 -8t8.5 -20v-148q0 -12 -8.5 -20t-20.5 -8h-147q-12 0 -20.5 8t-8.5 20zM475 29v127q0 10 8 18t19 10q20 1 32.5 16.5t12.5 35.5v757q0 17 -14 32.5t-33 18.5q-9 2 -17 11t-8 18v127q0 12 8.5 20.5t20.5 8.5h43q83 0 143 -60 q62 -56 62 -145v-819q0 -84 -60 -144q-55 -61 -145 -61h-43q-12 0 -20.5 8.5t-8.5 20.5zM485 1335v148q0 12 8.5 20t20.5 8h148q12 0 20 -8t8 -20v-148q0 -12 -8 -20t-20 -8h-148q-12 0 -20.5 8t-8.5 20z" />
<glyph unicode="&#xf7;" d="M82 586v110q0 12 8.5 20.5t20.5 8.5h598q12 0 20 -8.5t8 -20.5v-110q0 -12 -8 -20.5t-20 -8.5h-598q-12 0 -20.5 8.5t-8.5 20.5zM307 285v147q0 12 8.5 20.5t20.5 8.5h147q12 0 20.5 -8.5t8.5 -20.5v-147q0 -12 -8.5 -20.5t-20.5 -8.5h-147q-12 0 -20.5 8.5t-8.5 20.5z M307 848v147q0 12 8.5 20.5t20.5 8.5h147q12 0 20.5 -8.5t8.5 -20.5v-147q0 -12 -8.5 -20.5t-20.5 -8.5h-147q-12 0 -20.5 8.5t-8.5 20.5z" />
<glyph unicode="&#xf8;" horiz-adv-x="868" d="M115 -66l434 1086q-18 24 -45 24q-12 0 -20.5 8.5t-8.5 20.5v127q0 12 8.5 20.5t20.5 8.5h43q39 0 86 -19q2 7 15.5 44.5t19.5 56.5q8 20 26 20h29q15 0 23 -11t4 -26l-431 -1083q3 -10 17 -18.5t26 -8.5t20.5 -8t8.5 -20v-127q0 -12 -8.5 -20.5t-20.5 -8.5h-40 q-41 0 -86 18q-3 -10 -16 -45.5t-19 -54.5q-3 -8 -11.5 -14t-15.5 -6h-29q-15 0 -23.5 10.5t-6.5 25.5zM117 317v707q0 84 61 145q60 60 144 60h40q12 0 20.5 -8.5t8.5 -20.5v-127q0 -12 -8.5 -20.5t-20.5 -8.5q-20 0 -35.5 -15.5t-15.5 -35.5v-342l-139 -344 q-8 -22 -31.5 -17.5t-23.5 27.5zM475 29v127q0 12 8.5 20t20.5 8h2q20 0 35.5 16t15.5 36v348l139 350q8 22 32 17.5t24 -27.5v-719q0 -90 -64 -148q-60 -57 -141 -57h-43q-12 0 -20.5 8.5t-8.5 20.5z" />
<glyph unicode="&#xf9;" horiz-adv-x="897" d="M131 205v995q0 12 8.5 20.5t20.5 8.5h147q12 0 20.5 -8.5t8.5 -20.5v-964q0 -19 13.5 -35t31.5 -17q11 -2 19 -10t8 -18v-127q0 -12 -8.5 -20.5t-20.5 -8.5h-43q-85 0 -146 61q-59 59 -59 144zM219.5 1582q7.5 15 26.5 15h133q17 0 24 -14l134 -233q9 -15 1.5 -29 t-26.5 -14h-104q-17 0 -25 12l-160 233q-11 15 -3.5 30zM492 29v127q0 9 7.5 17.5t16.5 10.5q18 3 31.5 17t13.5 32v967q0 12 8.5 20.5t20.5 8.5h147q12 0 20.5 -8.5t8.5 -20.5v-995q0 -85 -59 -144q-55 -61 -146 -61h-41q-12 0 -20 8.5t-8 20.5z" />
<glyph unicode="&#xfa;" horiz-adv-x="897" d="M131 205v995q0 12 8.5 20.5t20.5 8.5h147q12 0 20.5 -8.5t8.5 -20.5v-964q0 -19 13.5 -35t31.5 -17q11 -2 19 -10t8 -18v-127q0 -12 -8.5 -20.5t-20.5 -8.5h-43q-85 0 -146 61q-59 59 -59 144zM370 1321q-8 14 1 29l131 233q9 14 24 14h133q19 0 27 -15t-2 -30l-160 -233 q-8 -12 -24 -12h-105q-17 0 -25 14zM492 29v127q0 9 7.5 17.5t16.5 10.5q18 3 31.5 17t13.5 32v967q0 12 8.5 20.5t20.5 8.5h147q12 0 20.5 -8.5t8.5 -20.5v-995q0 -85 -59 -144q-55 -61 -146 -61h-41q-12 0 -20 8.5t-8 20.5z" />
<glyph unicode="&#xfb;" horiz-adv-x="897" d="M131 205v995q0 12 8.5 20.5t20.5 8.5h147q12 0 20.5 -8.5t8.5 -20.5v-964q0 -19 13.5 -35t31.5 -17q11 -2 19 -10t8 -18v-127q0 -12 -8.5 -20.5t-20.5 -8.5h-43q-85 0 -146 61q-59 59 -59 144zM190 1322q-8 15 3 30l172 233q8 12 22 12h123q14 0 22 -12l170 -233 q11 -15 4 -30t-26 -15h-113q-15 0 -24 14l-94 152l-95 -152q-9 -14 -24 -14h-113q-19 0 -27 15zM492 29v127q0 9 7.5 17.5t16.5 10.5q18 3 31.5 17t13.5 32v967q0 12 8.5 20.5t20.5 8.5h147q12 0 20.5 -8.5t8.5 -20.5v-995q0 -85 -59 -144q-55 -61 -146 -61h-41 q-12 0 -20 8.5t-8 20.5z" />
<glyph unicode="&#xfc;" horiz-adv-x="897" d="M131 205v995q0 12 8.5 20.5t20.5 8.5h147q12 0 20.5 -8.5t8.5 -20.5v-964q0 -19 13.5 -35t31.5 -17q11 -2 19 -10t8 -18v-127q0 -12 -8.5 -20.5t-20.5 -8.5h-43q-85 0 -146 61q-59 59 -59 144zM193 1335v148q0 12 8 20t20 8h148q12 0 20 -8t8 -20v-148q0 -12 -8 -20 t-20 -8h-148q-12 0 -20 8t-8 20zM492 29v127q0 9 7.5 17.5t16.5 10.5q18 3 31.5 17t13.5 32v967q0 12 8.5 20.5t20.5 8.5h147q12 0 20.5 -8.5t8.5 -20.5v-995q0 -85 -59 -144q-55 -61 -146 -61h-41q-12 0 -20 8.5t-8 20.5zM500 1335v148q0 12 8 20t20 8h148q12 0 20.5 -8 t8.5 -20v-148q0 -12 -8.5 -20t-20.5 -8h-148q-12 0 -20 8t-8 20z" />
<glyph unicode="&#xfd;" horiz-adv-x="700" d="M6 1192q-4 15 4 26t23 11h143q7 0 15.5 -6.5t11.5 -14.5l250 -776v-403q0 -12 -8.5 -20.5t-20.5 -8.5h-148q-12 0 -20 8.5t-8 20.5v413q-160 500 -242 750zM282 1321q-8 14 1 29l131 233q9 14 24 14h133q19 0 27 -15t-2 -30l-160 -233q-8 -12 -24 -12h-105q-17 0 -25 14z M408 848l98 360q1 9 10.5 15t18.5 6h133q15 0 22.5 -11t3.5 -26l-172 -533q-6 -20 -26.5 -20t-26.5 20z" />
<glyph unicode="&#xfe;" horiz-adv-x="856" d="M139 29v1171q0 12 8.5 20.5t20.5 8.5h147q12 0 20.5 -8.5t8.5 -20.5v-1171q0 -12 -8.5 -20.5t-20.5 -8.5h-147q-12 0 -20.5 8.5t-8.5 20.5zM428 256v127q0 12 8.5 20.5t20.5 8.5h61q20 0 35.5 15.5t15.5 35.5v317q0 20 -15.5 35.5t-35.5 15.5h-61q-12 0 -20.5 8.5 t-8.5 20.5v127q0 12 8.5 20.5t20.5 8.5h112q44 0 86 -19t68 -51q51 -65 51 -135v-379q0 -90 -63 -147q-62 -58 -142 -58h-112q-12 0 -20.5 8.5t-8.5 20.5z" />
<glyph unicode="&#xff;" horiz-adv-x="700" d="M6 1192q-4 15 4 26t23 11h143q7 0 15.5 -6.5t11.5 -14.5l250 -776v-403q0 -12 -8.5 -20.5t-20.5 -8.5h-148q-12 0 -20 8.5t-8 20.5v413q-160 500 -242 750zM94 1335v148q0 12 8.5 20t20.5 8h147q12 0 20.5 -8t8.5 -20v-148q0 -12 -8.5 -20t-20.5 -8h-147q-12 0 -20.5 8 t-8.5 20zM401 1335v148q0 12 8.5 20t20.5 8h148q12 0 20 -8t8 -20v-148q0 -12 -8 -20t-20 -8h-148q-12 0 -20.5 8t-8.5 20zM408 848l98 360q1 9 10.5 15t18.5 6h133q15 0 22.5 -11t3.5 -26l-172 -533q-6 -20 -26.5 -20t-26.5 20z" />
<glyph unicode="&#x152;" horiz-adv-x="1122" d="M117 205v1024q0 81 57 141q58 64 148 64h112q12 0 20.5 -8.5t8.5 -20.5v-127q0 -12 -8.5 -20.5t-20.5 -8.5h-61q-20 0 -35.5 -15.5t-15.5 -35.5v-962q0 -20 15.5 -36t35.5 -16h61q12 0 20.5 -8t8.5 -20v-127q0 -12 -8.5 -20.5t-20.5 -8.5h-112q-87 0 -144 57 q-61 55 -61 148zM547 29v1376q0 12 8 20.5t20 8.5h453q12 0 20.5 -8.5t8.5 -20.5v-127q0 -12 -8.5 -20.5t-20.5 -8.5h-278v-420h221q12 0 20 -8t8 -20v-127q0 -12 -8 -20.5t-20 -8.5h-221v-461h278q12 0 20.5 -8t8.5 -20v-127q0 -12 -8.5 -20.5t-20.5 -8.5h-453 q-12 0 -20 8.5t-8 20.5z" />
<glyph unicode="&#x153;" horiz-adv-x="1122" d="M117 205v819q0 81 57 141q58 64 148 64h112q12 0 20.5 -8.5t8.5 -20.5v-127q0 -12 -8.5 -20.5t-20.5 -8.5h-61q-20 0 -35.5 -15.5t-15.5 -35.5v-757q0 -20 15.5 -36t35.5 -16h61q12 0 20.5 -8t8.5 -20v-127q0 -12 -8.5 -20.5t-20.5 -8.5h-112q-87 0 -144 57 q-61 55 -61 148zM547 29v1171q0 12 8 20.5t20 8.5h453q12 0 20.5 -8.5t8.5 -20.5v-127q0 -12 -8.5 -20.5t-20.5 -8.5h-278v-317h221q12 0 20 -8.5t8 -20.5v-127q0 -12 -8 -20t-20 -8h-221v-359h278q12 0 20.5 -8t8.5 -20v-127q0 -12 -8.5 -20.5t-20.5 -8.5h-453 q-12 0 -20 8.5t-8 20.5z" />
<glyph unicode="&#x178;" horiz-adv-x="700" d="M6 1397q-4 15 4 26t23 11h143q7 0 15.5 -6.5t11.5 -14.5l250 -776v-608q0 -12 -8.5 -20.5t-20.5 -8.5h-148q-12 0 -20 8.5t-8 20.5v618q-160 500 -242 750zM94 1540v148q0 12 8.5 20t20.5 8h147q12 0 20.5 -8t8.5 -20v-148q0 -12 -8.5 -20.5t-20.5 -8.5h-147 q-12 0 -20.5 8.5t-8.5 20.5zM401 1540v148q0 12 8.5 20t20.5 8h148q12 0 20 -8t8 -20v-148q0 -12 -8 -20.5t-20 -8.5h-148q-12 0 -20.5 8.5t-8.5 20.5zM408 1053l98 360q1 9 10.5 15t18.5 6h133q15 0 22.5 -11t3.5 -26l-172 -533q-6 -20 -26.5 -20t-26.5 20z" />
<glyph unicode="&#x2c6;" d="M151 1322q-8 15 3 30l172 233q8 12 22 12h123q15 0 23 -12l170 -233q11 -15 3.5 -30t-26.5 -15h-113q-15 0 -24 14l-94 152l-95 -152q-9 -14 -24 -14h-113q-19 0 -27 15z" />
<glyph unicode="&#x2dc;" d="M111 1409q56 88 100.5 121t103.5 33q41 0 93 -25l41 -22q36 -19 53 -19q24 0 76 66q6 8 16.5 10t19.5 -4l84 -51q11 -6 14 -17t-3 -22q-55 -88 -100.5 -121t-104.5 -33q-40 0 -92 25l-43 20q-44 21 -52 21q-23 0 -75 -66q-6 -8 -17 -10t-20 4l-84 51q-24 14 -10 39z" />
<glyph unicode="&#x2000;" horiz-adv-x="914" />
<glyph unicode="&#x2001;" horiz-adv-x="1829" />
<glyph unicode="&#x2002;" horiz-adv-x="914" />
<glyph unicode="&#x2003;" horiz-adv-x="1829" />
<glyph unicode="&#x2004;" horiz-adv-x="609" />
<glyph unicode="&#x2005;" horiz-adv-x="457" />
<glyph unicode="&#x2006;" horiz-adv-x="304" />
<glyph unicode="&#x2007;" horiz-adv-x="304" />
<glyph unicode="&#x2008;" horiz-adv-x="228" />
<glyph unicode="&#x2009;" horiz-adv-x="365" />
<glyph unicode="&#x200a;" horiz-adv-x="101" />
<glyph unicode="&#x2010;" horiz-adv-x="512" d="M82 477v152q0 12 8.5 20t20.5 8h290q12 0 20.5 -8t8.5 -20v-152q0 -12 -8.5 -20t-20.5 -8h-290q-12 0 -20.5 8t-8.5 20z" />
<glyph unicode="&#x2011;" horiz-adv-x="512" d="M82 477v152q0 12 8.5 20t20.5 8h290q12 0 20.5 -8t8.5 -20v-152q0 -12 -8.5 -20t-20.5 -8h-290q-12 0 -20.5 8t-8.5 20z" />
<glyph unicode="&#x2012;" horiz-adv-x="512" d="M82 477v152q0 12 8.5 20t20.5 8h290q12 0 20.5 -8t8.5 -20v-152q0 -12 -8.5 -20t-20.5 -8h-290q-12 0 -20.5 8t-8.5 20z" />
<glyph unicode="&#x2013;" horiz-adv-x="921" d="M82 477v109q0 12 8.5 20t20.5 8h700q12 0 20.5 -8t8.5 -20v-109q0 -12 -8.5 -20t-20.5 -8h-700q-12 0 -20.5 8t-8.5 20z" />
<glyph unicode="&#x2014;" horiz-adv-x="1638" d="M82 477v109q0 12 8.5 20t20.5 8h1417q12 0 20 -8t8 -20v-109q0 -12 -8 -20t-20 -8h-1417q-12 0 -20.5 8t-8.5 20z" />
<glyph unicode="&#x2018;" horiz-adv-x="286" d="M51 1053v243q0 62 39 98t115 40q12 1 21.5 -8t9.5 -21v-47q0 -9 -8 -18t-17 -11q-21 -3 -29 -16t-8 -39v-66h23q22 0 30.5 -10t8.5 -31v-114q0 -12 -8.5 -20.5t-20.5 -8.5h-127q-12 0 -20.5 8.5t-8.5 20.5z" />
<glyph unicode="&#x2019;" horiz-adv-x="286" d="M51 1053v45q0 10 7 18t18 10q23 3 30 16t7 42v65h-23q-22 0 -30.5 10t-8.5 31v115q0 12 8.5 20.5t20.5 8.5h127q12 0 20.5 -8.5t8.5 -20.5v-244q0 -62 -39 -97.5t-115 -39.5q-12 -1 -21.5 8t-9.5 21z" />
<glyph unicode="&#x201a;" horiz-adv-x="286" d="M51 74v114q0 12 8.5 20.5t20.5 8.5h127q12 0 20.5 -8.5t8.5 -20.5v-243q0 -62 -39 -98t-115 -40q-12 -1 -21.5 8t-9.5 21v45q0 11 7.5 19.5t17.5 9.5q23 3 30 15.5t7 41.5v66h-23q-22 0 -30.5 10t-8.5 31z" />
<glyph unicode="&#x201c;" horiz-adv-x="569" d="M51 1053v243q0 62 39 98t115 40q12 1 21.5 -8t9.5 -21v-47q0 -9 -8 -18t-17 -11q-21 -3 -29 -16t-8 -39v-66h23q22 0 30.5 -10t8.5 -31v-114q0 -12 -8.5 -20.5t-20.5 -8.5h-127q-12 0 -20.5 8.5t-8.5 20.5zM334 1053v243q0 62 38.5 98t114.5 40q12 1 21.5 -8t9.5 -21v-47 q0 -9 -7.5 -18.5t-16.5 -10.5q-21 -3 -29 -16t-8 -39v-66h22q22 0 30.5 -10t8.5 -31v-114q0 -12 -8.5 -20.5t-20.5 -8.5h-127q-12 0 -20 8.5t-8 20.5z" />
<glyph unicode="&#x201d;" horiz-adv-x="569" d="M51 1053v45q0 10 7 18t18 10q23 3 30 16t7 42v65h-23q-22 0 -30.5 10t-8.5 31v115q0 12 8.5 20.5t20.5 8.5h127q12 0 20.5 -8.5t8.5 -20.5v-244q0 -62 -39 -97.5t-115 -39.5q-12 -1 -21.5 8t-9.5 21zM334 1053v45q0 11 7 19t17 9q23 3 30 16t7 42v65h-22q-22 0 -30.5 10 t-8.5 31v115q0 12 8 20.5t20 8.5h127q12 0 20.5 -8.5t8.5 -20.5v-244q0 -128 -153 -137q-12 -1 -21.5 8t-9.5 21z" />
<glyph unicode="&#x201e;" horiz-adv-x="569" d="M51 74v114q0 12 8.5 20.5t20.5 8.5h127q12 0 20.5 -8.5t8.5 -20.5v-243q0 -62 -39 -98t-115 -40q-12 -1 -21.5 8t-9.5 21v45q0 11 7.5 19.5t17.5 9.5q23 3 30 15.5t7 41.5v66h-23q-22 0 -30.5 10t-8.5 31zM334 74v114q0 12 8 20.5t20 8.5h127q12 0 20.5 -8.5t8.5 -20.5 v-243q0 -62 -38.5 -98t-114.5 -40q-12 -1 -21.5 8t-9.5 21v45q0 11 7 19.5t17 9.5q23 3 30 15.5t7 41.5v66h-22q-22 0 -30.5 10t-8.5 31z" />
<glyph unicode="&#x2022;" horiz-adv-x="913" d="M98 545q0 149 105 253.5t254 104.5t253.5 -104.5t104.5 -253.5t-104.5 -254t-253.5 -105t-254 105t-105 254z" />
<glyph unicode="&#x2026;" horiz-adv-x="2048" d="M322 29v159q0 12 8 20.5t20 8.5h160q12 0 20.5 -8.5t8.5 -20.5v-159q0 -12 -8.5 -20.5t-20.5 -8.5h-160q-12 0 -20 8.5t-8 20.5zM915 29v159q0 12 8.5 20.5t20.5 8.5h160q12 0 20.5 -8.5t8.5 -20.5v-159q0 -12 -8.5 -20.5t-20.5 -8.5h-160q-12 0 -20.5 8.5t-8.5 20.5z M1509 29v159q0 12 8.5 20.5t20.5 8.5h160q12 0 20 -8.5t8 -20.5v-159q0 -12 -8 -20.5t-20 -8.5h-160q-12 0 -20.5 8.5t-8.5 20.5z" />
<glyph unicode="&#x202f;" horiz-adv-x="365" />
<glyph unicode="&#x2039;" horiz-adv-x="464" d="M76 481v101l153 206q11 11 23 11h115q18 0 25.5 -15t-1.5 -30l-125 -205v-33l127 -209q9 -15 1.5 -29t-25.5 -14h-117q-13 0 -23 10z" />
<glyph unicode="&#x203a;" horiz-adv-x="464" d="M70.5 278q-7.5 14 1.5 29l127 209v33l-125 205q-9 15 -1.5 30t25.5 15h115q12 0 23 -11l153 -206v-101l-153 -207q-10 -10 -23 -10h-117q-18 0 -25.5 14z" />
<glyph unicode="&#x205f;" horiz-adv-x="457" />
<glyph unicode="&#x20ac;" d="M0 418v106q0 12 8.5 20.5t20.5 8.5h73v133h-73q-12 0 -20.5 8.5t-8.5 20.5v106q0 12 8.5 20.5t20.5 8.5h73v174q0 83 60 143q62 62 145 62h45q12 0 20.5 -8.5t8.5 -20.5v-127q0 -10 -8 -18.5t-19 -10.5q-19 -1 -33 -16.5t-14 -34.5v-143h248q12 0 20.5 -8.5t8.5 -20.5 v-106q0 -12 -8.5 -20.5t-20.5 -8.5h-248v-133h248q12 0 20.5 -8.5t8.5 -20.5v-106q0 -12 -8.5 -20.5t-20.5 -8.5h-248v-153q0 -19 14 -35t33 -17q11 -2 19 -10t8 -18v-127q0 -12 -8.5 -20.5t-20.5 -8.5h-45q-81 0 -141 57q-64 58 -64 148v184h-73q-12 0 -20.5 8.5t-8.5 20.5 zM465 29v127q0 9 6.5 18t15.5 10q18 5 31.5 19.5t13.5 32.5v22q0 12 8.5 20.5t20.5 8.5h148q12 0 20 -8.5t8 -20.5v-53q0 -91 -63 -148q-60 -57 -142 -57h-38q-12 0 -20.5 8.5t-8.5 20.5zM465 1071v129q0 12 8.5 20.5t20.5 8.5h38q90 0 146 -62q59 -59 59 -143v-53 q0 -12 -8 -20.5t-20 -8.5h-148q-12 0 -20.5 8.5t-8.5 20.5v22q0 17 -13 31.5t-30 17.5q-9 1 -16.5 10.5t-7.5 18.5z" />
<glyph unicode="&#x2122;" horiz-adv-x="1017" d="M53 1382v23q0 12 8.5 20.5t20.5 8.5h266q12 0 20.5 -8.5t8.5 -20.5v-23q0 -12 -8.5 -20t-20.5 -8h-84v-361q0 -12 -8 -20t-20 -8h-41q-12 0 -20.5 8t-8.5 20v361h-84q-12 0 -20.5 8t-8.5 20zM432 993v412q0 12 8.5 20.5t20.5 8.5h88q21 0 29 -23l75 -272l76 274 q1 9 10.5 15t18.5 6h88q12 0 20 -8.5t8 -20.5v-412q0 -12 -8 -20t-20 -8h-37q-12 0 -20.5 8t-8.5 20v322h-10q-14 -45 -39.5 -136t-32.5 -114q-5 -16 -45 -16q-45 0 -47 18l-69 248h-13v-322q0 -12 -8 -20t-20 -8h-35q-12 0 -20.5 8t-8.5 20z" />
<glyph unicode="&#x25fc;" horiz-adv-x="1228" d="M0 0v1229h1229v-1229h-1229z" />
<glyph unicode="&#xfb01;" horiz-adv-x="1171" d="M139 29v1171q0 12 8.5 20.5t20.5 8.5h455q12 0 20 -8.5t8 -20.5v-127q0 -12 -8 -20.5t-20 -8.5h-279v-317h221q12 0 20.5 -8.5t8.5 -20.5v-127q0 -12 -8.5 -20t-20.5 -8h-221v-514q0 -12 -8.5 -20.5t-20.5 -8.5h-147q-12 0 -20.5 8.5t-8.5 20.5zM827 29v1171 q0 12 8.5 20.5t20.5 8.5h148q12 0 20 -8.5t8 -20.5v-1171q0 -12 -8 -20.5t-20 -8.5h-148q-12 0 -20.5 8.5t-8.5 20.5z" />
<glyph unicode="&#xfb02;" horiz-adv-x="1349" d="M139 29v1171q0 12 8.5 20.5t20.5 8.5h455q12 0 20 -8.5t8 -20.5v-127q0 -12 -8 -20.5t-20 -8.5h-279v-317h221q12 0 20.5 -8.5t8.5 -20.5v-127q0 -12 -8.5 -20t-20.5 -8h-221v-514q0 -12 -8.5 -20.5t-20.5 -8.5h-147q-12 0 -20.5 8.5t-8.5 20.5zM827 29v1171 q0 12 8.5 20.5t20.5 8.5h148q12 0 20 -8.5t8 -20.5v-1016h279q12 0 20 -8t8 -20v-127q0 -12 -8 -20.5t-20 -8.5h-455q-12 0 -20.5 8.5t-8.5 20.5z" />
<glyph unicode="&#xfb03;" horiz-adv-x="1859" d="M139 29v1171q0 12 8.5 20.5t20.5 8.5h455q12 0 20 -8.5t8 -20.5v-127q0 -12 -8 -20.5t-20 -8.5h-279v-317h221q12 0 20.5 -8.5t8.5 -20.5v-127q0 -12 -8.5 -20t-20.5 -8h-221v-514q0 -12 -8.5 -20.5t-20.5 -8.5h-147q-12 0 -20.5 8.5t-8.5 20.5zM827 29v1171 q0 12 8.5 20.5t20.5 8.5h455q12 0 20 -8.5t8 -20.5v-127q0 -12 -8 -20.5t-20 -8.5h-279v-317h221q12 0 20.5 -8.5t8.5 -20.5v-127q0 -12 -8.5 -20t-20.5 -8h-221v-514q0 -12 -8 -20.5t-20 -8.5h-148q-12 0 -20.5 8.5t-8.5 20.5zM1516 29v1171q0 12 8 20.5t20 8.5h148 q12 0 20 -8.5t8 -20.5v-1171q0 -12 -8 -20.5t-20 -8.5h-148q-12 0 -20 8.5t-8 20.5z" />
<glyph unicode="&#xfb04;" horiz-adv-x="2037" d="M139 29v1171q0 12 8.5 20.5t20.5 8.5h455q12 0 20 -8.5t8 -20.5v-127q0 -12 -8 -20.5t-20 -8.5h-279v-317h221q12 0 20.5 -8.5t8.5 -20.5v-127q0 -12 -8.5 -20t-20.5 -8h-221v-514q0 -12 -8.5 -20.5t-20.5 -8.5h-147q-12 0 -20.5 8.5t-8.5 20.5zM827 29v1171 q0 12 8.5 20.5t20.5 8.5h455q12 0 20 -8.5t8 -20.5v-127q0 -12 -8 -20.5t-20 -8.5h-279v-317h221q12 0 20.5 -8.5t8.5 -20.5v-127q0 -12 -8.5 -20t-20.5 -8h-221v-514q0 -12 -8 -20.5t-20 -8.5h-148q-12 0 -20.5 8.5t-8.5 20.5zM1516 29v1171q0 12 8 20.5t20 8.5h148 q12 0 20 -8.5t8 -20.5v-1016h279q12 0 20.5 -8t8.5 -20v-127q0 -12 -8.5 -20.5t-20.5 -8.5h-455q-12 0 -20 8.5t-8 20.5z" />
</font>
</defs>
</svg>
