<?xml version="1.0" standalone="no"?>
<!DOCTYPE svg PUBLIC "-//W3C//DTD SVG 1.1//EN" "http://www.w3.org/Graphics/SVG/1.1/DTD/svg11.dtd" >
<svg xmlns="http://www.w3.org/2000/svg">
<metadata></metadata>
<defs>
<font id="upc_sgothicregular_caps" horiz-adv-x="819" >
<font-face units-per-em="2048" ascent="1536" descent="-512" />
<missing-glyph horiz-adv-x="307" />
<glyph horiz-adv-x="2048" />
<glyph horiz-adv-x="2048" />
<glyph unicode="&#xd;" horiz-adv-x="2048" />
<glyph unicode=" "  horiz-adv-x="307" />
<glyph unicode="&#x09;" horiz-adv-x="307" />
<glyph unicode="&#xa0;" horiz-adv-x="307" />
<glyph unicode="!" horiz-adv-x="468" d="M180 0v168h109v-168h-109zM184 1024v410h109v-410l-25 -643h-67z" />
<glyph unicode="&#x22;" horiz-adv-x="428" d="M133 1118v316h92v-316h-92zM342 1118v316h92v-316h-92z" />
<glyph unicode="#" d="M8 340v92h152l102 582h-170v92h187l59 328h72l-58 -328h283l59 328h72l-57 -328h127v-92h-144l-102 -582h162v-92h-179l-59 -340h-76l62 340h-281l-61 -340h-76l61 340h-135zM233 432h283l102 582h-282z" />
<glyph unicode="$" d="M133 338v57h98v-67q0 -140 166 -140h27q81 0 122.5 36.5t41.5 103.5v147q0 51 -27 93t-76 67l-174 90q-92 47 -135 107.5t-43 162.5v101q0 63 14 101t41 69q27 29 76 48t94 19h4v203h95v-203h4q45 0 94 -19.5t76 -49.5q55 -52 55 -168v-58h-98v66q0 141 -164 141h-27 q-83 0 -124.5 -36.5t-41.5 -104.5v-119q0 -52 26.5 -95t76.5 -67l172 -86q92 -47 136 -108.5t44 -163.5v-127q0 -121 -61 -176q-29 -28 -75 -45t-89 -17h-4v-202h-95v202h-4q-43 0 -89.5 17.5t-73.5 44.5q-31 33 -46.5 71.5t-15.5 104.5z" />
<glyph unicode="%" horiz-adv-x="1118" d="M86 856v438q0 70 35 105q41 41 121 41h41q78 0 123 -41q34 -30 34 -105v-438q0 -67 -41 -108q-37 -37 -116 -37h-41q-74 0 -117 37q-39 42 -39 108zM164 854q0 -74 90 -74h16q92 0 92 74v442q0 74 -92 74h-16q-45 0 -67.5 -19.5t-22.5 -54.5v-442zM201 0l628 1434h80 l-626 -1434h-82zM678 139v439q0 64 35 104q41 41 123 41h38q80 0 125 -41q33 -33 33 -104v-439q0 -69 -39 -108q-37 -37 -119 -37h-38q-80 0 -117 37q-41 41 -41 108zM758 137q0 -74 88 -74h18q90 0 90 74v443q0 73 -90 73h-18q-88 0 -88 -73v-443z" />
<glyph unicode="&#x26;" horiz-adv-x="841" d="M123 227v305q0 82 53.5 139t122.5 62v10q-67 11 -111.5 66t-44.5 129v268q0 111 58 172q61 64 184 64h51q126 0 187 -64q57 -60 57 -172v-155h-100v163q0 66 -39.5 102t-116.5 36h-27q-75 0 -114 -36t-39 -102v-276q0 -156 182 -156h373v-88h-137q18 -14 18 -41v-426 q0 -117 -62 -176q-64 -61 -188 -61h-57q-125 0 -187 59q-63 60 -63 178zM223 219q0 -67 41 -104t123 -37h31q79 0 120.5 36.5t41.5 104.5v475h-146q-31 0 -58.5 -4t-56.5 -15.5t-49.5 -30t-33.5 -50t-13 -72.5v-303z" />
<glyph unicode="'" horiz-adv-x="219" d="M63 1118v316h93v-316h-93z" />
<glyph unicode="(" horiz-adv-x="432" d="M53 672q0 272 79.5 488.5t203.5 355.5h84q-47 -69 -76.5 -116.5t-68.5 -129t-61 -160.5t-38 -192t-16 -242q0 -130 16 -244.5t38 -193.5t61 -160.5t68 -129t77 -116.5h-84q-124 139 -203.5 353.5t-79.5 486.5z" />
<glyph unicode=")" horiz-adv-x="432" d="M12 -168q47 68 76.5 116t68 129.5t60.5 160.5t37.5 193.5t15.5 244.5q0 129 -15.5 242t-37.5 192t-60.5 160t-68 129.5t-76.5 116.5h84q124 -139 203.5 -355.5t79.5 -488.5t-79.5 -486.5t-203.5 -353.5h-84z" />
<glyph unicode="*" horiz-adv-x="583" d="M70 1255l16 50l162 -37l16 166h51l19 -166l164 32l14 -45l-154 -69l86 -146l-43 -32l-114 127l-109 -127l-43 32l84 146z" />
<glyph unicode="+" d="M27 666v88h338v340h94v-340h336v-88h-336v-340h-94v340h-338z" />
<glyph unicode="," horiz-adv-x="237" d="M39 -125q84 0 84 80v45h-37q-23 0 -23 31v137h115v-223q0 -58 -37.5 -93.5t-101.5 -35.5v59z" />
<glyph unicode="-" horiz-adv-x="505" d="M94 666v114h318v-114h-318z" />
<glyph unicode="." horiz-adv-x="237" d="M66 0v168h110v-168h-110z" />
<glyph unicode="/" horiz-adv-x="737" d="M12 -248l615 1682h98l-614 -1682h-99z" />
<glyph unicode="0" d="M125 227v979q0 65 14.5 103.5t44.5 68.5q63 66 199 66h51q138 0 201 -66q30 -30 44.5 -68.5t14.5 -103.5v-979q0 -118 -63 -178q-62 -59 -197 -59h-51q-133 0 -195 59q-63 60 -63 178zM225 219q0 -141 170 -141h27q172 0 172 141v995q0 142 -172 142h-27q-86 0 -128 -37 t-42 -105v-995z" />
<glyph unicode="1" horiz-adv-x="571" d="M82 1343v91h283v-1434h-101v1343h-182z" />
<glyph unicode="2" d="M125 0v289q0 52 11 95.5t25 72.5t43.5 60t50.5 48t62 47l123 90q76 57 96 77q56 66 58 169v266q0 142 -172 142h-27q-86 0 -128 -37t-42 -105v-163h-100v155q0 65 14 103.5t43 68.5q63 66 201 66h51q140 0 203 -66q29 -30 43 -68.5t14 -103.5v-260q0 -38 -6 -71t-12 -56 t-24 -49t-27.5 -39t-37.5 -37t-39 -32t-46 -35l-123 -92q-76 -58 -95 -77q-56 -59 -59 -158v-13v-199h469v-88h-569z" />
<glyph unicode="3" d="M115 227v154h100v-162q0 -141 174 -141h33q98 0 140 35.5t42 105.5v309q0 170 -213 170h-117v90h125q185 0 185 152v274q0 142 -172 142h-27q-86 0 -128 -37t-42 -105v-163h-100v155q0 65 14 103.5t43 68.5q63 66 201 66h51q138 0 201 -66q30 -30 44.5 -68.5t14.5 -103.5 v-262q0 -74 -44.5 -128.5t-111.5 -65.5v-11q69 -5 123 -62t54 -138v-312q0 -115 -64 -176q-32 -30 -77 -45.5t-130 -15.5h-57q-137 0 -199 59q-63 60 -63 178z" />
<glyph unicode="4" d="M45 328v63l442 1043h131v-1018h138v-88h-138v-328h-100v328h-473zM147 416h371v903z" />
<glyph unicode="5" d="M121 227v154h100v-162q0 -141 185 -141h26q172 0 172 141v432q0 69 -43 106.5t-129 37.5h-26q-152 0 -170 -123h-101v762h549v-93h-453v-548q10 26 27 43q49 49 156 49h30q135 0 201 -66q60 -60 60 -172v-420q0 -111 -60 -174q-63 -63 -201 -63h-51q-152 0 -215 63 q-57 60 -57 174z" />
<glyph unicode="6" d="M125 227v979q0 65 14 103.5t43 68.5q63 66 201 66h51q138 0 201 -66q30 -30 44.5 -68.5t14.5 -103.5v-155h-100v163q0 142 -172 142h-27q-86 0 -128 -37t-42 -105v-432q14 28 29 43q47 47 154 47h26q140 0 203 -63q57 -60 57 -172v-410q0 -118 -63 -178q-62 -59 -197 -59 h-51q-133 0 -195 59q-63 60 -63 178zM225 219q0 -141 170 -141h27q172 0 172 141v422q0 143 -172 143h-27q-170 0 -170 -139v-426z" />
<glyph unicode="7" d="M145 1343v91h549v-392q0 -137 -137 -264l-121 -112q-108 -97 -108 -211v-455h-101v467q0 47 15 91t44.5 84t49 62t52.5 55l3 3l3 3l3 3l113 100q35 31 59.5 82t24.5 109v284h-449z" />
<glyph unicode="8" d="M115 197v342q0 79 51.5 138t112.5 64v11q-60 11 -107 65.5t-47 126.5v293q0 81 57 141q63 66 201 66h51q138 0 201 -66q59 -59 59 -141v-293q0 -72 -46.5 -126.5t-106.5 -65.5v-11q61 -5 112.5 -63t51.5 -139v-342q0 -87 -64 -148q-31 -29 -75.5 -44t-127.5 -15h-59 q-82 0 -126 15t-75 44q-63 60 -63 148zM215 219q0 -141 178 -141h31q180 0 180 141v324q0 71 -43.5 113t-136.5 42h-31q-91 0 -134.5 -42.5t-43.5 -112.5v-324zM225 942q0 -70 41.5 -112t128.5 -42h27q88 0 130 42t42 112v272q0 142 -172 142h-27q-86 0 -128 -37t-42 -105 v-272z" />
<glyph unicode="9" d="M125 227v154h100v-162q0 -141 172 -141h27q170 0 170 141v432q-16 -32 -29 -43q-49 -49 -153 -49h-29q-135 0 -201 66q-57 57 -57 172v409q0 118 63 178t195 60h53q132 0 195 -60t63 -178v-979q0 -65 -14.5 -103.5t-44.5 -68.5q-62 -65 -199 -65h-53q-139 0 -201 65 q-29 30 -43 68.5t-14 103.5zM225 793q0 -144 172 -144h27q170 0 170 139v426q0 68 -42 105t-128 37h-27q-172 0 -172 -142v-421z" />
<glyph unicode=":" horiz-adv-x="352" d="M123 0v168h110v-168h-110zM123 856v168h110v-168h-110z" />
<glyph unicode=";" horiz-adv-x="352" d="M96 -125q84 0 84 80v45h-37q-22 0 -22 31v137h115v-223q0 -58 -38 -93.5t-102 -35.5v59zM121 856v168h110v-168h-110z" />
<glyph unicode="&#x3c;" d="M53 655v80l715 357v-101l-582 -280l-45 -13l45 -14l582 -276v-103z" />
<glyph unicode="=" d="M53 485v88h715v-88h-715zM53 817v88h715v-88h-715z" />
<glyph unicode="&#x3e;" d="M53 305v103l582 276l45 14l-45 13l-582 280v101l715 -357v-80z" />
<glyph unicode="?" horiz-adv-x="751" d="M100 1051v186q0 80 58 141q63 66 192 66h53q130 0 193 -66q57 -60 57 -141v-248q0 -54 -26 -99t-63 -78.5t-74 -66.5t-63 -77.5t-26 -96.5v-190h-96v201q0 46 13.5 85t35.5 67.5t48.5 54.5t53 49.5t48.5 48t35.5 55.5t13.5 66v206q0 68 -40.5 105t-121.5 37h-26 q-83 0 -123.5 -37t-40.5 -105v-163h-101zM299 0v168h111v-168h-111z" />
<glyph unicode="@" horiz-adv-x="1646" d="M117 481v158q0 122 26 237.5t83 221.5t139.5 185t204.5 126t268 47q125 0 229.5 -22.5t179.5 -63t130.5 -94t89 -120t49.5 -136.5t16 -146v-116q0 -120 -25.5 -216t-65.5 -154t-92.5 -96t-101.5 -52.5t-98 -14.5q-94 0 -136 44.5t-42 129.5v31q-14 -30 -38.5 -62.5 t-60 -66t-84 -55t-98.5 -21.5q-109 0 -169 70.5t-60 193.5q0 47 10 109l10 59q29 143 59 215t78 119q85 88 203 88q174 0 226 -164l28 156h92l-88 -493q-20 -118 -20 -160q0 -54 23.5 -84.5t84.5 -30.5q20 0 44.5 7t57.5 24t62.5 52.5t55.5 85t41.5 130t15.5 180.5v92 q0 109 -35.5 198.5t-107 158.5t-190 107t-275.5 38q-152 0 -273.5 -59.5t-198.5 -162.5t-117 -236.5t-40 -286.5v-139q0 -90 20.5 -174.5t66.5 -161t112.5 -133.5t166 -91t220.5 -34q86 0 158 10.5t117.5 24.5t86 37t59.5 38.5t43 38.5l13 12l67 -45l-16 -18 q-34 -37 -72 -65t-99.5 -55.5t-153 -42.5t-208.5 -15q-150 0 -269.5 44.5t-193 113t-122 159.5t-67.5 176t-19 170zM553 492q0 -85 42.5 -133t121.5 -48q88 0 166 81t96 175l33 166q5 23 8 66q4 82 -51 138t-131 56q-98 0 -162 -67q-34 -34 -57 -95.5t-46 -183.5l-10 -57 q-10 -58 -10 -98z" />
<glyph unicode="A" horiz-adv-x="745" d="M41 0l266 1434h135l265 -1434h-107l-55 319h-342l-56 -319h-106zM217 410h311l-118 698l-31 217h-12l-27 -217z" />
<glyph unicode="B" horiz-adv-x="864" d="M152 0v1434h360q43 0 85.5 -17.5t70.5 -46.5q57 -60 57 -141v-291q0 -74 -44.5 -129t-111.5 -66v-10q69 -5 122.5 -62t53.5 -139v-327q0 -88 -63 -148q-60 -57 -150 -57h-380zM252 88h250q67 0 105 36t38 101v297q0 170 -211 170h-182v-604zM252 782h188q185 0 185 152 v272q0 65 -38.5 101t-105.5 36h-229v-561z" />
<glyph unicode="C" horiz-adv-x="782" d="M129 227v979q0 65 14 103.5t43 68.5q63 66 199 66h57q140 0 203 -66q29 -30 43 -68.5t14 -103.5v-155h-100v163q0 142 -172 142h-31q-170 0 -170 -142v-995q0 -141 170 -141h31q172 0 172 141v162h100v-154q0 -118 -63 -178q-62 -59 -197 -59h-57q-130 0 -192 59 q-64 61 -64 178z" />
<glyph unicode="D" horiz-adv-x="854" d="M152 0v1434h360q43 0 85.5 -17.5t70.5 -46.5q30 -31 43.5 -67.5t13.5 -104.5v-962q0 -68 -15.5 -109t-47.5 -70q-60 -57 -150 -57h-360zM252 88h229q67 0 105.5 36t38.5 101v981q0 65 -38.5 101t-105.5 36h-229v-1255z" />
<glyph unicode="E" horiz-adv-x="679" d="M152 0v1434h450v-91h-350v-561h293v-90h-293v-604h350v-88h-450z" />
<glyph unicode="F" horiz-adv-x="638" d="M152 0v1434h450v-91h-350v-561h293v-90h-293v-692h-100z" />
<glyph unicode="G" horiz-adv-x="827" d="M129 227v979q0 65 14 103.5t43 68.5q63 66 199 66h57q142 0 203 -68q57 -60 57 -170v-155h-100v163q0 142 -172 142h-31q-170 0 -170 -142v-995q0 -141 170 -141h31q172 0 172 141v414h-205v90h305v-496q0 -118 -63 -178q-62 -59 -197 -59h-57q-130 0 -192 59 q-64 61 -64 178z" />
<glyph unicode="H" horiz-adv-x="876" d="M152 0v1434h100v-652h373v652h100v-1434h-100v692h-373v-692h-100z" />
<glyph unicode="I" horiz-adv-x="403" d="M152 0v1434h100v-1434h-100z" />
<glyph unicode="J" horiz-adv-x="700" d="M37 227v154h100v-162q0 -141 164 -141h27q60 0 99.5 38.5t39.5 102.5v1215h100v-1207q0 -118 -63 -178q-62 -59 -164 -59h-53q-125 0 -187 59q-63 60 -63 178z" />
<glyph unicode="K" horiz-adv-x="798" d="M152 0v1434h100v-723h10l395 723h115l-348 -611l356 -823h-116l-306 733l-106 -186v-547h-100z" />
<glyph unicode="L" horiz-adv-x="624" d="M152 0v1434h100v-1346h350v-88h-450z" />
<glyph unicode="M" horiz-adv-x="1116" d="M152 0v1434h163l199 -910l45 -233h14l45 233l197 910h162v-1434h-94v975l4 336h-13l-73 -363l-174 -774h-125l-172 774l-74 363h-12l4 -336v-975h-96z" />
<glyph unicode="N" horiz-adv-x="948" d="M152 0v1434h151l326 -1080l63 -221h15l-11 602v699h101v-1434h-150l-328 1079l-63 221h-12l8 -755v-545h-100z" />
<glyph unicode="O" horiz-adv-x="831" d="M129 227v979q0 65 14 103.5t43 68.5q63 66 199 66h57q138 0 201 -66q30 -30 44.5 -68.5t14.5 -103.5v-979q0 -116 -63 -176q-61 -61 -197 -61h-57q-131 0 -195 61q-61 61 -61 176zM229 219q0 -141 170 -141h31q172 0 172 141v995q0 142 -172 142h-31q-170 0 -170 -142 v-995z" />
<glyph unicode="P" horiz-adv-x="790" d="M152 0v1434h360q92 0 156 -64q29 -30 43 -68.5t14 -103.5v-295q0 -115 -63 -178q-60 -57 -150 -57h-260v-668h-100zM252 758h229q67 0 105.5 36t38.5 101v311q0 65 -38.5 101t-105.5 36h-229v-585z" />
<glyph unicode="Q" horiz-adv-x="831" d="M129 227v979q0 65 14 103.5t43 68.5q63 66 199 66h57q138 0 201 -66q30 -30 44.5 -68.5t14.5 -103.5v-979q0 -90 -31.5 -139t-92.5 -74l182 -215h-119l-164 193q-14 -2 -92 -2q-131 0 -195 61q-61 61 -61 176zM229 219q0 -141 170 -141h31q172 0 172 139v997 q0 142 -172 142h-31q-170 0 -170 -142v-995z" />
<glyph unicode="R" horiz-adv-x="864" d="M152 0v1434h360q92 0 156 -64q29 -30 43 -68.5t14 -103.5v-283q0 -120 -63 -180q-23 -20 -54 -34t-57 -17l231 -684h-108l-219 668h-203v-668h-100zM252 758h229q67 0 105.5 36t38.5 101v311q0 65 -38.5 101t-105.5 36h-229v-585z" />
<glyph unicode="S" horiz-adv-x="786" d="M106 227v154h101v-162q0 -141 170 -141h33q170 0 170 141v201q0 92 -32 137.5t-122 104.5l-127 83q-95 62 -139.5 125.5t-44.5 163.5v172q0 65 14 103.5t43 68.5q63 66 201 66h57q127 0 193 -66q29 -30 43 -68.5t14 -103.5v-155h-100v163q0 67 -41 104.5t-121 37.5h-33 q-170 0 -170 -142v-145q0 -53 7.5 -88.5t29 -63.5t42.5 -45t64 -45l129 -82q97 -64 145 -128t48 -162v-228q0 -115 -64 -176q-61 -61 -194 -61h-57q-133 0 -195 59q-64 61 -64 178z" />
<glyph unicode="T" horiz-adv-x="630" d="M33 1343v91h565v-91h-233v-1343h-101v1343h-231z" />
<glyph unicode="U" horiz-adv-x="860" d="M143 227v1207h101v-1215q0 -141 170 -141h30q172 0 172 139v1217h101v-1207q0 -115 -64 -176q-61 -61 -196 -61h-58q-130 0 -194 61q-62 62 -62 176z" />
<glyph unicode="V" horiz-adv-x="745" d="M39 1434h108l191 -1108l31 -217h12l27 217l192 1108h105l-267 -1434h-135z" />
<glyph unicode="W" horiz-adv-x="1153" d="M49 1434h105l153 -1094l25 -215h12l27 215l139 1094h135l143 -1094l29 -215h12l23 215l154 1094h102l-221 -1434h-133l-150 1087l-22 218h-13l-18 -218l-145 -1087h-136z" />
<glyph unicode="X" horiz-adv-x="731" d="M23 0l288 739l-272 695h106l160 -437l57 -153h11l59 153l158 437h104l-272 -695l289 -739h-107l-172 467l-61 168h-11l-63 -168l-172 -467h-102z" />
<glyph unicode="Y" horiz-adv-x="694" d="M6 1434h103l188 -529l45 -131h12l45 131l191 529h98l-291 -789v-645h-100v645z" />
<glyph unicode="Z" horiz-adv-x="659" d="M53 0v76l443 1267h-412v91h522v-78l-442 -1268h442v-88h-553z" />
<glyph unicode="[" horiz-adv-x="509" d="M166 -166v1682h280v-78h-182v-1528h182v-76h-280z" />
<glyph unicode="\" horiz-adv-x="737" d="M12 1434h99l614 -1682h-98z" />
<glyph unicode="]" horiz-adv-x="509" d="M63 -90h183v1528h-183v78h281v-1682h-281v76z" />
<glyph unicode="^" d="M53 629l314 614h79l320 -614h-98l-244 479l-14 45l-17 -45l-237 -479h-103z" />
<glyph unicode="_" horiz-adv-x="638" d="M2 -326h635v-84h-635v84z" />
<glyph unicode="`" d="M223 1765h109l141 -254h-90z" />
<glyph unicode="a" horiz-adv-x="745" d="M41 0l266 1434h135l265 -1434h-107l-55 319h-342l-56 -319h-106zM217 410h311l-118 698l-31 217h-12l-27 -217z" />
<glyph unicode="b" horiz-adv-x="864" d="M152 0v1434h360q43 0 85.5 -17.5t70.5 -46.5q57 -60 57 -141v-291q0 -74 -44.5 -129t-111.5 -66v-10q69 -5 122.5 -62t53.5 -139v-327q0 -88 -63 -148q-60 -57 -150 -57h-380zM252 88h250q67 0 105 36t38 101v297q0 170 -211 170h-182v-604zM252 782h188q185 0 185 152 v272q0 65 -38.5 101t-105.5 36h-229v-561z" />
<glyph unicode="c" horiz-adv-x="782" d="M129 227v979q0 65 14 103.5t43 68.5q63 66 199 66h57q140 0 203 -66q29 -30 43 -68.5t14 -103.5v-155h-100v163q0 142 -172 142h-31q-170 0 -170 -142v-995q0 -141 170 -141h31q172 0 172 141v162h100v-154q0 -118 -63 -178q-62 -59 -197 -59h-57q-130 0 -192 59 q-64 61 -64 178z" />
<glyph unicode="d" horiz-adv-x="854" d="M152 0v1434h360q43 0 85.5 -17.5t70.5 -46.5q30 -31 43.5 -67.5t13.5 -104.5v-962q0 -68 -15.5 -109t-47.5 -70q-60 -57 -150 -57h-360zM252 88h229q67 0 105.5 36t38.5 101v981q0 65 -38.5 101t-105.5 36h-229v-1255z" />
<glyph unicode="e" horiz-adv-x="679" d="M152 0v1434h450v-91h-350v-561h293v-90h-293v-604h350v-88h-450z" />
<glyph unicode="f" horiz-adv-x="638" d="M152 0v1434h450v-91h-350v-561h293v-90h-293v-692h-100z" />
<glyph unicode="g" horiz-adv-x="827" d="M129 227v979q0 65 14 103.5t43 68.5q63 66 199 66h57q142 0 203 -68q57 -60 57 -170v-155h-100v163q0 142 -172 142h-31q-170 0 -170 -142v-995q0 -141 170 -141h31q172 0 172 141v414h-205v90h305v-496q0 -118 -63 -178q-62 -59 -197 -59h-57q-130 0 -192 59 q-64 61 -64 178z" />
<glyph unicode="h" horiz-adv-x="876" d="M152 0v1434h100v-652h373v652h100v-1434h-100v692h-373v-692h-100z" />
<glyph unicode="i" horiz-adv-x="403" d="M152 0v1434h100v-1434h-100z" />
<glyph unicode="j" horiz-adv-x="700" d="M37 227v154h100v-162q0 -141 164 -141h27q60 0 99.5 38.5t39.5 102.5v1215h100v-1207q0 -118 -63 -178q-62 -59 -164 -59h-53q-125 0 -187 59q-63 60 -63 178z" />
<glyph unicode="k" horiz-adv-x="798" d="M152 0v1434h100v-723h10l395 723h115l-348 -611l356 -823h-116l-306 733l-106 -186v-547h-100z" />
<glyph unicode="l" horiz-adv-x="624" d="M152 0v1434h100v-1346h350v-88h-450z" />
<glyph unicode="m" horiz-adv-x="1116" d="M152 0v1434h163l199 -910l45 -233h14l45 233l197 910h162v-1434h-94v975l4 336h-13l-73 -363l-174 -774h-125l-172 774l-74 363h-12l4 -336v-975h-96z" />
<glyph unicode="n" horiz-adv-x="948" d="M152 0v1434h151l326 -1080l63 -221h15l-11 602v699h101v-1434h-150l-328 1079l-63 221h-12l8 -755v-545h-100z" />
<glyph unicode="o" horiz-adv-x="831" d="M129 227v979q0 65 14 103.5t43 68.5q63 66 199 66h57q138 0 201 -66q30 -30 44.5 -68.5t14.5 -103.5v-979q0 -116 -63 -176q-61 -61 -197 -61h-57q-131 0 -195 61q-61 61 -61 176zM229 219q0 -141 170 -141h31q172 0 172 141v995q0 142 -172 142h-31q-170 0 -170 -142 v-995z" />
<glyph unicode="p" horiz-adv-x="790" d="M152 0v1434h360q92 0 156 -64q29 -30 43 -68.5t14 -103.5v-295q0 -115 -63 -178q-60 -57 -150 -57h-260v-668h-100zM252 758h229q67 0 105.5 36t38.5 101v311q0 65 -38.5 101t-105.5 36h-229v-585z" />
<glyph unicode="q" horiz-adv-x="831" d="M129 227v979q0 65 14 103.5t43 68.5q63 66 199 66h57q138 0 201 -66q30 -30 44.5 -68.5t14.5 -103.5v-979q0 -90 -31.5 -139t-92.5 -74l182 -215h-119l-164 193q-14 -2 -92 -2q-131 0 -195 61q-61 61 -61 176zM229 219q0 -141 170 -141h31q172 0 172 139v997 q0 142 -172 142h-31q-170 0 -170 -142v-995z" />
<glyph unicode="r" horiz-adv-x="864" d="M152 0v1434h360q92 0 156 -64q29 -30 43 -68.5t14 -103.5v-283q0 -120 -63 -180q-23 -20 -54 -34t-57 -17l231 -684h-108l-219 668h-203v-668h-100zM252 758h229q67 0 105.5 36t38.5 101v311q0 65 -38.5 101t-105.5 36h-229v-585z" />
<glyph unicode="s" horiz-adv-x="786" d="M106 227v154h101v-162q0 -141 170 -141h33q170 0 170 141v201q0 92 -32 137.5t-122 104.5l-127 83q-95 62 -139.5 125.5t-44.5 163.5v172q0 65 14 103.5t43 68.5q63 66 201 66h57q127 0 193 -66q29 -30 43 -68.5t14 -103.5v-155h-100v163q0 67 -41 104.5t-121 37.5h-33 q-170 0 -170 -142v-145q0 -53 7.5 -88.5t29 -63.5t42.5 -45t64 -45l129 -82q97 -64 145 -128t48 -162v-228q0 -115 -64 -176q-61 -61 -194 -61h-57q-133 0 -195 59q-64 61 -64 178z" />
<glyph unicode="t" horiz-adv-x="630" d="M33 1343v91h565v-91h-233v-1343h-101v1343h-231z" />
<glyph unicode="u" horiz-adv-x="860" d="M143 227v1207h101v-1215q0 -141 170 -141h30q172 0 172 139v1217h101v-1207q0 -115 -64 -176q-61 -61 -196 -61h-58q-130 0 -194 61q-62 62 -62 176z" />
<glyph unicode="v" horiz-adv-x="745" d="M39 1434h108l191 -1108l31 -217h12l27 217l192 1108h105l-267 -1434h-135z" />
<glyph unicode="w" horiz-adv-x="1153" d="M49 1434h105l153 -1094l25 -215h12l27 215l139 1094h135l143 -1094l29 -215h12l23 215l154 1094h102l-221 -1434h-133l-150 1087l-22 218h-13l-18 -218l-145 -1087h-136z" />
<glyph unicode="x" horiz-adv-x="731" d="M23 0l288 739l-272 695h106l160 -437l57 -153h11l59 153l158 437h104l-272 -695l289 -739h-107l-172 467l-61 168h-11l-63 -168l-172 -467h-102z" />
<glyph unicode="y" horiz-adv-x="694" d="M6 1434h103l188 -529l45 -131h12l45 131l191 529h98l-291 -789v-645h-100v645z" />
<glyph unicode="z" horiz-adv-x="659" d="M53 0v76l443 1267h-412v91h522v-78l-442 -1268h442v-88h-553z" />
<glyph unicode="{" horiz-adv-x="581" d="M53 641v88h97q55 0 88.5 39t33.5 96q0 17 -8 45l-78 291q-10 42 -10 72q0 120 83.5 182t217.5 62h41v-74h-31q-97 0 -155 -40.5t-58 -127.5q0 -12 9 -57l77 -302q7 -25 7 -43q0 -88 -68 -131l-59 -49v-6l59 -49q68 -44 68 -133q0 -20 -7 -45l-79 -326q0 -4 -3.5 -22 t-3.5 -27q0 -88 57.5 -132t153.5 -44h33v-74h-41q-133 0 -216 64.5t-83 185.5q0 35 8 66l78 311q8 32 8 49q0 54 -34 92.5t-88 38.5h-97z" />
<glyph unicode="|" horiz-adv-x="532" d="M217 -348v2171h100v-2171h-100z" />
<glyph unicode="}" horiz-adv-x="581" d="M63 -92h33q96 0 153.5 44t57.5 132q0 1 -6 49l-80 326q-6 21 -6 45q0 89 68 133l61 49v6l-61 49q-68 43 -68 131q0 22 6 43l78 302q8 40 8 57q0 87 -58 127.5t-155 40.5h-31v74h41q134 0 218 -62t84 -182q0 -38 -11 -72l-78 -291q-8 -28 -8 -45q0 -57 34 -96t91 -39h96 v-88h-96q-55 0 -89 -38.5t-34 -92.5q0 -25 6 -49l78 -311q8 -31 8 -66q0 -122 -82.5 -186t-216.5 -64h-41v74z" />
<glyph unicode="~" d="M66 637q47 74 96 114t114 40q55 0 121 -37l25 -13q80 -45 123 -45q23 0 49 18.5t42 36.5t50 60l68 -45q-52 -79 -100.5 -121.5t-112.5 -42.5q-65 0 -127 35l-25 14q-3 1 -22.5 11.5t-32 16t-32.5 11.5t-36 6q-34 0 -62 -24.5t-71 -79.5z" />
<glyph unicode="&#xa1;" horiz-adv-x="468" d="M156 0v410l24 641h66l18 -641v-410h-108zM158 1266v168h110v-168h-110z" />
<glyph unicode="&#xa2;" d="M141 307v615q0 83 58 141q29 29 72.5 47t86.5 18h4v203h95v-203h4q43 0 87 -18t73 -47q57 -57 57 -172v-45h-98v57q0 67 -40 103t-116 36h-27q-157 0 -157 -139v-577q0 -67 40 -104.5t117 -37.5h27q76 0 116 37.5t40 104.5v55h98v-43q0 -68 -15.5 -107.5t-46.5 -70.5 q-28 -27 -70.5 -43.5t-84.5 -16.5h-4v-202h-95v202h-6q-84 0 -151 60q-64 61 -64 147z" />
<glyph unicode="&#xa3;" d="M23 625v84h143v497q0 113 59 172q63 66 199 66h53q78 0 123.5 -17t77.5 -49q57 -57 57 -172v-155h-100v163q0 142 -170 142h-27q-172 0 -172 -142v-505h326v-84h-326v-535h469v-90h-569v625h-143z" />
<glyph unicode="&#xa4;" horiz-adv-x="870" d="M115 -53l104 229q-47 53 -47 162v758q0 102 47 159l-104 232l82 49l102 -229q65 26 133 26h10q88 0 146 -30l100 233l82 -49q-86 -187 -104 -234q43 -53 43 -157v-758q0 -102 -43 -158l104 -233l-82 -49l-100 231q-56 -29 -146 -29h-10q-74 0 -133 27l-102 -229zM270 326 q0 -68 39.5 -104t114.5 -36h27q159 0 159 140v782q0 139 -159 139h-27q-75 0 -114.5 -36.5t-39.5 -102.5v-782z" />
<glyph unicode="&#xa5;" d="M70 1434h108l182 -590l46 -146h12l43 146l184 590h107l-258 -764h208v-84h-241v-226h241v-84h-241v-276h-101v276h-241v84h241v226h-241v84h211z" />
<glyph unicode="&#xa6;" horiz-adv-x="532" d="M217 -166v741h98v-741h-98zM217 858v741h98v-741h-98z" />
<glyph unicode="&#xa7;" d="M74 575v181q0 55 35.5 102.5t95.5 65.5q-34 31 -50 67t-16 109v106q0 114 58 172q64 64 186 64h53q119 0 185 -66q28 -30 41.5 -68t13.5 -102v-53h-98v66q0 66 -40.5 102.5t-113.5 36.5h-27q-159 0 -159 -139v-134q0 -48 25 -78t77 -49l221 -81q97 -34 138.5 -85.5 t41.5 -154.5v-172q0 -64 -35.5 -110t-91.5 -64q62 -62 62 -178v-127q0 -118 -64 -179q-62 -59 -170 -59h-53q-122 0 -184 59q-66 60 -66 179v51h99v-64q0 -139 165 -139h27q73 0 110.5 36t37.5 103v154q0 49 -25 78.5t-78 50.5l-223 84q-96 36 -137 85t-41 150zM172 557 q0 -84 107 -125l247 -92q39 -14 78 27t39 96v190q0 89 -106 129l-250 92q-33 11 -74 -27t-41 -95v-195z" />
<glyph unicode="&#xa8;" d="M334 1563v180h94v-180h-94zM545 1563v180h94v-180h-94z" />
<glyph unicode="&#xa9;" horiz-adv-x="1345" d="M115 506v422q0 68 18 137.5t60.5 140.5t104.5 125t159 88.5t215 34.5t215.5 -34.5t160 -88.5t105 -125t60.5 -140.5t18 -137.5v-422q0 -68 -18 -138t-60.5 -140.5t-105 -125t-160 -88.5t-215.5 -34t-215 34t-159 88.5t-104.5 125t-60.5 140.5t-18 138zM193 516 q0 -65 16 -129t52.5 -126t90 -109t136.5 -76t184 -29q102 0 184.5 29t136.5 76t90.5 109t52 126t15.5 129v402q0 65 -15.5 128t-52 124.5t-90.5 108t-136.5 75t-184.5 28.5q-101 0 -183.5 -28.5t-136.5 -75t-90.5 -108t-52.5 -124.5t-16 -128v-402zM416 481v471 q0 61 13.5 96.5t39.5 65.5q59 66 176 66h47q122 0 185 -66q26 -26 38.5 -61.5t12.5 -98.5v-22h-88v35q0 65 -40.5 100t-117.5 35h-27q-73 0 -111 -35t-38 -100v-500q0 -65 38 -100t111 -35h27q158 0 158 135v35h88v-25q0 -64 -14 -100.5t-44 -63.5q-59 -59 -178 -59h-47 q-114 0 -170 59q-30 31 -44.5 68t-14.5 100z" />
<glyph unicode="&#xaa;" horiz-adv-x="534" d="M76 872v76q0 74 37 117q47 47 133 47h129v170q0 43 -24.5 66.5t-71.5 23.5h-19q-49 0 -74.5 -23.5t-25.5 -66.5v-39h-78v33q0 78 39 117q44 47 129 47h41q79 0 125 -49q39 -39 39 -115v-559h-76v57q-40 -63 -115 -63h-26q-73 0 -119 43q-43 40 -43 118zM154 866 q0 -41 26 -64.5t70 -23.5h18q52 0 79.5 28t27.5 79v162h-107q-68 0 -92 -27q-22 -22 -22 -64v-90z" />
<glyph unicode="&#xab;" horiz-adv-x="618" d="M164 668v71l137 191h92l-129 -213l-16 -12l16 -15l129 -215h-92zM414 668v71l137 191h92l-129 -213l-16 -12l16 -15l129 -215h-92z" />
<glyph unicode="&#xac;" d="M41 666v88h729v-385h-92v297h-637z" />
<glyph unicode="&#xad;" horiz-adv-x="505" d="M94 666v114h318v-114h-318z" />
<glyph unicode="&#xae;" horiz-adv-x="776" d="M139 1124v31q0 56 16.5 107.5t49.5 96t92 71t135 26.5q77 0 136 -26.5t92.5 -71t50 -96t16.5 -107.5v-31q0 -61 -16.5 -114t-50 -96.5t-92 -69t-136.5 -25.5q-77 0 -135 25.5t-91.5 69t-50 96.5t-16.5 114zM184 1124q0 -118 60.5 -192t187.5 -74q129 0 189.5 74t60.5 192 v31q0 114 -61 188t-189 74q-127 0 -187.5 -74t-60.5 -188v-31zM311 971v336h152q41 0 70.5 -23.5t29.5 -60.5v-15q0 -78 -61 -90l80 -147h-50l-71 137h-107l2 -12v-125h-45zM354 1145h105q59 0 59 51v31q0 18 -17.5 30.5t-39.5 12.5h-107l2 -10v-105z" />
<glyph unicode="&#xaf;" d="M203 1606v88h415v-88h-415z" />
<glyph unicode="&#xb0;" horiz-adv-x="563" d="M90 983v287q0 80 43 123q44 47 129 47h37q91 0 135 -47q43 -40 43 -123v-287q0 -82 -47 -129q-41 -41 -131 -41h-37q-80 0 -125 41q-47 44 -47 129zM168 971q0 -90 98 -90h27q106 0 106 90v311q0 90 -106 90h-27q-47 0 -72.5 -23.5t-25.5 -66.5v-311z" />
<glyph unicode="&#xb1;" d="M53 293v88h715v-88h-715zM53 731v88h312v275h94v-275h309v-88h-309v-274h-94v274h-312z" />
<glyph unicode="&#xb2;" horiz-adv-x="501" d="M74 717v117q0 71 27.5 110.5t86.5 79.5l80 51q31 22 44 33t25.5 36.5t12.5 61.5v90q0 35 -22.5 54.5t-67.5 19.5h-18q-45 0 -67.5 -19.5t-22.5 -54.5v-98h-78v96q0 70 35 105q41 41 120 41h41q82 0 125 -43q33 -33 33 -103v-88q0 -72 -27 -110t-88 -80l-80 -53 q-3 -2 -14 -10t-13.5 -10.5t-11 -9.5t-11 -10t-9 -10.5t-8.5 -12.5t-5.5 -13t-5 -16t-2.5 -18t-1 -22v-45h276v-69h-354z" />
<glyph unicode="&#xb3;" horiz-adv-x="501" d="M70 856v27h77v-29q0 -74 93 -74h20q98 0 98 74v115q0 86 -110 86h-86v69h90q94 0 94 78v94q0 74 -92 74h-16q-45 0 -68 -19.5t-23 -54.5v-32h-77v30q0 73 32 105q45 41 123 41h41q78 0 123 -41q35 -35 35 -105v-88q0 -45 -25.5 -73t-62.5 -35v-8q36 -2 67 -35.5t31 -81.5 v-117q0 -71 -37 -108q-43 -37 -125 -37h-45q-81 0 -118 37q-39 36 -39 108z" />
<glyph unicode="&#xb4;" d="M346 1511l141 254h109l-162 -254h-88z" />
<glyph unicode="&#xb5;" horiz-adv-x="780" d="M-25 -410l254 1434h99l-142 -801q-10 -66 21.5 -101.5t97.5 -35.5h35q79 0 127.5 42.5t62.5 121.5l138 774h100l-182 -1024h-94l18 100q-25 -39 -73 -69.5t-103 -30.5h-80q-78 0 -119 63q10 -52 0 -114l-61 -359h-99z" />
<glyph unicode="&#xb6;" horiz-adv-x="931" d="M129 612v617q0 81 57 141q28 29 70.5 46.5t85.5 17.5h422v-1844h-98v1760h-211v-1760h-99v818h-22q-85 0 -145 59.5t-60 144.5z" />
<glyph unicode="&#xb7;" horiz-adv-x="233" d="M61 641v168h111v-168h-111z" />
<glyph unicode="&#xb8;" d="M262 -137h76q55 0 55 55v127h80v-125q0 -68 -38 -106.5t-103 -38.5h-70v88z" />
<glyph unicode="&#xb9;" horiz-adv-x="368" d="M59 1362v72h181v-717h-76v645h-105z" />
<glyph unicode="&#xba;" horiz-adv-x="532" d="M80 872v404q0 77 39 119q42 45 125 45h41q84 0 131 -47q39 -36 39 -117v-404q0 -76 -43 -122q-39 -39 -127 -39h-41q-80 0 -119 39q-45 39 -45 122zM156 866q0 -43 25.5 -65.5t72.5 -22.5h18q107 0 107 88v416q0 90 -107 90h-18q-47 0 -72.5 -23.5t-25.5 -66.5v-416z" />
<glyph unicode="&#xbb;" horiz-adv-x="618" d="M59 475l129 215l17 15l-17 12l-129 213h93l137 -191v-71l-137 -193h-93zM309 475l129 215l17 15l-17 12l-129 213h92l138 -191v-71l-138 -193h-92z" />
<glyph unicode="&#xbc;" horiz-adv-x="1058" d="M59 1362v72h181v-717h-76v645h-105zM119 0l626 1434h80l-626 -1434h-80zM528 162v47l260 508h91v-488h86v-67h-86v-162h-78v162h-273zM608 229h193v383z" />
<glyph unicode="&#xbd;" horiz-adv-x="1132" d="M59 1362v72h181v-717h-76v645h-105zM117 0l626 1434h80l-626 -1434h-80zM651 0v117q0 71 28 110.5t87 79.5l78 51q32 22 45.5 33t26 36.5t12.5 61.5v91q0 73 -92 73h-17q-90 0 -90 -73v-99h-78v97q0 71 35 106q39 39 121 39h41q78 0 123 -41q35 -35 35 -104v-89 q0 -38 -7.5 -67t-25.5 -51t-35.5 -36.5t-48.5 -35.5l-78 -53q-3 -3 -17 -13t-17 -12.5t-13 -11.5t-12.5 -13.5t-9 -14t-8 -18.5t-3.5 -21.5t-2 -26.5v-45h277v-70h-355z" />
<glyph unicode="&#xbe;" horiz-adv-x="1210" d="M70 856v27h77v-29q0 -74 93 -74h20q98 0 98 74v115q0 86 -110 86h-86v69h90q94 0 94 78v94q0 74 -92 74h-16q-45 0 -68 -19.5t-23 -54.5v-32h-77v30q0 73 32 105q45 41 123 41h41q78 0 123 -41q35 -30 35 -105v-88q0 -45 -25.5 -73t-62.5 -35v-8q36 -2 67 -35.5t31 -81.5 v-117q0 -68 -35 -106q-39 -39 -127 -39h-45q-80 0 -114 34q-43 37 -43 111zM270 0l627 1434h82l-629 -1434h-80zM682 162v47l260 508h90v-488h84v-67h-84v-162h-80v162h-270zM762 229h190v383z" />
<glyph unicode="&#xbf;" horiz-adv-x="751" d="M76 197v247q0 53 26 98.5t62.5 78.5t73 66.5t62.5 78t26 96.5v189h98v-199q0 -62 -26 -113t-62.5 -85.5t-73 -66.5t-62.5 -72.5t-26 -88.5v-207q0 -141 164 -141h27q163 0 163 141v162h101v-184q0 -82 -60 -142q-62 -65 -192 -65h-53q-129 0 -191 65q-57 60 -57 142z M319 1266v168h109v-168h-109z" />
<glyph unicode="&#xc0;" horiz-adv-x="745" d="M41 0l266 1434h135l265 -1434h-107l-55 319h-342l-56 -319h-106zM186 1765h109l139 -254h-88zM217 410h311l-118 698l-31 217h-12l-27 -217z" />
<glyph unicode="&#xc1;" horiz-adv-x="745" d="M41 0l266 1434h135l265 -1434h-107l-55 319h-342l-56 -319h-106zM217 410h311l-118 698l-31 217h-12l-27 -217zM315 1511l142 254h108l-159 -254h-91z" />
<glyph unicode="&#xc2;" horiz-adv-x="745" d="M41 0l266 1434h135l265 -1434h-107l-55 319h-342l-56 -319h-106zM164 1511l160 254h98l162 -254h-103l-110 193l-109 -193h-98zM217 410h311l-118 698l-31 217h-12l-27 -217z" />
<glyph unicode="&#xc3;" horiz-adv-x="745" d="M41 0l266 1434h135l265 -1434h-107l-55 319h-342l-56 -319h-106zM129 1595q35 69 70 106.5t84 37.5q36 0 90 -33l20 -12q3 -2 12.5 -8t13.5 -9t12.5 -7.5t14 -6.5t12.5 -4t13 -2q15 0 30 12.5t22.5 24t27.5 44.5q5 8 8 13l68 -37q-35 -69 -70 -106t-86 -37q-8 0 -15.5 1 t-15 3.5t-12.5 4t-13 6t-11 6t-11.5 6.5t-9.5 6l-21 12q-58 37 -77 37q-7 0 -14 -2t-13.5 -7.5t-11.5 -10.5t-12 -15t-11.5 -17t-13.5 -20.5t-14 -21.5zM217 410h311l-118 698l-31 217h-12l-27 -217z" />
<glyph unicode="&#xc4;" horiz-adv-x="745" d="M41 0l266 1434h135l265 -1434h-107l-55 319h-342l-56 -319h-106zM217 410h311l-118 698l-31 217h-12l-27 -217zM221 1563v180h94v-180h-94zM432 1563v180h94v-180h-94z" />
<glyph unicode="&#xc5;" horiz-adv-x="745" d="M41 0l266 1434h135l265 -1434h-107l-55 319h-342l-56 -319h-106zM217 410h311l-118 698l-31 217h-12l-27 -217zM219 1665q0 63 45.5 108.5t108.5 45.5t109 -45.5t46 -108.5t-46 -107.5t-109 -44.5t-108.5 44.5t-45.5 107.5zM283 1665q0 -40 25 -66t65 -26q41 0 67.5 26 t26.5 66q0 41 -26.5 67.5t-67.5 26.5q-40 0 -65 -26.5t-25 -67.5z" />
<glyph unicode="&#xc6;" horiz-adv-x="997" d="M-31 0l449 1434h502v-91h-353v-561h295v-90h-295v-604h353v-88h-451v319h-299l-96 -319h-105zM195 410h274v622l2 293h-12l-41 -176z" />
<glyph unicode="&#xc7;" horiz-adv-x="782" d="M129 227v979q0 65 14 103.5t43 68.5q63 66 199 66h57q140 0 203 -66q29 -30 43 -68.5t14 -103.5v-155h-100v163q0 142 -172 142h-31q-170 0 -170 -142v-995q0 -141 170 -141h31q172 0 172 141v162h100v-154q0 -118 -63 -178q-57 -54 -178 -59v-70q0 -68 -38.5 -106.5 t-103.5 -38.5h-69v88h76q55 0 55 55v72q-128 3 -188 59q-64 61 -64 178z" />
<glyph unicode="&#xc8;" horiz-adv-x="679" d="M152 0v1434h450v-91h-350v-561h293v-90h-293v-604h350v-88h-450zM184 1765h109l141 -254h-88z" />
<glyph unicode="&#xc9;" horiz-adv-x="679" d="M152 0v1434h450v-91h-350v-561h293v-90h-293v-604h350v-88h-450zM317 1511l140 254h108l-159 -254h-89z" />
<glyph unicode="&#xca;" horiz-adv-x="679" d="M152 0v1434h450v-91h-350v-561h293v-90h-293v-604h350v-88h-450zM162 1511l160 254h98l164 -254h-103l-110 193l-111 -193h-98z" />
<glyph unicode="&#xcb;" horiz-adv-x="679" d="M152 0v1434h450v-91h-350v-561h293v-90h-293v-604h350v-88h-450zM221 1563v180h94v-180h-94zM430 1563v180h94v-180h-94z" />
<glyph unicode="&#xcc;" horiz-adv-x="403" d="M10 1765h109l141 -254h-90zM152 0v1434h100v-1434h-100z" />
<glyph unicode="&#xcd;" horiz-adv-x="403" d="M143 1511l142 254h106l-160 -254h-88zM152 0v1434h100v-1434h-100z" />
<glyph unicode="&#xce;" horiz-adv-x="403" d="M-10 1511l160 254h98l164 -254h-103l-110 193l-111 -193h-98zM152 0v1434h100v-1434h-100z" />
<glyph unicode="&#xcf;" horiz-adv-x="403" d="M49 1563v180h94v-180h-94zM49 1563v180h94v-180h-94zM152 0v1434h100v-1434h-100zM258 1563v180h94v-180h-94zM258 1563v180h94v-180h-94z" />
<glyph unicode="&#xd0;" horiz-adv-x="868" d="M59 690v86h107v658h360q43 0 85.5 -17.5t70.5 -46.5q30 -31 43.5 -67.5t13.5 -104.5v-962q0 -119 -63 -179q-64 -57 -150 -57h-360v690h-107zM264 88h232q67 0 105 36t38 101v981q0 65 -38 101t-105 36h-232v-567h189v-86h-189v-602z" />
<glyph unicode="&#xd1;" horiz-adv-x="948" d="M152 0v1434h151l326 -1080l63 -221h15l-11 602v699h101v-1434h-150l-328 1079l-63 221h-12l8 -755v-545h-100zM225 1595q35 69 70 106.5t84 37.5q36 0 90 -33l20 -12q3 -2 12.5 -8t13.5 -9t12.5 -7.5t14 -6.5t12.5 -4t13 -2q15 0 30 12.5t22.5 24t27.5 44.5q5 8 8 13 l68 -37q-35 -69 -70 -106t-86 -37q-8 0 -15.5 1t-15 3.5t-12.5 4t-13 6t-11 6t-11.5 6.5t-9.5 6l-20 12q-58 37 -78 37q-7 0 -14 -2t-13.5 -7.5t-11.5 -10.5t-12 -15t-11.5 -17t-13.5 -20.5t-14 -21.5z" />
<glyph unicode="&#xd2;" horiz-adv-x="831" d="M129 227v979q0 65 14 103.5t43 68.5q63 66 199 66h57q138 0 201 -66q30 -30 44.5 -68.5t14.5 -103.5v-979q0 -116 -63 -176q-61 -61 -197 -61h-57q-131 0 -195 61q-61 61 -61 176zM227 1765h109l139 -254h-88zM229 219q0 -141 170 -141h31q172 0 172 141v995 q0 142 -172 142h-31q-170 0 -170 -142v-995z" />
<glyph unicode="&#xd3;" horiz-adv-x="831" d="M129 227v979q0 65 14 103.5t43 68.5q63 66 199 66h57q138 0 201 -66q30 -30 44.5 -68.5t14.5 -103.5v-979q0 -116 -63 -176q-61 -61 -197 -61h-57q-131 0 -195 61q-61 61 -61 176zM229 219q0 -141 170 -141h31q172 0 172 141v995q0 142 -172 142h-31q-170 0 -170 -142 v-995zM360 1511l142 254h106l-159 -254h-89z" />
<glyph unicode="&#xd4;" horiz-adv-x="831" d="M129 227v979q0 65 14 103.5t43 68.5q63 66 199 66h57q138 0 201 -66q30 -30 44.5 -68.5t14.5 -103.5v-979q0 -116 -63 -176q-61 -61 -197 -61h-57q-131 0 -195 61q-61 61 -61 176zM205 1511l160 254h98l162 -254h-103l-110 193l-109 -193h-98zM229 219q0 -141 170 -141 h31q172 0 172 141v995q0 142 -172 142h-31q-170 0 -170 -142v-995z" />
<glyph unicode="&#xd5;" horiz-adv-x="831" d="M129 227v979q0 65 14 103.5t43 68.5q63 66 199 66h57q138 0 201 -66q30 -30 44.5 -68.5t14.5 -103.5v-979q0 -116 -63 -176q-61 -61 -197 -61h-57q-131 0 -195 61q-61 61 -61 176zM166 1595q35 69 70 106.5t86 37.5q8 0 15.5 -1t15 -3.5t12.5 -4t13 -6t11 -6t11.5 -6.5 t9.5 -6l20 -12q58 -37 80 -37q16 0 31.5 14.5t25 28.5t31.5 51l66 -37q-35 -70 -69 -106.5t-85 -36.5q-36 0 -90 33l-19 12q-5 3 -19.5 12t-21.5 13t-18 8t-20 4q-15 0 -30 -13t-23.5 -25.5t-28.5 -44.5q-2 -3 -2.5 -4t-2 -3t-2.5 -4zM229 219q0 -141 170 -141h31 q172 0 172 141v995q0 142 -172 142h-31q-170 0 -170 -142v-995z" />
<glyph unicode="&#xd6;" horiz-adv-x="831" d="M129 227v979q0 65 14 103.5t43 68.5q63 66 199 66h57q138 0 201 -66q30 -30 44.5 -68.5t14.5 -103.5v-979q0 -116 -63 -176q-61 -61 -197 -61h-57q-131 0 -195 61q-61 61 -61 176zM229 219q0 -141 170 -141h31q172 0 172 141v995q0 142 -172 142h-31q-170 0 -170 -142 v-995zM262 1563v180h94v-180h-94zM473 1563v180h92v-180h-92z" />
<glyph unicode="&#xd7;" d="M29 393l317 318l-317 319l63 64l318 -318l317 316l61 -64l-317 -315l320 -318l-64 -63l-319 315l-318 -315z" />
<glyph unicode="&#xd8;" horiz-adv-x="831" d="M113 -102l57 176q-41 53 -41 153v979q0 65 14 103.5t43 68.5q63 66 199 66h57q106 0 166 -37l43 129h62l-58 -172q47 -53 47 -158v-979q0 -118 -63 -178q-62 -59 -197 -59h-57q-110 0 -166 39l-43 -131h-63zM227 319q0 -79 2 -96l336 1082l2 6q-45 45 -133 45h-39 q-168 0 -168 -142v-895zM260 125q41 -47 135 -47h39q170 0 170 141v895q0 72 -4 105l-338 -1086z" />
<glyph unicode="&#xd9;" horiz-adv-x="860" d="M143 227v1207h101v-1215q0 -141 170 -141h30q172 0 172 139v1217h101v-1207q0 -115 -64 -176q-61 -61 -196 -61h-58q-130 0 -194 61q-62 62 -62 176zM242 1765h108l139 -254h-88z" />
<glyph unicode="&#xda;" horiz-adv-x="860" d="M143 227v1207h101v-1215q0 -141 170 -141h30q172 0 172 139v1217h101v-1207q0 -115 -64 -176q-61 -61 -196 -61h-58q-130 0 -194 61q-62 62 -62 176zM373 1511l139 254h109l-160 -254h-88z" />
<glyph unicode="&#xdb;" horiz-adv-x="860" d="M143 227v1207h101v-1215q0 -141 170 -141h30q172 0 172 139v1217h101v-1207q0 -115 -64 -176q-61 -61 -196 -61h-58q-130 0 -194 61q-62 62 -62 176zM219 1511l160 254h98l162 -254h-102l-111 193l-109 -193h-98z" />
<glyph unicode="&#xdc;" horiz-adv-x="860" d="M143 227v1207h101v-1215q0 -141 170 -141h30q172 0 172 139v1217h101v-1207q0 -115 -64 -176q-61 -61 -196 -61h-58q-130 0 -194 61q-62 62 -62 176zM276 1563v180h95v-180h-95zM487 1563v180h93v-180h-93z" />
<glyph unicode="&#xdd;" horiz-adv-x="694" d="M6 1434h103l188 -529l45 -131h12l45 131l191 529h98l-291 -789v-645h-100v645zM291 1511l141 254h109l-160 -254h-90z" />
<glyph unicode="&#xde;" horiz-adv-x="806" d="M152 0v1434h100v-326h260q44 0 87 -17.5t71 -46.5q55 -62 55 -172v-292q0 -68 -15.5 -108.5t-47.5 -70.5q-60 -57 -150 -57h-260v-344h-100zM252 432h229q67 0 105.5 36t38.5 101v316q0 65 -38.5 100t-105.5 35h-229v-588z" />
<glyph unicode="&#xdf;" horiz-adv-x="1572" d="M106 227v154h101v-162q0 -141 170 -141h33q170 0 170 141v201q0 51 -9 87t-33.5 64.5t-45 44.5t-66.5 46l-127 83q-95 62 -139.5 125.5t-44.5 163.5v172q0 65 14 103.5t43 68.5q63 66 201 66h57q127 0 193 -66q29 -30 43 -68.5t14 -103.5v-155h-100v163q0 67 -41 104.5 t-121 37.5h-33q-170 0 -170 -142v-145q0 -53 7.5 -88.5t29 -63.5t42.5 -45t64 -45l129 -82q97 -64 145 -128t48 -162v-228q0 -115 -64 -176q-61 -61 -194 -61h-57q-133 0 -195 59q-64 61 -64 178zM893 227v154h100v-162q0 -141 170 -141h33q170 0 170 141v201q0 51 -9 87 t-33.5 64.5t-45 44.5t-66.5 46l-127 83q-95 62 -139.5 125.5t-44.5 163.5v172q0 65 14 103.5t43 68.5q63 66 201 66h58q126 0 192 -66q29 -30 43 -68.5t14 -103.5v-155h-100v163q0 67 -41 104.5t-121 37.5h-33q-172 0 -172 -142v-145q0 -52 8 -88t30.5 -64t43 -44.5 t64.5 -45.5l129 -82q96 -64 144 -127.5t48 -162.5v-228q0 -116 -63 -176q-61 -61 -195 -61h-57q-133 0 -195 59q-63 60 -63 178z" />
<glyph unicode="&#xe0;" horiz-adv-x="745" d="M41 0l266 1434h135l265 -1434h-107l-55 319h-342l-56 -319h-106zM186 1765h109l139 -254h-88zM217 410h311l-118 698l-31 217h-12l-27 -217z" />
<glyph unicode="&#xe1;" horiz-adv-x="745" d="M41 0l266 1434h135l265 -1434h-107l-55 319h-342l-56 -319h-106zM217 410h311l-118 698l-31 217h-12l-27 -217zM315 1511l142 254h108l-159 -254h-91z" />
<glyph unicode="&#xe2;" horiz-adv-x="745" d="M41 0l266 1434h135l265 -1434h-107l-55 319h-342l-56 -319h-106zM164 1511l160 254h98l162 -254h-103l-110 193l-109 -193h-98zM217 410h311l-118 698l-31 217h-12l-27 -217z" />
<glyph unicode="&#xe3;" horiz-adv-x="745" d="M41 0l266 1434h135l265 -1434h-107l-55 319h-342l-56 -319h-106zM129 1595q35 69 70 106.5t84 37.5q36 0 90 -33l20 -12q3 -2 12.5 -8t13.5 -9t12.5 -7.5t14 -6.5t12.5 -4t13 -2q15 0 30 12.5t22.5 24t27.5 44.5q5 8 8 13l68 -37q-35 -69 -70 -106t-86 -37q-8 0 -15.5 1 t-15 3.5t-12.5 4t-13 6t-11 6t-11.5 6.5t-9.5 6l-21 12q-58 37 -77 37q-7 0 -14 -2t-13.5 -7.5t-11.5 -10.5t-12 -15t-11.5 -17t-13.5 -20.5t-14 -21.5zM217 410h311l-118 698l-31 217h-12l-27 -217z" />
<glyph unicode="&#xe4;" horiz-adv-x="745" d="M41 0l266 1434h135l265 -1434h-107l-55 319h-342l-56 -319h-106zM217 410h311l-118 698l-31 217h-12l-27 -217zM221 1563v180h94v-180h-94zM432 1563v180h94v-180h-94z" />
<glyph unicode="&#xe5;" horiz-adv-x="745" d="M41 0l266 1434h135l265 -1434h-107l-55 319h-342l-56 -319h-106zM217 410h311l-118 698l-31 217h-12l-27 -217zM219 1665q0 63 45.5 108.5t108.5 45.5t109 -45.5t46 -108.5t-46 -107.5t-109 -44.5t-108.5 44.5t-45.5 107.5zM283 1665q0 -40 25 -66t65 -26q41 0 67.5 26 t26.5 66q0 41 -26.5 67.5t-67.5 26.5q-40 0 -65 -26.5t-25 -67.5z" />
<glyph unicode="&#xe6;" horiz-adv-x="997" d="M-31 0l449 1434h502v-91h-353v-561h295v-90h-295v-604h353v-88h-451v319h-299l-96 -319h-105zM195 410h274v622l2 293h-12l-41 -176z" />
<glyph unicode="&#xe7;" horiz-adv-x="782" d="M129 227v979q0 65 14 103.5t43 68.5q63 66 199 66h57q140 0 203 -66q29 -30 43 -68.5t14 -103.5v-155h-100v163q0 142 -172 142h-31q-170 0 -170 -142v-995q0 -141 170 -141h31q172 0 172 141v162h100v-154q0 -118 -63 -178q-57 -54 -178 -59v-70q0 -68 -38.5 -106.5 t-103.5 -38.5h-69v88h76q55 0 55 55v72q-128 3 -188 59q-64 61 -64 178z" />
<glyph unicode="&#xe8;" horiz-adv-x="679" d="M152 0v1434h450v-91h-350v-561h293v-90h-293v-604h350v-88h-450zM184 1765h109l141 -254h-88z" />
<glyph unicode="&#xe9;" horiz-adv-x="679" d="M152 0v1434h450v-91h-350v-561h293v-90h-293v-604h350v-88h-450zM317 1511l140 254h108l-159 -254h-89z" />
<glyph unicode="&#xea;" horiz-adv-x="679" d="M152 0v1434h450v-91h-350v-561h293v-90h-293v-604h350v-88h-450zM162 1511l160 254h98l164 -254h-103l-110 193l-111 -193h-98z" />
<glyph unicode="&#xeb;" horiz-adv-x="679" d="M152 0v1434h450v-91h-350v-561h293v-90h-293v-604h350v-88h-450zM221 1563v180h94v-180h-94zM430 1563v180h94v-180h-94z" />
<glyph unicode="&#xec;" horiz-adv-x="403" d="M10 1765h109l141 -254h-90zM152 0v1434h100v-1434h-100z" />
<glyph unicode="&#xed;" horiz-adv-x="403" d="M143 1511l142 254h106l-160 -254h-88zM152 0v1434h100v-1434h-100z" />
<glyph unicode="&#xee;" horiz-adv-x="403" d="M-10 1511l160 254h98l164 -254h-103l-110 193l-111 -193h-98zM152 0v1434h100v-1434h-100z" />
<glyph unicode="&#xef;" horiz-adv-x="403" d="M49 1563v180h94v-180h-94zM49 1563v180h94v-180h-94zM152 0v1434h100v-1434h-100zM258 1563v180h94v-180h-94zM258 1563v180h94v-180h-94z" />
<glyph unicode="&#xf0;" horiz-adv-x="868" d="M59 690v86h107v658h360q43 0 85.5 -17.5t70.5 -46.5q30 -31 43.5 -67.5t13.5 -104.5v-962q0 -119 -63 -179q-64 -57 -150 -57h-360v690h-107zM264 88h232q67 0 105 36t38 101v981q0 65 -38 101t-105 36h-232v-567h189v-86h-189v-602z" />
<glyph unicode="&#xf1;" horiz-adv-x="948" d="M152 0v1434h151l326 -1080l63 -221h15l-11 602v699h101v-1434h-150l-328 1079l-63 221h-12l8 -755v-545h-100zM225 1595q35 69 70 106.5t84 37.5q36 0 90 -33l20 -12q3 -2 12.5 -8t13.5 -9t12.5 -7.5t14 -6.5t12.5 -4t13 -2q15 0 30 12.5t22.5 24t27.5 44.5q5 8 8 13 l68 -37q-35 -69 -70 -106t-86 -37q-8 0 -15.5 1t-15 3.5t-12.5 4t-13 6t-11 6t-11.5 6.5t-9.5 6l-20 12q-58 37 -78 37q-7 0 -14 -2t-13.5 -7.5t-11.5 -10.5t-12 -15t-11.5 -17t-13.5 -20.5t-14 -21.5z" />
<glyph unicode="&#xf2;" horiz-adv-x="831" d="M129 227v979q0 65 14 103.5t43 68.5q63 66 199 66h57q138 0 201 -66q30 -30 44.5 -68.5t14.5 -103.5v-979q0 -116 -63 -176q-61 -61 -197 -61h-57q-131 0 -195 61q-61 61 -61 176zM227 1765h109l139 -254h-88zM229 219q0 -141 170 -141h31q172 0 172 141v995 q0 142 -172 142h-31q-170 0 -170 -142v-995z" />
<glyph unicode="&#xf3;" horiz-adv-x="831" d="M129 227v979q0 65 14 103.5t43 68.5q63 66 199 66h57q138 0 201 -66q30 -30 44.5 -68.5t14.5 -103.5v-979q0 -116 -63 -176q-61 -61 -197 -61h-57q-131 0 -195 61q-61 61 -61 176zM229 219q0 -141 170 -141h31q172 0 172 141v995q0 142 -172 142h-31q-170 0 -170 -142 v-995zM360 1511l142 254h106l-159 -254h-89z" />
<glyph unicode="&#xf4;" horiz-adv-x="831" d="M129 227v979q0 65 14 103.5t43 68.5q63 66 199 66h57q138 0 201 -66q30 -30 44.5 -68.5t14.5 -103.5v-979q0 -116 -63 -176q-61 -61 -197 -61h-57q-131 0 -195 61q-61 61 -61 176zM205 1511l160 254h98l162 -254h-103l-110 193l-109 -193h-98zM229 219q0 -141 170 -141 h31q172 0 172 141v995q0 142 -172 142h-31q-170 0 -170 -142v-995z" />
<glyph unicode="&#xf5;" horiz-adv-x="831" d="M129 227v979q0 65 14 103.5t43 68.5q63 66 199 66h57q138 0 201 -66q30 -30 44.5 -68.5t14.5 -103.5v-979q0 -116 -63 -176q-61 -61 -197 -61h-57q-131 0 -195 61q-61 61 -61 176zM166 1595q35 69 70 106.5t86 37.5q8 0 15.5 -1t15 -3.5t12.5 -4t13 -6t11 -6t11.5 -6.5 t9.5 -6l20 -12q58 -37 80 -37q16 0 31.5 14.5t25 28.5t31.5 51l66 -37q-35 -70 -69 -106.5t-85 -36.5q-36 0 -90 33l-19 12q-5 3 -19.5 12t-21.5 13t-18 8t-20 4q-15 0 -30 -13t-23.5 -25.5t-28.5 -44.5q-2 -3 -2.5 -4t-2 -3t-2.5 -4zM229 219q0 -141 170 -141h31 q172 0 172 141v995q0 142 -172 142h-31q-170 0 -170 -142v-995z" />
<glyph unicode="&#xf6;" horiz-adv-x="831" d="M129 227v979q0 65 14 103.5t43 68.5q63 66 199 66h57q138 0 201 -66q30 -30 44.5 -68.5t14.5 -103.5v-979q0 -116 -63 -176q-61 -61 -197 -61h-57q-131 0 -195 61q-61 61 -61 176zM229 219q0 -141 170 -141h31q172 0 172 141v995q0 142 -172 142h-31q-170 0 -170 -142 v-995zM262 1563v180h94v-180h-94zM473 1563v180h92v-180h-92z" />
<glyph unicode="&#xf7;" d="M82 666v88h655v-88h-655zM358 326v163h101v-163h-101zM358 928v166h101v-166h-101z" />
<glyph unicode="&#xf8;" horiz-adv-x="831" d="M113 -102l57 176q-41 53 -41 153v979q0 65 14 103.5t43 68.5q63 66 199 66h57q106 0 166 -37l43 129h62l-58 -172q47 -53 47 -158v-979q0 -118 -63 -178q-62 -59 -197 -59h-57q-110 0 -166 39l-43 -131h-63zM227 319q0 -79 2 -96l336 1082l2 6q-45 45 -133 45h-39 q-168 0 -168 -142v-895zM260 125q41 -47 135 -47h39q170 0 170 141v895q0 72 -4 105l-338 -1086z" />
<glyph unicode="&#xf9;" horiz-adv-x="860" d="M143 227v1207h101v-1215q0 -141 170 -141h30q172 0 172 139v1217h101v-1207q0 -115 -64 -176q-61 -61 -196 -61h-58q-130 0 -194 61q-62 62 -62 176zM242 1765h108l139 -254h-88z" />
<glyph unicode="&#xfa;" horiz-adv-x="860" d="M143 227v1207h101v-1215q0 -141 170 -141h30q172 0 172 139v1217h101v-1207q0 -115 -64 -176q-61 -61 -196 -61h-58q-130 0 -194 61q-62 62 -62 176zM373 1511l139 254h109l-160 -254h-88z" />
<glyph unicode="&#xfb;" horiz-adv-x="860" d="M143 227v1207h101v-1215q0 -141 170 -141h30q172 0 172 139v1217h101v-1207q0 -115 -64 -176q-61 -61 -196 -61h-58q-130 0 -194 61q-62 62 -62 176zM219 1511l160 254h98l162 -254h-102l-111 193l-109 -193h-98z" />
<glyph unicode="&#xfc;" horiz-adv-x="860" d="M143 227v1207h101v-1215q0 -141 170 -141h30q172 0 172 139v1217h101v-1207q0 -115 -64 -176q-61 -61 -196 -61h-58q-130 0 -194 61q-62 62 -62 176zM276 1563v180h95v-180h-95zM487 1563v180h93v-180h-93z" />
<glyph unicode="&#xfd;" horiz-adv-x="694" d="M6 1434h103l188 -529l45 -131h12l45 131l191 529h98l-291 -789v-645h-100v645zM291 1511l141 254h109l-160 -254h-90z" />
<glyph unicode="&#xfe;" horiz-adv-x="806" d="M152 0v1434h100v-326h260q44 0 87 -17.5t71 -46.5q55 -62 55 -172v-292q0 -68 -15.5 -108.5t-47.5 -70.5q-60 -57 -150 -57h-260v-344h-100zM252 432h229q67 0 105.5 36t38.5 101v316q0 65 -38.5 100t-105.5 35h-229v-588z" />
<glyph unicode="&#xff;" horiz-adv-x="694" d="M6 1434h100l189 -529l45 -131h12l45 131l191 529h100l-291 -789v-645h-100v645zM195 1563v180h94v-180h-94zM403 1563v180h95v-180h-95z" />
<glyph unicode="&#x152;" horiz-adv-x="1130" d="M129 236v962q0 66 15 104.5t44 69.5q63 66 197 66h29q99 0 149 -43q8 -7 39 -43v82h451v-93h-351v-559h293v-90h-293v-600h351v-92h-451v82q-22 -29 -45 -47q-46 -39 -143 -39h-29q-127 0 -195 61q-61 61 -61 179zM229 225q0 -139 170 -139h31q172 0 172 139v983 q0 140 -172 140h-31q-170 0 -170 -140v-983z" />
<glyph unicode="&#x153;" horiz-adv-x="1130" d="M129 236v962q0 66 15 104.5t44 69.5q63 66 197 66h29q99 0 149 -43q8 -7 39 -43v82h451v-93h-351v-559h293v-90h-293v-600h351v-92h-451v82q-22 -29 -45 -47q-46 -39 -143 -39h-29q-127 0 -195 61q-61 61 -61 179zM229 225q0 -139 170 -139h31q172 0 172 139v983 q0 140 -172 140h-31q-170 0 -170 -140v-983z" />
<glyph unicode="&#x178;" horiz-adv-x="694" d="M6 1434h100l189 -529l45 -131h12l45 131l191 529h100l-291 -789v-645h-100v645zM195 1563v180h94v-180h-94zM403 1563v180h95v-180h-95z" />
<glyph unicode="&#x2c6;" d="M199 1511l159 254h99l161 -254h-102l-110 193l-109 -193h-98z" />
<glyph unicode="&#x2dc;" d="M162 1595q35 70 69.5 107t85.5 37q35 0 89 -33l20 -12q58 -37 80 -37q16 0 31.5 14.5t25 28.5t31.5 51l65 -37q-35 -70 -69 -106.5t-84 -36.5q-36 0 -90 33l-19 12q-3 2 -19 12t-22.5 13.5t-18 7.5t-20.5 4q-30 0 -79 -80l-3 -4.5l-3 -4.5t-3 -5z" />
<glyph unicode="&#x2000;" horiz-adv-x="911" />
<glyph unicode="&#x2001;" horiz-adv-x="1823" />
<glyph unicode="&#x2002;" horiz-adv-x="911" />
<glyph unicode="&#x2003;" horiz-adv-x="1823" />
<glyph unicode="&#x2004;" horiz-adv-x="607" />
<glyph unicode="&#x2005;" horiz-adv-x="455" />
<glyph unicode="&#x2006;" horiz-adv-x="303" />
<glyph unicode="&#x2007;" horiz-adv-x="303" />
<glyph unicode="&#x2008;" horiz-adv-x="227" />
<glyph unicode="&#x2009;" horiz-adv-x="364" />
<glyph unicode="&#x200a;" horiz-adv-x="101" />
<glyph unicode="&#x2010;" horiz-adv-x="505" d="M94 666v114h318v-114h-318z" />
<glyph unicode="&#x2011;" horiz-adv-x="505" d="M94 666v114h318v-114h-318z" />
<glyph unicode="&#x2012;" horiz-adv-x="505" d="M94 666v114h318v-114h-318z" />
<glyph unicode="&#x2013;" horiz-adv-x="921" d="M82 666v86h758v-86h-758z" />
<glyph unicode="&#x2014;" horiz-adv-x="1638" d="M82 666v86h1474v-86h-1474z" />
<glyph unicode="&#x2018;" horiz-adv-x="219" d="M61 1118v205q0 63 24.5 87t78.5 24v-54q-27 0 -37 -12t-10 -49v-53h28q19 0 19 -27v-121h-103z" />
<glyph unicode="&#x2019;" horiz-adv-x="219" d="M61 1118v53q28 0 39 12.5t11 49.5v53h-29q-21 0 -21 27v121h103v-205q0 -64 -24 -87.5t-79 -23.5z" />
<glyph unicode="&#x201a;" horiz-adv-x="219" d="M61 47v121h103v-205q0 -63 -24 -86.5t-79 -23.5v53q28 0 39 12t11 49v53h-29q-21 0 -21 27z" />
<glyph unicode="&#x201c;" horiz-adv-x="428" d="M61 1118v205q0 63 24.5 87t78.5 24v-54q-27 0 -37 -12t-10 -49v-53h28q19 0 19 -27v-121h-103zM268 1118v205q0 63 24 87t77 24v-54q-27 0 -37 -12t-10 -49v-53h28q19 0 19 -27v-121h-101z" />
<glyph unicode="&#x201d;" horiz-adv-x="428" d="M61 1118v53q28 0 39 12.5t11 49.5v53h-29q-21 0 -21 27v121h103v-205q0 -64 -24 -87.5t-79 -23.5zM268 1118v53q27 0 37 12.5t10 49.5v53h-28q-19 0 -19 27v121h101v-205q0 -63 -23.5 -87t-77.5 -24z" />
<glyph unicode="&#x201e;" horiz-adv-x="428" d="M61 47v121h103v-205q0 -63 -24 -86.5t-79 -23.5v53q28 0 39 12t11 49v53h-29q-21 0 -21 27zM268 47v121h101v-205q0 -63 -23.5 -86.5t-77.5 -23.5v53q27 0 37 12t10 49v53h-28q-19 0 -19 27z" />
<glyph unicode="&#x2022;" horiz-adv-x="667" d="M111 725q0 93 65 158t158 65q94 0 158.5 -64.5t64.5 -158.5q0 -93 -65 -158t-158 -65q-92 0 -157.5 65.5t-65.5 157.5z" />
<glyph unicode="&#x2026;" horiz-adv-x="1277" d="M207 0v168h110v-168h-110zM586 0v168h110v-168h-110zM965 0v168h108v-168h-108z" />
<glyph unicode="&#x202f;" horiz-adv-x="364" />
<glyph unicode="&#x2039;" horiz-adv-x="368" d="M80 668v71l137 191h92l-129 -213l-14 -12l14 -15l129 -215h-92z" />
<glyph unicode="&#x203a;" horiz-adv-x="368" d="M59 475l129 215l17 15l-17 12l-129 213h93l137 -191v-71l-137 -193h-93z" />
<glyph unicode="&#x205f;" horiz-adv-x="455" />
<glyph unicode="&#x20ac;" d="M16 530v84h103v215h-103v84h103v293q0 112 57 172q31 32 79 49t136 17h58q87 0 135.5 -16.5t81.5 -47.5q57 -57 57 -143v-68h-100v45q0 144 -187 144h-33q-184 0 -184 -144v-301h350v-84h-350v-215h350v-84h-350v-311q0 -143 184 -143h33q187 0 187 143v45h100v-67 q0 -87 -64 -148q-31 -29 -77 -44t-133 -15h-58q-86 0 -132 15t-77 44q-63 60 -63 178v303h-103z" />
<glyph unicode="&#x2122;" horiz-adv-x="831" d="M59 1393v41h265v-41h-99l-14 2l4 -11v-331h-47v331l2 11l-14 -2h-97zM375 1053v381h71l97 -250l96 250h70v-381h-50v315h-6l-92 -235h-39l-96 235h-6v-315h-45z" />
<glyph unicode="&#x25fc;" horiz-adv-x="1433" d="M0 0v1434h1434v-1434h-1434z" />
<glyph unicode="&#xfb01;" horiz-adv-x="1042" d="M152 0v1434h450v-91h-350v-561h293v-90h-293v-692h-100zM791 0v1434h100v-1434h-100z" />
<glyph unicode="&#xfb02;" horiz-adv-x="1263" d="M152 0v1434h450v-91h-350v-561h293v-90h-293v-692h-100zM791 0v1434h100v-1346h350v-88h-450z" />
<glyph unicode="&#xfb03;" horiz-adv-x="1681" d="M152 0v1434h450v-91h-350v-561h293v-90h-293v-692h-100zM791 0v1434h450v-91h-350v-561h293v-90h-293v-692h-100zM1430 0v1434h100v-1434h-100z" />
<glyph unicode="&#xfb04;" horiz-adv-x="1902" d="M152 0v1434h450v-91h-350v-561h293v-90h-293v-692h-100zM791 0v1434h450v-91h-350v-561h293v-90h-293v-692h-100zM1430 0v1434h100v-1346h350v-88h-450z" />
</font>
</defs>
</svg>
